<mxfile host="drawio-plugin" modified="2023-01-08T16:59:27.663Z" agent="5.0 (Windows NT 6.2; Win64; x64) AppleWebKit/537.36 (KHTML, like Gecko) Chrome/104.0.5112.102 Safari/537.36" etag="fQ-1s_dMQpsKHkJE5SxS" version="20.5.3" type="embed"><diagram name="General Diagram" id="VzReYTAh5ZhTb9vGu9h-"><mxGraphModel dx="1487" dy="373" grid="1" gridSize="10" guides="1" tooltips="1" connect="1" arrows="1" fold="1" page="1" pageScale="1" pageWidth="827" pageHeight="1169" math="0" shadow="0"><root><mxCell id="mEXFG2sUmQ1XzkrOF1mA-0"/><mxCell id="mEXFG2sUmQ1XzkrOF1mA-1" parent="mEXFG2sUmQ1XzkrOF1mA-0"/><mxCell id="mEXFG2sUmQ1XzkrOF1mA-2" style="edgeStyle=orthogonalEdgeStyle;rounded=0;orthogonalLoop=1;jettySize=auto;html=1;exitX=0.112;exitY=1;exitDx=0;exitDy=0;fontColor=default;startArrow=classic;startFill=1;exitPerimeter=0;endArrow=none;endFill=0;" parent="mEXFG2sUmQ1XzkrOF1mA-1" source="mEXFG2sUmQ1XzkrOF1mA-4" target="mEXFG2sUmQ1XzkrOF1mA-43" edge="1"><mxGeometry relative="1" as="geometry"/></mxCell><mxCell id="01Let86RBlpvGtF0hyK3-53" value="Scrape metrics" style="edgeLabel;html=1;align=center;verticalAlign=middle;resizable=0;points=[];labelBorderColor=default;" parent="mEXFG2sUmQ1XzkrOF1mA-2" vertex="1" connectable="0"><mxGeometry x="0.1539" y="-1" relative="1" as="geometry"><mxPoint as="offset"/></mxGeometry></mxCell><mxCell id="C-EEUxcw7qsWDY_6hw8K-13" style="edgeStyle=orthogonalEdgeStyle;rounded=0;orthogonalLoop=1;jettySize=auto;html=1;exitX=0.75;exitY=1;exitDx=0;exitDy=0;fontSize=10;startArrow=none;startFill=0;endArrow=classic;endFill=1;entryX=0.5;entryY=0;entryDx=0;entryDy=0;" parent="mEXFG2sUmQ1XzkrOF1mA-1" source="mEXFG2sUmQ1XzkrOF1mA-4" target="C-EEUxcw7qsWDY_6hw8K-17" edge="1"><mxGeometry relative="1" as="geometry"><mxPoint x="800" y="780" as="targetPoint"/></mxGeometry></mxCell><mxCell id="01Let86RBlpvGtF0hyK3-56" value="&lt;span style=&quot;font-size: 10px;&quot;&gt;Push logs&lt;/span&gt;" style="edgeLabel;html=1;align=center;verticalAlign=middle;resizable=0;points=[];labelBorderColor=default;" parent="C-EEUxcw7qsWDY_6hw8K-13" vertex="1" connectable="0"><mxGeometry x="-0.3779" y="3" relative="1" as="geometry"><mxPoint x="-22" as="offset"/></mxGeometry></mxCell><mxCell id="C-EEUxcw7qsWDY_6hw8K-15" style="edgeStyle=orthogonalEdgeStyle;rounded=0;orthogonalLoop=1;jettySize=auto;html=1;exitX=0.908;exitY=0.996;exitDx=0;exitDy=0;entryX=0.5;entryY=0;entryDx=0;entryDy=0;fontSize=10;startArrow=none;startFill=0;endArrow=classic;endFill=1;exitPerimeter=0;" parent="mEXFG2sUmQ1XzkrOF1mA-1" source="mEXFG2sUmQ1XzkrOF1mA-4" target="C-EEUxcw7qsWDY_6hw8K-11" edge="1"><mxGeometry relative="1" as="geometry"/></mxCell><mxCell id="C-EEUxcw7qsWDY_6hw8K-16" value="Push request trackers" style="edgeLabel;html=1;align=center;verticalAlign=middle;resizable=0;points=[];fontSize=10;labelBorderColor=default;" parent="C-EEUxcw7qsWDY_6hw8K-15" vertex="1" connectable="0"><mxGeometry x="-0.2096" y="1" relative="1" as="geometry"><mxPoint as="offset"/></mxGeometry></mxCell><mxCell id="mEXFG2sUmQ1XzkrOF1mA-4" value="" style="rounded=1;whiteSpace=wrap;html=1;shadow=1;glass=0;labelBackgroundColor=#FFE6CC;labelBorderColor=default;sketch=0;strokeColor=#666666;fillColor=#f5f5f5;fontColor=#333333;" parent="mEXFG2sUmQ1XzkrOF1mA-1" vertex="1"><mxGeometry x="310" y="250" width="840" height="480" as="geometry"/></mxCell><mxCell id="mEXFG2sUmQ1XzkrOF1mA-5" value="Private network" style="rounded=1;whiteSpace=wrap;html=1;fillColor=#f8cecc;strokeColor=#b85450;verticalAlign=top;" parent="mEXFG2sUmQ1XzkrOF1mA-1" vertex="1"><mxGeometry x="650" y="285" width="450" height="425" as="geometry"/></mxCell><mxCell id="mEXFG2sUmQ1XzkrOF1mA-6" style="rounded=0;orthogonalLoop=1;jettySize=auto;html=1;exitX=1;exitY=0.086;exitDx=0;exitDy=0;exitPerimeter=0;entryX=0;entryY=0.5;entryDx=0;entryDy=0;" parent="mEXFG2sUmQ1XzkrOF1mA-1" source="01Let86RBlpvGtF0hyK3-11" target="mEXFG2sUmQ1XzkrOF1mA-15" edge="1"><mxGeometry relative="1" as="geometry"><mxPoint x="90" y="524.5833333333334" as="sourcePoint"/></mxGeometry></mxCell><mxCell id="01Let86RBlpvGtF0hyK3-36" value="3 - Login" style="edgeLabel;html=1;align=center;verticalAlign=middle;resizable=0;points=[];labelBorderColor=default;" parent="mEXFG2sUmQ1XzkrOF1mA-6" vertex="1" connectable="0"><mxGeometry x="-0.1669" y="1" relative="1" as="geometry"><mxPoint as="offset"/></mxGeometry></mxCell><mxCell id="mEXFG2sUmQ1XzkrOF1mA-8" style="edgeStyle=none;rounded=0;orthogonalLoop=1;jettySize=auto;html=1;exitX=1;exitY=0.686;exitDx=0;exitDy=0;exitPerimeter=0;entryX=0.001;entryY=0.441;entryDx=0;entryDy=0;entryPerimeter=0;" parent="mEXFG2sUmQ1XzkrOF1mA-1" source="01Let86RBlpvGtF0hyK3-11" target="mEXFG2sUmQ1XzkrOF1mA-28" edge="1"><mxGeometry relative="1" as="geometry"><mxPoint x="100" y="550" as="sourcePoint"/><mxPoint x="330" y="550" as="targetPoint"/><Array as="points"/></mxGeometry></mxCell><mxCell id="01Let86RBlpvGtF0hyK3-31" value="1 - access resource" style="edgeLabel;html=1;align=center;verticalAlign=middle;resizable=0;points=[];labelBorderColor=default;" parent="mEXFG2sUmQ1XzkrOF1mA-8" vertex="1" connectable="0"><mxGeometry x="-0.1673" relative="1" as="geometry"><mxPoint as="offset"/></mxGeometry></mxCell><mxCell id="mEXFG2sUmQ1XzkrOF1mA-11" style="edgeStyle=none;rounded=0;orthogonalLoop=1;jettySize=auto;html=1;exitX=0;exitY=0.75;exitDx=0;exitDy=0;entryX=0.996;entryY=0.142;entryDx=0;entryDy=0;entryPerimeter=0;" parent="mEXFG2sUmQ1XzkrOF1mA-1" source="mEXFG2sUmQ1XzkrOF1mA-15" target="01Let86RBlpvGtF0hyK3-11" edge="1"><mxGeometry relative="1" as="geometry"><mxPoint x="90" y="523.2713754646841" as="targetPoint"/></mxGeometry></mxCell><mxCell id="01Let86RBlpvGtF0hyK3-34" value="4 - Redirect to Gateway" style="edgeLabel;html=1;align=center;verticalAlign=middle;resizable=0;points=[];labelBorderColor=default;" parent="mEXFG2sUmQ1XzkrOF1mA-11" vertex="1" connectable="0"><mxGeometry x="-0.1015" relative="1" as="geometry"><mxPoint as="offset"/></mxGeometry></mxCell><mxCell id="01Let86RBlpvGtF0hyK3-37" style="edgeStyle=orthogonalEdgeStyle;rounded=0;orthogonalLoop=1;jettySize=auto;html=1;exitX=0.75;exitY=1;exitDx=0;exitDy=0;entryX=0.75;entryY=0;entryDx=0;entryDy=0;strokeColor=default;" parent="mEXFG2sUmQ1XzkrOF1mA-1" source="mEXFG2sUmQ1XzkrOF1mA-15" target="mEXFG2sUmQ1XzkrOF1mA-28" edge="1"><mxGeometry relative="1" as="geometry"/></mxCell><mxCell id="01Let86RBlpvGtF0hyK3-38" style="edgeStyle=orthogonalEdgeStyle;rounded=0;orthogonalLoop=1;jettySize=auto;html=1;exitX=0.25;exitY=1;exitDx=0;exitDy=0;entryX=0.25;entryY=0;entryDx=0;entryDy=0;strokeColor=default;" parent="mEXFG2sUmQ1XzkrOF1mA-1" source="mEXFG2sUmQ1XzkrOF1mA-15" target="mEXFG2sUmQ1XzkrOF1mA-28" edge="1"><mxGeometry relative="1" as="geometry"/></mxCell><mxCell id="01Let86RBlpvGtF0hyK3-39" value="Get certifications for&lt;br&gt;token validation" style="edgeLabel;html=1;align=center;verticalAlign=middle;resizable=0;points=[];labelBorderColor=default;" parent="01Let86RBlpvGtF0hyK3-38" vertex="1" connectable="0"><mxGeometry x="-0.208" y="1" relative="1" as="geometry"><mxPoint x="38" as="offset"/></mxGeometry></mxCell><mxCell id="mEXFG2sUmQ1XzkrOF1mA-15" value="Identity Provider&lt;br&gt;(Keycloak)" style="rounded=1;whiteSpace=wrap;html=1;fillColor=#DBEBFC;strokeColor=default;glass=0;shadow=1;" parent="mEXFG2sUmQ1XzkrOF1mA-1" vertex="1"><mxGeometry x="334" y="300" width="166" height="80" as="geometry"/></mxCell><mxCell id="mEXFG2sUmQ1XzkrOF1mA-16" value="" style="shape=image;verticalLabelPosition=bottom;labelBackgroundColor=default;verticalAlign=top;aspect=fixed;imageAspect=0;image=data:image/png,iVBORw0KGgoAAAANSUhEUgAAANoAAADoCAMAAAC+cQpPAAAABGdBTUEAALGPC/xhBQAAAAFzUkdCAK7OHOkAAAClUExURUxMTCNbggC55NTU1NHR0RpVf9nZ2QCLqzDH6t/g4uTk5cjIyCdehMPDw0dHSJKrv7TI0/j4+HJycvP2+FiCoOrt7zdliVV7mQlQe0lzks7Y4Ki7yW2Rqgy+5p2cnMDN2O/v79Pd5QC03oOcsACRsX2XrgCoz1u30JOTk4/D0UfG4x+KpH3M4TWVrQCZvCFwhKDR3F5eXjhfaH19faioqDWtykdwTGYfw+MAAAA3dFJOU7LX/ywv3yf/zCEcONQ9tm5MB44MphbFqe61MliS62RAEC37ff+D/qNtcbbag8f+2WChxYNYxwBAxXLQAAAQDUlEQVR42uydiVajShCGyUKuTUgAWRKWSBCjE42jo2Pe/9EuYeuGLpY0q3Osc8/MdRKVj+r6q7pJV3Pnf9a4H7QftB+0H7QftB+0zkwVEPI8hJCu/kNoqiUdNEPchsYbpubb6B9AUzxbmwRA/ORiYvgnz2+3hiML3xpNtzeT7QVJjKAivvALfis6rvpd0ZB/4SKgSAv4+K0pCd8RzXMmPAYjAUWCzpD074YWeIxPGfhLqIlGZBdv8ZiSN2z1O6GptpGCBVymc5BkCwm6qguea0uOZvA8htMs5bugKe4Gg03MA62FF93EdPzkgJTvgKZ4Tjre+IlWKBSeb05SuC5Crm00RZAMfMGOrFakhiTf8aasjhtNtc1kLAYecyvfLhHD0mk55FpFUywtuVKe39RSPuRjJ4uSoIwTTQ0FP75Ms3bweI6IR6WtjxFNt8kgs674zjTkgu/U2iu+2kJTXQ1ruSZfN7B0KRVLXvQ9dUxoquWk1zYxGcoLjwg5o6WQawNNQYTgmxLbXMxNQi74GRtZHweangh+oAPiVUGWzxtpyE0cSx0eTXXxWBS1RqXuIgg5PCqROiya6vkiMRabzr6sg0EkgoYh1whNRZKJo9/32qhmcMhNHFcfCk2XNTyA2loNEHCWCxJBk5BjR1Otg5gK/qbFMsIjspzZIOQ45iBLBZ9nFvzC+d7BIBKB0C9aMGwYq6qaIUeMStahzoSmJ4IvVs7JmNdWpA2RCJhqL44lyHwiyDpbbrP8dC4XJAKGFYar0VRkm0SQeefOTJWdNJxZEsG1aIKs8a0LfjeJgLsyyLDgi47d9ap9MCozieC6kLsGLSP4G6mPpy25RHDVzayPpqBU8IMg87tZFgUnFg4xUq4IOa7+WHRSwepI8MsSQfqrpdohVxMtK/g9BFlupcw3r08EXM0gywi+cu7bVPmAw7zmU8c6aIJNCP7BVc9DWHAROOT8OhfB1QiyngW/eEawuSoRcJVBhgU/CDJ0HtAUsvbSKq+lAm0gwS+e/Ka112USrrKjqe6h+dyi5UQQ3GucCBArmm6b23RBeNixSI5KCSeC0ttdgpYsVokdV/jXzxZxIihbqS5Gsxx+aMEvSQTJVNgoni8WoiWPJ4Kpkqyfx2ZJDSFOJj66Es2NlbHtJZ3WypP0GQF/QFehuSYfPbbVZPU8TkufoRSxwWhW5DNePHjn0ZoqmwmbUBvN00Kf8cXjeBx5INUDSa2JJkTayBuScB63JR9REW2lFpoixe+X9PPYDTlRgjLcWmiy+G3IwtgJqwoN1UBDsewfhPN3MCvSEl5SKtHi4QjdhnGaHOUA0a1Es8QoUzM9olDQvIEtmOZMihRdsaZXoKlOqPuizXQHF79uG9jnnK1cjgXdrkBz42kek4Ts77h1A+N+6Q3Cjd/opWhKdAcMl+l3rG65RvZnxRZuUpS45VI0K65cmEa9/otraJ9sqrwIRZ3X1BI0xb9EGqOGnFd/mqL9+as0cNvEKkETjMsMiD+wVQafXGO7nbH96ija/BI0ecseacpfrgW72zOx+ZFECIVokYjwDtMUbX7bBtrtkgnNNWghyaDp4RsmTDlNueNasV9MbgudImYjKYPmhk4zvSGEv2ECiITEVIvQpO1FRJxhhD9NAEzFqxcOuC0qQFOiybXEpCF/2kJjSwBqOLnZ2gVoqgGX0HWS5ifXmt3OWTUyG2wkGoqkHw0l/I0SgBSiaQVo7haqMvsT/tRtLEoSrQ0YKoxmh2iOMqCGxAmAoZS0omhCMJoUJWyW4nF99eXjqUw7CSCutTwY7RDWxv7VP1WAnPbxlhpEZr4mZq5bSQB6iLa1YLRwgs1frf0KVPF/vPyX2CPA9nZ/k9gXwMaQAJQLmrh1W0UDhf8tJfs9ffygwB+nu5TttZ0EsAmuXtzKMJrGhLaHisePlOzhcTp9yb/8MiXQILcxJIAO0Ja363KnTaf3H5TTMmzrNhJA+2hVTrsPKPJue7n82zRFe4bcdvUSUPtokIasCQ0JKe4zSmKGuKTbPgAlWSkDo6HP8uEYUUx/E+9av0b/Vq4k68/FsGhB8UivJ37knRbYG375bUqhBW6jVyUDJVFy1ieavrrL21//lXLadPqF3/A1Bdj8O/oHzRFl+97QFJ3+7UjCaCnZ9Ihff0//kVCS42JG2uURwIy2eX9oe4G25RM9HKfPC4L9GXDbk7WgbEg0RafAkHB8yAp/iPBOuhVy282xDKl/tH3IQv6HkA057Sk7ZE+A257larL+0CCnIQfQkJ2VRbN2ANvJqiTrDw07TYj/RML7K1k8xnbKK02J22ZjQMNOQ4nLkPVUw2nB226K3DYbA5qyx1CJ09DxldaQ6TudIN53gNveq8j6QtsTUMmYtCqFvyIBjAItHI6IVP1LDD0AwxFwGuk2gu04GwOashdykRb8Lb9WC39oQVA9TcEhOQY0PTcWA6dZTi0NCckWBUoyPFompcUSUlP4UZyZjwxu6wNtnxWQWEPSSHtMnfZsFZAtLFhJhka7OC0jIRen1RJ+ovollIQsJQdG2wt55Q80pI7wk4U97DZ52BpSyShjVIcIp8qKH+UmLTLotkG9hlMa6bRqDaHmY6crlWTeOdoeKPirhR+YZrpAAtgV1yTzztFopxUJ/7GALL1YOgHsprvjcGj7bBFyKbFgDbmxALDMxdJKEoTfc4GSzDtHA51WsWpQOMmUczOAy5e707yIrGO0PR1oBcJvYbAiYci7LSS9eZ/NYbJu0TLF4yVXX/zhQBW/XIGVc9uFLfoiUBJ6sa57NLJ4REI80kANiZffZuCCIrZMAkj+7xiRUGTdohH+SsTBg4T/JlnFKVgtTYxMADt8W2KUHFnnaJHLCNFzsIbg1BujzeflbPOvh8RIj+PPkWOy5XLZKVpU82cTcFoYPxIV0wk7rYQN9HgyIFNbJqZ3KyN0xZTISHBxucW3WfbuAzLyAIYpDNYx2nlPL857UQH58EgtvmXuPjQcnzJPhuMwfc9823K1WvWDpgg02yJM2eGIyrotO65oNBtK9ae8yzCb3nGhRQ/IxSVnxyOKYLNyITMvcRoxHOVZdiyuVilbx2ig26TX9OKwkrzT+2ayaEdQQ/JRtsJsHaOBbps/pRdHuq2cDV7cc2c5+egRTdEBt8lf98CUGdrwVO60VEOwLK5WKVzXaGcFcNviBCzj38hlbKDwnyjBT9FWPaBBCWAhQ6s4J3inWrHwP0casgTRVqvu0UAlqe+2iM3+DxL+WR6sZzTQbdZTfbcFcAXCT4H1jQa6DV4zLWIrEv7lwGhgAgDdBiWAMJrAOZ5bTtYLGpgAQLfBQ5Ks+PENOS6Xw6M1VRIbEP7d03IUaA0TAKgh9kjQGrkNFv7lSNCaKMnyCxT+0aCddeYEAAv/cjxosNugT4TkhiT4VOdpOSI00G3yTbWS1Bf+wdDYlKRg1aAOWX9o8FpCZQIAHxDYI0NTBHolZ3GElOR9CWgI8TjfWdE2KBr0seo7n1A9/Pgdvw58nnz62/9F2d2SfnbV32ePCz4M/0i7zSRepjXkseDD8NdYP1sYXii3ZbbNvOWddv8ywi0M4MYT0m27xGnky4DTmm9h62e70Pot57bXNb0x5YFw2ji3C51XwCav9e+M255zXvnIOu038APGsMkL3uX1llGSV2A/ERb++7exbs2DN1Q+EG77+qB3gRHF48O6ld4cpWgtboMNlOQ+sZ0J7N17SF+GNIRj6IOwKdsGe2BDgzcvv72ktoaEJn31rZ3uFWq0ebkAzWfcl8205bztniPl+7KlLeNu+jE0CkBR67qCRgFRDwSNobPPCNo7RN19DB1G80I0k+GWtduUg6m9jx22iTQVGE2POjaxtPYZvpVK1G+EjCaOEhmmJoODN8A5hy2ZtlIBmsLauuI8fNsiPTxCitT+bEcmO+zItGHqEDZwsyk3aiCrF6F5DTooDtsiLO5apBX20YqCjZeYfvigjd30DRVquZ51ErP8D9yOz476sVqFaHHnS8ZGrAM2UTxHfQQzfd1yaOom1EiNrRv8cK0vo1IkOx7zDUvtsLWbIZ+HSQCMDUuDrJXvNEWjCQbcQ7ifBMDaZjZ0mpjvIJvvoBsKCWu0DdQcWI37w+c6yHLU3GDC3iNymJbOiTzm27bl0WK38QcmJRmiEffZi08Iybf9pXqMo+jUDMMe+pCk2ssXUUv/LdUanm56L4fHevOMKtm7qXGrapOqqmk09RANyY31LcjsuOc97QmucOzymjd+MiUm4321Dlqc2wPJGT1bcp4LeLACB96K5Pg2a+yjMVoXgJuic3Bo8slh1WPWSSE5XwiWPPh0IcFPToSyx3vsCUrOAzXgk8oKzoRCBz49q3qkgzE5s7uIrPAkL5T4baLJY3QcSk465YvIis9fE6TwdLPL9159nHP3UZae61tybl7xqXl6egjYuM4DDE+XTE8E1IoP9OPKkoY2iqNSqZICn+M4OZSkp7ITKhXLF5NDRQ1nJOcdov/bu6JVV2EgmD74oARUjNaoIEH8Bf//027WtslaDsfEbPTA1Yc+th2dndnNCmNzDjUZf7vhbIfTKDE17643ubqw4dmPnXTJnTTYbc7t1bGHFQ6X3k3d3Y0nro1/QMldagSekeDMid3XZ0p/pUq7/A2XvOzvJPCLBR9iM130mjl+sc1v5+J8I9gE97pkZbtDW6XJ8nw4OWzUs8g8oS1l2strorOR4ENItrOQMQ+6X2IEZWeLLPGKWWde928TDX7KKKcVDHFR+RQC8/ulrEBGEL/32gq+5wDiCW2p0vOMwKYrQ4vv3S0w/x/skBE8I7JSTdIAk33qrVvsiGRte684rMwOCX4otKXMeol6rwhGUNsi8xL8YGhr72WNgDwIvRwHLPgHmx92uMY7xEpBWnIBgk8CDboEbARkh7E1KjJvwSeCpnuvHJXcRGIEZYEFfwwhAwv6I5WyRqBLLpyVCnVVss+CmMAC/0s1ClRygUaQodGFTyrQVVgwg2psBMMYUGS9KTIQ/GC7ZOHloXsvy6LmsBGYPoDDhohAcRlF7YMRmOvZH7nf6bS5PRRySwINTpqfyWtFoG+9PysrJLV8VjQ+QgRN916YlbMfKwthuSjIJiUqaOByE0ecci8W9XEyTruqpIO2GoFlpeuuuEZPm08pYadNCc3szd/jzuhWZMbzB9oRghYauC5i5az2uiqRWC5SD37U0JZSDR9W7lh4hWYyr+K8ChpMW9KC0/POj2oJ58Gm90iSIaUfZyNAe0uD2TrK4Xvmqrv82XxqDJqPMcaBbRRo8HLGA4F7NI2Y87yHK58G2XCzseW/vELwN6EtSwcKwU37leDr/W4DfCY8j7UciQZNl5xoMTgLxz6wlkc8X48H7dVnwLuVHOH7wIIH1so85tl6VGivjWprGWgeX6IfWOwFa2Ro64Q5y6RtX0UGH23bcpHHXxzHh7YOq12fD0LKRj61VBbqlGX/KdCuuW5oN7Qb2g3thvYfQvsHVuPUinG9EoEAAAAASUVORK5CYII=;" parent="mEXFG2sUmQ1XzkrOF1mA-1" vertex="1"><mxGeometry x="334" y="300" width="28.19" height="30" as="geometry"/></mxCell><mxCell id="mEXFG2sUmQ1XzkrOF1mA-21" style="edgeStyle=orthogonalEdgeStyle;rounded=0;orthogonalLoop=1;jettySize=auto;html=1;entryX=0;entryY=0.5;entryDx=0;entryDy=0;fontColor=default;startArrow=none;startFill=0;" parent="mEXFG2sUmQ1XzkrOF1mA-1" source="mEXFG2sUmQ1XzkrOF1mA-28" target="mEXFG2sUmQ1XzkrOF1mA-31" edge="1"><mxGeometry relative="1" as="geometry"><Array as="points"><mxPoint x="680" y="550"/><mxPoint x="680" y="490"/></Array></mxGeometry></mxCell><mxCell id="mEXFG2sUmQ1XzkrOF1mA-22" style="edgeStyle=orthogonalEdgeStyle;rounded=0;orthogonalLoop=1;jettySize=auto;html=1;entryX=0;entryY=0.5;entryDx=0;entryDy=0;fontColor=default;startArrow=none;startFill=0;" parent="mEXFG2sUmQ1XzkrOF1mA-1" source="mEXFG2sUmQ1XzkrOF1mA-28" target="mEXFG2sUmQ1XzkrOF1mA-40" edge="1"><mxGeometry relative="1" as="geometry"><Array as="points"><mxPoint x="680" y="550"/><mxPoint x="680" y="590"/></Array></mxGeometry></mxCell><mxCell id="mEXFG2sUmQ1XzkrOF1mA-23" style="edgeStyle=orthogonalEdgeStyle;rounded=0;orthogonalLoop=1;jettySize=auto;html=1;entryX=0;entryY=0.5;entryDx=0;entryDy=0;fontColor=default;startArrow=none;startFill=0;" parent="mEXFG2sUmQ1XzkrOF1mA-1" source="mEXFG2sUmQ1XzkrOF1mA-28" target="mEXFG2sUmQ1XzkrOF1mA-37" edge="1"><mxGeometry relative="1" as="geometry"><Array as="points"><mxPoint x="680" y="550"/><mxPoint x="680" y="640"/></Array></mxGeometry></mxCell><mxCell id="mEXFG2sUmQ1XzkrOF1mA-25" style="rounded=0;orthogonalLoop=1;jettySize=auto;html=1;exitX=0.006;exitY=0.859;exitDx=0;exitDy=0;fontColor=default;startArrow=none;startFill=0;exitPerimeter=0;" parent="mEXFG2sUmQ1XzkrOF1mA-1" source="mEXFG2sUmQ1XzkrOF1mA-28" edge="1"><mxGeometry relative="1" as="geometry"><mxPoint x="70" y="597" as="targetPoint"/></mxGeometry></mxCell><mxCell id="01Let86RBlpvGtF0hyK3-30" value="8 - response" style="edgeLabel;html=1;align=center;verticalAlign=middle;resizable=0;points=[];labelBorderColor=default;" parent="mEXFG2sUmQ1XzkrOF1mA-25" vertex="1" connectable="0"><mxGeometry x="0.1002" relative="1" as="geometry"><mxPoint x="-9" y="3" as="offset"/></mxGeometry></mxCell><mxCell id="mEXFG2sUmQ1XzkrOF1mA-27" style="edgeStyle=orthogonalEdgeStyle;rounded=0;orthogonalLoop=1;jettySize=auto;html=1;exitX=1;exitY=0.25;exitDx=0;exitDy=0;entryX=0;entryY=0.5;entryDx=0;entryDy=0;fontColor=default;startArrow=none;startFill=0;labelBackgroundColor=#FFF4E0;" parent="mEXFG2sUmQ1XzkrOF1mA-1" source="mEXFG2sUmQ1XzkrOF1mA-28" target="mEXFG2sUmQ1XzkrOF1mA-33" edge="1"><mxGeometry relative="1" as="geometry"><Array as="points"><mxPoint x="500" y="550"/><mxPoint x="680" y="550"/><mxPoint x="680" y="540"/></Array></mxGeometry></mxCell><mxCell id="01Let86RBlpvGtF0hyK3-45" value="&lt;span style=&quot;background-color: rgb(248, 249, 250);&quot;&gt;6 - Foward request&lt;/span&gt;" style="edgeLabel;html=1;align=center;verticalAlign=middle;resizable=0;points=[];labelBorderColor=default;" parent="mEXFG2sUmQ1XzkrOF1mA-27" vertex="1" connectable="0"><mxGeometry x="-0.3176" relative="1" as="geometry"><mxPoint as="offset"/></mxGeometry></mxCell><mxCell id="C-EEUxcw7qsWDY_6hw8K-0" style="edgeStyle=orthogonalEdgeStyle;rounded=0;orthogonalLoop=1;jettySize=auto;html=1;exitX=0;exitY=0.25;exitDx=0;exitDy=0;entryX=1;entryY=0.629;entryDx=0;entryDy=0;entryPerimeter=0;" parent="mEXFG2sUmQ1XzkrOF1mA-1" source="mEXFG2sUmQ1XzkrOF1mA-28" target="01Let86RBlpvGtF0hyK3-11" edge="1"><mxGeometry relative="1" as="geometry"><mxPoint x="100" y="530" as="targetPoint"/></mxGeometry></mxCell><mxCell id="01Let86RBlpvGtF0hyK3-32" value="Text" style="edgeLabel;html=1;align=center;verticalAlign=middle;resizable=0;points=[];" parent="C-EEUxcw7qsWDY_6hw8K-0" vertex="1" connectable="0"><mxGeometry x="-0.1107" y="1" relative="1" as="geometry"><mxPoint as="offset"/></mxGeometry></mxCell><mxCell id="01Let86RBlpvGtF0hyK3-33" value="2 - Redirect to Login" style="edgeLabel;html=1;align=center;verticalAlign=middle;resizable=0;points=[];labelBorderColor=default;" parent="C-EEUxcw7qsWDY_6hw8K-0" vertex="1" connectable="0"><mxGeometry x="0.1441" y="-1" relative="1" as="geometry"><mxPoint as="offset"/></mxGeometry></mxCell><mxCell id="mEXFG2sUmQ1XzkrOF1mA-28" value="Spring Cloud Gateway" style="rounded=1;whiteSpace=wrap;html=1;fillColor=#d5e8d4;strokeColor=#82b366;shadow=1;" parent="mEXFG2sUmQ1XzkrOF1mA-1" vertex="1"><mxGeometry x="334" y="502.5" width="166" height="110" as="geometry"/></mxCell><mxCell id="01Let86RBlpvGtF0hyK3-43" style="edgeStyle=orthogonalEdgeStyle;rounded=0;orthogonalLoop=1;jettySize=auto;html=1;entryX=1;entryY=0;entryDx=0;entryDy=0;strokeColor=default;" parent="mEXFG2sUmQ1XzkrOF1mA-1" source="mEXFG2sUmQ1XzkrOF1mA-29" target="mEXFG2sUmQ1XzkrOF1mA-28" edge="1"><mxGeometry relative="1" as="geometry"><Array as="points"><mxPoint x="760" y="440"/><mxPoint x="500" y="440"/></Array></mxGeometry></mxCell><mxCell id="01Let86RBlpvGtF0hyK3-44" value="&lt;span style=&quot;&quot;&gt;update services addresses&lt;/span&gt;" style="edgeLabel;html=1;align=center;verticalAlign=middle;resizable=0;points=[];labelBorderColor=default;labelBackgroundColor=default;spacingTop=0;spacing=0;" parent="01Let86RBlpvGtF0hyK3-43" vertex="1" connectable="0"><mxGeometry x="0.0926" y="-2" relative="1" as="geometry"><mxPoint as="offset"/></mxGeometry></mxCell><mxCell id="01Let86RBlpvGtF0hyK3-49" style="edgeStyle=orthogonalEdgeStyle;rounded=0;orthogonalLoop=1;jettySize=auto;html=1;exitX=1;exitY=0.25;exitDx=0;exitDy=0;entryX=0.5;entryY=0;entryDx=0;entryDy=0;strokeColor=default;" parent="mEXFG2sUmQ1XzkrOF1mA-1" source="mEXFG2sUmQ1XzkrOF1mA-29" target="01Let86RBlpvGtF0hyK3-47" edge="1"><mxGeometry relative="1" as="geometry"/></mxCell><mxCell id="mEXFG2sUmQ1XzkrOF1mA-29" value="Service Discovery &lt;br&gt;(Spring Netflix Eureka)" style="rounded=1;whiteSpace=wrap;html=1;fillColor=#dae8fc;strokeColor=#6c8ebf;shadow=1;" parent="mEXFG2sUmQ1XzkrOF1mA-1" vertex="1"><mxGeometry x="680" y="320" width="160" height="70" as="geometry"/></mxCell><mxCell id="mEXFG2sUmQ1XzkrOF1mA-30" style="edgeStyle=orthogonalEdgeStyle;rounded=0;orthogonalLoop=1;jettySize=auto;html=1;entryX=1;entryY=0.5;entryDx=0;entryDy=0;startArrow=none;startFill=0;exitX=1;exitY=0.5;exitDx=0;exitDy=0;" parent="mEXFG2sUmQ1XzkrOF1mA-1" source="mEXFG2sUmQ1XzkrOF1mA-31" target="mEXFG2sUmQ1XzkrOF1mA-29" edge="1"><mxGeometry relative="1" as="geometry"><Array as="points"><mxPoint x="900" y="490"/><mxPoint x="900" y="355"/></Array></mxGeometry></mxCell><mxCell id="mEXFG2sUmQ1XzkrOF1mA-31" value="Service" style="rounded=1;whiteSpace=wrap;html=1;fillColor=#f5f5f5;fontColor=#333333;strokeColor=#666666;glass=0;shadow=1;sketch=0;" parent="mEXFG2sUmQ1XzkrOF1mA-1" vertex="1"><mxGeometry x="740" y="477.5" width="100" height="25" as="geometry"/></mxCell><mxCell id="mEXFG2sUmQ1XzkrOF1mA-32" style="edgeStyle=orthogonalEdgeStyle;rounded=0;orthogonalLoop=1;jettySize=auto;html=1;startArrow=none;startFill=0;entryX=1;entryY=0.5;entryDx=0;entryDy=0;" parent="mEXFG2sUmQ1XzkrOF1mA-1" source="mEXFG2sUmQ1XzkrOF1mA-33" target="mEXFG2sUmQ1XzkrOF1mA-29" edge="1"><mxGeometry relative="1" as="geometry"><mxPoint x="850" y="360" as="targetPoint"/><Array as="points"><mxPoint x="900" y="540"/><mxPoint x="900" y="355"/></Array></mxGeometry></mxCell><mxCell id="mEXFG2sUmQ1XzkrOF1mA-33" value="Service" style="rounded=1;whiteSpace=wrap;html=1;fillColor=#f5f5f5;fontColor=#333333;strokeColor=#666666;glass=0;shadow=1;sketch=0;" parent="mEXFG2sUmQ1XzkrOF1mA-1" vertex="1"><mxGeometry x="740" y="527.5" width="100" height="25" as="geometry"/></mxCell><mxCell id="mEXFG2sUmQ1XzkrOF1mA-34" style="edgeStyle=orthogonalEdgeStyle;rounded=0;orthogonalLoop=1;jettySize=auto;html=1;entryX=1;entryY=0.5;entryDx=0;entryDy=0;startArrow=none;startFill=0;" parent="mEXFG2sUmQ1XzkrOF1mA-1" source="mEXFG2sUmQ1XzkrOF1mA-37" target="mEXFG2sUmQ1XzkrOF1mA-29" edge="1"><mxGeometry relative="1" as="geometry"><Array as="points"><mxPoint x="900" y="640"/><mxPoint x="900" y="355"/></Array></mxGeometry></mxCell><mxCell id="mEXFG2sUmQ1XzkrOF1mA-35" style="edgeStyle=orthogonalEdgeStyle;rounded=0;orthogonalLoop=1;jettySize=auto;html=1;entryX=1.006;entryY=0.671;entryDx=0;entryDy=0;entryPerimeter=0;fontColor=default;startArrow=none;startFill=0;" parent="mEXFG2sUmQ1XzkrOF1mA-1" source="mEXFG2sUmQ1XzkrOF1mA-37" target="mEXFG2sUmQ1XzkrOF1mA-28" edge="1"><mxGeometry relative="1" as="geometry"><Array as="points"><mxPoint x="680" y="640"/><mxPoint x="680" y="577"/></Array></mxGeometry></mxCell><mxCell id="01Let86RBlpvGtF0hyK3-46" value="&lt;span style=&quot;&quot;&gt;7 - response&lt;/span&gt;" style="edgeLabel;html=1;align=center;verticalAlign=middle;resizable=0;points=[];labelBackgroundColor=default;labelBorderColor=default;" parent="mEXFG2sUmQ1XzkrOF1mA-35" vertex="1" connectable="0"><mxGeometry x="0.5176" y="-1" relative="1" as="geometry"><mxPoint as="offset"/></mxGeometry></mxCell><mxCell id="mEXFG2sUmQ1XzkrOF1mA-37" value="Service" style="rounded=1;whiteSpace=wrap;html=1;fillColor=#f5f5f5;fontColor=#333333;strokeColor=#666666;glass=0;shadow=1;sketch=0;" parent="mEXFG2sUmQ1XzkrOF1mA-1" vertex="1"><mxGeometry x="740" y="627.5" width="100" height="25" as="geometry"/></mxCell><mxCell id="mEXFG2sUmQ1XzkrOF1mA-38" style="edgeStyle=orthogonalEdgeStyle;rounded=0;orthogonalLoop=1;jettySize=auto;html=1;entryX=1;entryY=0.5;entryDx=0;entryDy=0;startArrow=none;startFill=0;" parent="mEXFG2sUmQ1XzkrOF1mA-1" source="mEXFG2sUmQ1XzkrOF1mA-40" target="mEXFG2sUmQ1XzkrOF1mA-29" edge="1"><mxGeometry relative="1" as="geometry"><Array as="points"><mxPoint x="900" y="590"/><mxPoint x="900" y="355"/></Array></mxGeometry></mxCell><mxCell id="mEXFG2sUmQ1XzkrOF1mA-39" value="Self registration&lt;br&gt;Get Config" style="edgeLabel;html=1;align=center;verticalAlign=middle;resizable=0;points=[];fontColor=default;labelBackgroundColor=default;labelBorderColor=default;" parent="mEXFG2sUmQ1XzkrOF1mA-38" vertex="1" connectable="0"><mxGeometry x="0.3956" y="-4" relative="1" as="geometry"><mxPoint y="18" as="offset"/></mxGeometry></mxCell><mxCell id="mEXFG2sUmQ1XzkrOF1mA-40" value="Service" style="rounded=1;whiteSpace=wrap;html=1;fillColor=#f5f5f5;fontColor=#333333;strokeColor=#666666;glass=0;shadow=1;sketch=0;" parent="mEXFG2sUmQ1XzkrOF1mA-1" vertex="1"><mxGeometry x="740" y="577.5" width="100" height="25" as="geometry"/></mxCell><mxCell id="mEXFG2sUmQ1XzkrOF1mA-41" style="edgeStyle=orthogonalEdgeStyle;rounded=0;orthogonalLoop=1;jettySize=auto;html=1;exitX=0.5;exitY=1;exitDx=0;exitDy=0;entryX=0;entryY=0.5;entryDx=0;entryDy=0;fontColor=default;startArrow=none;startFill=0;" parent="mEXFG2sUmQ1XzkrOF1mA-1" source="mEXFG2sUmQ1XzkrOF1mA-43" target="mEXFG2sUmQ1XzkrOF1mA-51" edge="1"><mxGeometry relative="1" as="geometry"/></mxCell><mxCell id="mEXFG2sUmQ1XzkrOF1mA-42" value="Fire alerts" style="edgeLabel;html=1;align=center;verticalAlign=middle;resizable=0;points=[];fontColor=default;labelBorderColor=default;" parent="mEXFG2sUmQ1XzkrOF1mA-41" vertex="1" connectable="0"><mxGeometry x="-0.4171" y="1" relative="1" as="geometry"><mxPoint x="-1" y="1" as="offset"/></mxGeometry></mxCell><mxCell id="mEXFG2sUmQ1XzkrOF1mA-43" value="" style="rounded=1;whiteSpace=wrap;html=1;shadow=1;glass=0;labelBackgroundColor=#FFE6CC;labelBorderColor=default;sketch=0;strokeColor=#666666;fillColor=#f5f5f5;fontColor=#333333;" parent="mEXFG2sUmQ1XzkrOF1mA-1" vertex="1"><mxGeometry x="375" y="806.1700000000001" width="130" height="80" as="geometry"/></mxCell><mxCell id="mEXFG2sUmQ1XzkrOF1mA-44" value="" style="shape=image;verticalLabelPosition=bottom;labelBackgroundColor=default;verticalAlign=top;aspect=fixed;imageAspect=0;image=data:image/png,iVBORw0KGgoAAAANSUhEUgAABLAAAAJYCAMAAABFOO8oAAAABGdBTUEAALGPC/xhBQAAAAFzUkdCAK7OHOkAAAA2UExURdtNLedRKPfJvuyPevvi3P3w7fCgjed1WfS7rf75+ORoS+dhPvKunvjWzeuDaeRaNuhWLkdwTCsvVMUAAAASdFJOU/n/UKIqFovIZAfY53Y9te/5ANPu1sMAACAASURBVHja7N3rbtvIEkVhQbxTJAW//8ueyXHi+CaKdFjN27d+DTCBJNviQnX17urLCwDshItfAQDCAgDCAkBYAEBYAEBYAAgLAAgLAAgLAGEBAGEBAGEBICwAICwAICwAhAUAhAUAhAWAsACAsACAsAAQFgAQFgAQFgDCAgDCAgDCAkBYAEBYAAgLAAgLAAgLAGEBAGEBAGEBICwAICwAICwAhAUAhAUAhAWAsACAsACAsAAQFgAQFgAQFgDCAgDCAgDCAkBYAEBY2CFNkRd5nvf99dr3//1HXhSN3woICxuyVN7XXZkNVXu/fMO9rYas7Oo+5y4QFlY0Vd1lVXuZTFtlXc1bICykpbh22QxTffLW0F1zv0MQFhLUVX033C//zH3oerUWCAuRhVVZXRakKq+F3yoICwGV1bKyelsglleVFggLC5LX2f0Sxn/LQz0tEBaWsVXZXsJpOQuEhX+2VZfAVn8Wh73fNwgLO7DV7y68OguEhZ/QXIfLClS1HjwICzOLq/J2WYl7qcwCYWF6cVVXl1VRZoGwMI2iu11W516KlIKw8HwteL9sg8zKEISFMfrhsiGqq78ICAsPuFaXjUFZICx8X11tTleUBcLCDhaDH5QlAA/CQpyuqq5fNCI/UBYIC3/Is0X1kr+81EvvGAo5gLDwi2bRIMP9V8+pWfwM4r0TJQVh4aVeNCZa/T88dY0Y5qD7DsI6OwtvDVavS7eYBn4lSUpYODNFubBSXtdtRdSGYWldSFg4LdeFW03t79b4NUpYl5t1IWHhpOVVtnRj/M+SrYs8YWi/kLBwQurFZzLUf146NIOqyCIsnK+8Wl4qw9uLB5/xGRRZhIVzda+WH3l1/7uHFz0JXpFFWDgRTRZgke7v68cPALRdSFg4C31EBdS+U0iKewxlsggLpyBmD+/9Ki3FnJp75y9JWDg8RcwWXvv+PdJMqtF7JywcnTxouVa/f5MyibAsCwkLB6cOumGi/dAEr9MI63UyBAgLx6QJK33KD+/TJ5tGareQsHDY9lVcM/xjO6lJd1OYRhZhQfvqxyH3VxJeZ6GRRVg4In1g2VN/eq8unbAuNwPfCQuHI7QR/nldlie9Vqf21yUsHIvQpEH15e3apMaSISUsHImQw4OP9gjD/fjNkCybhYSF4/gqOHr+tYvUpxXWZWAswsJBKKI37b6xRZvYWJV4A2GBr2afI/zN1H3C7M5YICz89VV4sZN9864T9wm7qxoLhIW/5ohfnJXfve+ktlm35GCHlrEIC3z1sxxUPcl0i95gKPROWLAe/MEm4a93ft6cGpqFbzBUYxEW+OpHwnrJpuhl4bwWYxEW+OoJ36/E+imeW3oDU+edsLBbXyUamvCgdVQ9b9U3y+exJEgJC7ukSTXk5UFVUz+fURpwSJqxCAu79NVwWVdY4233/ze+rgGfxikdwsIOyVL56tL84BNkE4qwBXOsICxsmoQz9B59hP5p3yvmQ5o2Q1jYGQvWLsOTvcb7ww/RPquCgqbQuEyHsLAr+kULlnx0eXn7gTXzUGHdTU0mLOyIfMn57b+GMVxv84Y1vFI8azNF9dluDukQFnbDwoHRfPwlq8cfJHuSjQ8bTCryTljYC0sHGupxCWazV6ZvioubpDz4GhAW9sHSGngdH5PffhAjaMeb4oFbmbYKCQu7YPE0ZjVaLo2q4Vt33t6CW5F3j9kqJCzsgHzxC1Nv45Xb2LWA+fjAv2ugsDTeCQvbJ2JCw++KqGnnlzLD6GHp0Mt1nCokLGyeiKRAMVoQ5TPXp+9iEEWksJzRISxsnZCuUD5WL11GC5nmPtrzuocayx32hIWTNbA+CCufFXR/UPG9r8hiJ+DctbEICxsmaARWPtaSepJ46kdzpsFX2mtjERY2TNDzP9olf9Ipam4P9whfYnMN0liEhU0TtelWjK3hupkS/XAwOQ8W1sUxaMLCRilu8QOv6tkBzX605XULFpZDhYSFjRI1++D9OIavu35PG9vt2AoyfC6qbANhYZOExcaHMcPcZjbWPhVk0U0sR3QIC9tcELZJipR+9liE/FE/LEkT6/V6HhAWzrEg/NRW/7zrVz7/ZO3YtL/4u8hK3w3CwtboUy2qstkrrm6spVSGC8tOIWFhazSBt9IXY62yCWHyfMxv8WtC8VHCwtYILFQ+reKKmT33lw/Zha9+S3A/tfgoYWFTRNYpn1dxw+xRxNmY3+L3CZ0pJCxsiyFhfdLNHohQj/mtiBeWMBZhYUtETu78sorrZ7aw3td/XWLZ6rsTFjZHZMf9axChGfufT5pY19S21XcnLGyNLu1yqpq91hoexEZfaRMYyyw/wsJGKELndn4tisrZHihH9xQTtN0vN4egCQvbIDZ7WYwJZqIG6tE9xeaWwFjy7oSFTRAbvfzGMf3300NH6Met0SUQ1kW0gbCwBbLUzZ9idiKzGF9Bxq5pRRsIC2cpsL5d9LWzq5bb+L9XYoGwTkJsjKkae8tq8of8vbH4KFxQ3JRYIKwz0F9Srwj/dvmnn9EbnqS2lFggLAVWzIrwTS/TowLlk4OHTavEAmEpsJbfI3x5y6YP0z9m9yxaUCuxQFgKrJCAeD97Wvr1acy0UmKBsI5O8Bbh/ftFXzHnHOE7xV3XKxWVWISF9clWKUma2cfz8ue+yBIIS9ydsLAi0bOkHpVEv1IItzkDEJrRVEOKYnGsYgRhIQXBNzg8dFI7e+7w/fk45QTXURiWTFhYj+hTww9XUMPs8Qft85xpigM6N3OxCAtrEZ0F6EeENbNWGSZs0qUosczFIiysRXDa8vE2YDb7PuVsQss7RYnV+tYQFtbhulrDJ5uTwXqrnp4WZSkO6JjuTlhYh+jbGx6nEMph7mftpizHUkzyEx4lLKxCdKZhRErd7HhAPSkZn6LEkmwgLKxBt15/ev5eWz8pZ56iiyXZQFhYg+CW+7Ihy3xabVNqu4OwDkm/q2ZP8Szo/tdr2u4grOMRffbuuuinbZ4G3dP8VNruhIU1iG65L50Jv01biyUY2nCXdicspCY65b70YINq4ry/BHOxrr49hIXEDDvr9AwTl2IJkg2Dbw9h4WArwuVbbuUmfjBDZggLVoQTKqeJLznEG8sJaMKCFeETw3ZT/6E1IQjLinDduVH91LqmSZB2tyYkLBxpRbh8VqmYvBDLrAlBWFaEK+/836e+pjUhCOtYRC+bIrKV1dS2WILjObKjhIWEXHdYgWST+/gJrq13npCwkI5yhz2eOt/KT3dxQSFhISXRNUjEDcn95K25a7ywzJghLCQj3+PjXEzuGyUIu7u0nrCQjOjzdmsPYEnQxBJsICykYjj405zgdI5gA2EhEeFZ8LWD4AkmNtx9jQgLaeiP3pG+amKBsLSw9rJcSjHZXROLsJCG6MN261+EleD8s8nuhIU0RN+PvH4MPMGcZEkswsIxFkzrD19JsE1oxAxhIQn18WuPBBNmXEVBWEhCefSee5Jcg+OEhIVDNHg20I5OMBLrUvkmERbiaaKf5PU3CZMEsURHCQsJyE/Q3EkRxBIdJSwcofroTyIsXXfCQjzh4+02sN+fYsDMFpa+IKzDE55Rak4iLFl3wkI87Qma0U0KYcm6Exb2X3zcNvHFTIGrcwgL0fSnKDzuKYRlm5CwEE19CmHdUgjLNiFhIZrwUyvVaYRlm5CwEE12CmG1KYTlNCFhIZpBheUiCsLCXmg13eUaCAs7IT6hdDvFT+n4M2EhAQlO2W3gp0ySdDd0lLAQTR//GDenEVbv+0RYCCXBpKgN5CnzNMISxCIsxFKf4jG+phGWuwkJC7F0p3iMuzTCkhwlLMRSxj/G5Sl+SslRwkI8CS7A2kCeckgjLBOxCAu7f5Q3kKdsCQuEdQQSXOK+fjwpUarBTV+EhQPUHqtvEybaJHQ2h7AQzO0MvehEPfdtDFcFYR2Y+xkKj4qwQFjH+Iud4Ixdc08kLKefCQsHENbK0dH+kgrfJ8JCaPGR5DleOYlVEhYI6xCcYu5Km0xYLvoiLBxAWKuuCdOtCA3EIiwcQVirrglLwgJhHYP8BE9yS1ggLBXWTgavJFwREhZh4RDCuq3Xjh4IC4RFWDtpu+cJfWWXkLAQSpPqUV5tkEFJWCAswprLSjfKJDuWIzhKWEjwFzt4idWl9JWzhISFgwhrnalYxY2wQFjHId2KqV2jwZO0g2W8DGEhmH+sQO51OUx9iRU2CosZPm6z7vqP+jZxlLAQS7tAL724lsOER/2WPqVUTnZV/+vD9fvs04GwTsO/xirfLorJ6/LZYM/ko5InCKjK6r5ZagE5+D4RFjYtrPv7zlTTd6MLxMTRhmbUoPeqfOeqRcpN13wRFmL554tUv3Sm/lsgVv9j7862GueVAAoTz3PC+7/sSfjX6gMhQIayYznfvuqLDsSDNlWlkrSOuvtwXVx1S0C2shAShPViPDyNdjENascm7589oov9D3FVMde9GLxPhIUnRSHXUvwojAtVrQWTwm8JYT9VWfHbB3rCIiysm2benWPOq1oLzhR+iZfqKvvzNz9+3GrmfSIszMrjo/TvwtTntoe6XfrCTj0LV/3SibAICysnYPeV64bpKUHcL1fG+ihgddN//VVL3YnC+0RYmJWADbFuaJcsjrHWImFIO01Ddlv6mT9+J+wuQ1iYmYDFhOP6rup2dQSY21JCwsLc1I8P1E30S1aLhpogLNxFxJbnG6jdtD1xExZeIrLYwkiN2OhPozthIYWRusYq1m2UEfuCNd4mwsLMZBHCSn6bgoq2CQspEHMMVuJjNSTA0oZFWJidmHNzurRbkEICLDu6Exbmpw4xVtL1m5goU1cDYWF+8pDR2pcvfwtMEhIW5ifo5L6Eh+sYcwdsLkNYSGa4plt3b7s3Ew+EhUQog4SVbN096nDo0rtEWJifqMORE02JiqCzZB1KSFhYgilIWIn2IUVdvjO+CAtLEHace51iUti8vam5ExbSIarqnuSYLfdvb2ruhIWExmyYsBIctGH5sO1GCQvLUIcN2i61mbIh7NL1uRMWlqGKC7ES2xkrLhvW505YWIgmbtimtaaw7OIu3BFfhIVlKAKFtU+pt2EKvHBto4SFhegDB25CDe9D5GV7iwgLC5EHjtx0ylhj5FUrYREWliKLHLqpdGMVkXGlEhZhYTHKUGGl0Y0VWXDXhUVYWJI6dPD2CRTe2yn0ki0kJCwsxxAbYiWwqDB/e8U0GIS1CYrY4bv+wnsVfMEOzCEsLEgfPIBX3j8aHFFqaiAspJwhrXzWrIm+Wk0NhIUlyaKH8L5eMdEXa2sZwkLaOeFL0WtqICyknRO+EjJCwsKyjLQjIyQspEIrJ7w/I/T6EBbkhDJCEBbkhDJCEJac8EXRNUpYWJ6BeqwjJCykQkE992FzZMLCE5i4x84yhIVUyMhnc6smQVibRdndshzCQjpU9KPkTlhIhciye9+tmH3ghdq6j7DwJALL7qvewS8wlMy9NYSFJzESli53wkIy1IR1G7V3hrDwNJrXqEXHCUtPA2HhebSdCOumZYR6GggLT2QgrM1cJQhr+yHWnrA0jRIWUqFSw9I0SlhIhXIvwro6wLJPA2FhG4P5FYQlwCIsPJugJdAvICwVLMLC8xnUsARYhIXXCrG2H2EJsAgLmwmxti8sPViEhc2EWJsXliZ3wsI6aNSwrCIkLCRDLcKyTQNhIRVGwrLRKGEhGXLCstEoYSEVHl+gs+0a1t6iHMLCihhEWHpGCQup8PBOfpsWlpYGwsK6GAnLyROEhWTI1bBU3AkLqVD2IizbYBEWUiEjLD3uhIVkmAjrEpM3g7CwxqRwr4alBYuwkAqPLIKu8xXTbTV0BGFJCmGGkLCQQlLYM9RZy6iEkLCwWkaK0jJKWEiGiqM+U3kjCAsrpq1Z6tNMgjWEhIVVU+x56l9Hg137CAsrpyEqHQ2EhWTImUoBi7CgjKWABcJCNLqx7NFAWEgH3Vg6sAgL6TDwlYI7YSEZwgvveTYr8d/XO0BYSIY2ehn0zLvPRDfoTwruhIWEKLtYA8zcIhAsLEueCQuJGatPKcWKTQlNEBIWUmMMXaMz8z7DoRmsFTmEhfTIQoOWeb9raDjo0AnCQoKEriqcNcsqNTSAsF6eyHasWfsws3TmM0FYmIsqEQ9UfAXCQqAJ6jm/ZlwPhh0aCAuMdWTGqbdCgzsICyfyBGrZA1+BsBBqrBlzwqiMMLcgh7AgK5x5njBTvwJhIdhYszW7T3wFwsI/hlWX3Qv9DCAshBtrphBr4isQFj4Ts0pnlkV62drnMEFYWJqQvRu6GWbh2ogpwr31zoSFTVF066xrR8wI9PaTISxsjLJeY1IYkRDW9usjLGyOiH3eo/fyjNgX1f7thIVNGiug6T32OOWIQ6orviIsbJNmXfFMRMxnepCwsFnGx0vvgQuMH4/4Ouc7ExY2TEDpPWqqMCBDnZTbCQubpn28jyBmU4QAXylfERY2T7ZfQx3r8VBPtyhh4RUoHnZF93Cn5uN9rLVuUcLCa6SFw7Mn55q9dBCEhSt5fLYwf6DeXeZmB0FYuCHIetgZ/d1BVtY/05YgLCTI49q4r4r0eAWtV20nLLwcZUAf1M3KKh7/pcIrwsJrBlkBfe83KavQ2w7Cwr0EdJG+1c2V83VtFrB00OQgYeGFGQP2S9hX458aabM8YM9TvVeEhRcPspqALane9nnzi0uKZorYobm3MwNhuQUvTxl0bmE/DVlxFmq1RTZMfczPrxTbQVg4RkBBR5l+aKue8rw6kudT3cf93Ek2CMLCf2Td26qpzQ2CsJCGsjrFKxAWvtA23Vp1pZUBhIUklEVXICwkoiy6AmHhF7J6RaV2ugJh4XfGaR26mmzKAMLC3xQRy2geXe6j7wqEhetom6dmht2gqx2EhVvCrGr/rOBKlygIC0mEWQrtICzcSbmss7pB5QqEhRScxVYgLARQDLM7q2YrEBbC4qysmq0Jvs8bk4IgLEQHWlP4xOF+ElqBsDCXtJo8LNLqp2E0JQjCwrzpYVPV+0ddVWXSQBAWlrLW2OR3aas7bf3u/oGwsHyGOGZDNV2VJPZ1XjVjIQcEYeG5tOU4Zs1Q5dNU13XX9Ue67vjPacqrocnGoiQqEBZSMZpbAMICQFgAQFgAQFgACAsACAsACAsAYQEAYQEAYQEgLAAgLAAgLACEBQCEBQCEBYCwAICwAICwABAWABAWABAWAMICAMICQFgAQFjAAjRnlG4JYQFrpd99JXNLCAsgLBAWQFggLBAWCAsgLBDWD7RlMWZHmqYZTjRNlo1F68mBsAhrLZYqxmaoprrrD7vLHLqpakYT2CAswnoiRTbkdb+7lq7KSIuwCIuwnkO5u5164CzCIizCSkRYJ2c1ilqERViElYiwdrt9JcwiLMIirESEdVKWKIuwCIuwEhHWbtc3nidhERZhJSKs3W6SFxIWYRFWKsLa9aNHSlhuCWElIqzdQVpIWG4JYaUirN1u8FAJC4SVirAYi7BAWM8T1r6b8upj0XN2WgbdDFXeHRgLhEVYaxPWYfhhgXPR5D+uODyovBMWCOsJwup/+89jtf9hrlB3Q+KUzXT9Xx3CIqwkhPX+3jbd5bWFHmzCFEN9k3YIi7ASEdZJWRczQ80NqTJW3a3aISzCSkZYx49Mlwr1ksIEabNPhUnCwiaF9f7eXDBW5dEmRpnl+/u0Q1iElZSw3rPvXQ4HIVZiVHdrh7AIKy1hvY8HIRZhERZhJSKsC1nh3u5YaTEQFl5GWO+5iUIRFmERVirCKr91N0weLmGBsGalvVdYF5JCZXfCAmGtM8J6f//W8+69TQo1LLxShPU9xMo9XREWCGulEVZ7vhK683QJC4S10gjr+0ShIhZhgbBWGmF9zwlti5USalh4rQir0IklwiIswkolwnrfW51DWIRFWIlEWO+1aULCIizCSiXCymOE1ZbFWBQ3V+yPnzqdkTGOxezF/rY4/aYsu/E3fXysOX7Fsp3hK31c/vHq7/3Z89ewjk8oa5omm+MBtafLb04//f478LQooSxOb3xREtayEVb1+OKcsvl3Is/1ewC245DXn/PRQzdV2TyPvx2r6dMA7aehuOpz4/D5Y4e6ysKGVdF8+UrH71Q1xe0/ZtYIq83Ob1vcjMzpZ385xunQ5UOWhLXaosnrz/elPn7zkrCeJKzvO7t//A38x/moapv69q6Isap/OLyny29+a4vhM833oZFfON+sG/76puOlE4YOU0DqVP50eFF/xcWPX672fOPYfLhIdruwLt+2vioibD3Ul4+cO9TN9SO/bc64QRrZ2UevvqrzHRP//0JVK9btloQ1/Cms7pdZxHY4e/GLa2zV/3qm6z6/7Q959vXTZy/Y8NMvO+S/veDZT0bddc1jL+aY/3Y+5L4qb/sDcxX5rcIqfzpb6fiCPKjss79w3x/LtfIoH+jIqe+bavrj2eUjYV3zBvyPvbNdc1XVAfAjHyIqSu//Zs/Mmr3OmkqQJALFFufvtIWYvCQhgazA2hLAerpwVczkulNhEAa2UKDwDKzhmaf7mW2ssV9xp4OcxQVrnVNzT1hsDWDp8fTOXXPBLk9I+E8FXXVgoa4Rdlty6FdXs+5hZchhmdirtYDxqKv2+ncOq2UC69fnXOrXDDhcLZMAYKYscNP3o8UvMAWANe2l5n++gBC/v7KHldaKH8UVHVhVgSUTL/ffq9WQG3KqaW4mGBn6zbvYCFaf/JEd+BG3pAc3c1I5zmDnPrvXeVgK5QKznCyxYAe8T3WBlfawph079rUDqySwZHKtiQBLgdqnLi9Rv5w9zQHW3xHoDfUjgWVMHmVRZIu1qyfMfXwVsHDTHzy9I8KS3r+0NYE1Zhy768AqCaz0WrOBug/z6sTDEjvZznaUk6VAYGmsNzfxNNMTXX9liLS2LwHWeB2pOdzr73BdtwMsTXh5y6MDqySw9mQ9DgisCK+iHpZlGdowWjKwHI1Xz+SxeM30pJXUkXE96/o5LJITRCOW8NRBL6qVkJDCqyZ7295ol1Cl3/oGJOWjPNAZXjkxLNSA5WnCcr4rDq+ePpfOgHj61GFiFfWwNtK3UpI1HM4miFXNwyJpRZPHnbyRhzWliSMBYEU1G9YxNQ/cJxkZQMCiqdjy9ycszWBnW9JcI1MvCSzqd+OjYp5/PesmgEXSiiZPwHzjA/zm1L8YEHPnHpY62x3y+7LztTZU3OkB3V+G8uK36xzArQr/lXXLdZ2maX1u0knksQoCi4xVtI8JD3rexkl8dxOuMlL5bmwDwIqJZZ/NvPg7RIRvBKzgiGSZAtY30XScMJAKq8i/+20UP02vVrtVLkxi2SBQmaiW55h+kGDzahndb2PU0+Zx+ZByOSzH8AH5DqZ57ueEO4FOl4RKwFJQh5L8fzOPdpOc0YWIHVgXgTUld/mPy+N87sAAcNEwibagYTTW+GASodcRWEcVm+XklNYqDsU/hucCnq4/HxNjxAHABYVAutkAfWcKKi8PbXDdfz/Hj+zwMyKAZQ9h+76tX2L7Pqth3Dy6KAQUAPDyAbiARfDi5cAKswthOfvXetNyRPhGwDIID2k8fvnZUhx+Hs5/w/0nkZ6QROjlD7r3NCn/3OAVaa8QAVefmaLXmWuwoTu6RD4FVI4tmhbRXzitYQSl9iMEG1tLMKdzhC5KrC4WqNQ7+YE6wBLInWv10yE7dmCVBJbDpAyfgbWHqZ6v0O57Lf56BNAxD+W/491ocLnn+X7UMxHkk9cYNnmA9ebmYPvAAMFS5yXpYoX5/5ONz3AzUdYClnyKVzWwljA38e1MqFURBAHUAdaMrmb5cxCA6sAqCSyD0b9DBuJYCbGdH6sB5S9O+wShCgCv8Lb3O0wCO0jAkjD3m90eBCRYmpF0sUYSfIO2oPOZZwTWKeR/xgY5mT7pYklSxW24P+NeCixBGb0eG70l712AtaJy5of/ei4u3BJLivPk+nWol+80WbRQi7iALPj2yxpjjYJQ1UNKQx2RcMEGhakNrHgPJ1j1kSrGOlp8qqdJoW/KrAIsSZuu7cAqCKwwuWAQWPudk0n2wAIJrCXpNUNVEGehx0yuOZ54dRSQxTpaPJT0yALCu7rAOtuThQrhE0GxXaj9AYEAxAuBZT239K4DKzuwAJgIhHVvlDL0kVW7AxFLkYElSeNCVaqG+ZhEkmmlV+mkDygrCazzOl2I2IKkABNdAOaFwBKcXdEOrCLAApQPXj+i7ki6oT704XAdeEAguREycWmS2DlZ9o6c0H5a2+gJ8Pn7bAQ7zA2sLfFKgRIVSZHXmFEANYA1UjN2HVilgIVfLCd+nffG7T+bKLGXYRRvxUozUkAdSTHhSCtSgI1c1gPWnD4wNpSYxY/PWI4AttcBa2MsOB1YJYAFbXkZrI5iX57jfCiGOkP4X0TkGWnDSQHVLoTs2tHBQuKEsKznBRYmXN8oMeERPSqnAGoAa+H1YnVg5QYWtBMXcy4Er8UPcn3wt4ABsYejsCeZbFDM0vWVsE848mh95NxUC1iYDI2ieNqS12enUKtIBWDZOzQKfgCw4LM/1wcBWJhclON1csSCQom1WlyTm4k3FVJocnJmoeb5F2EgVQlYOKBueFkfBIBfrlACqAAszUtodGBlBVbkJoBofsHxKpwBkBjKrAy6RlFywAOm5jbOrBzSGcPHEw6LxKzA8jigigFN7JXrnwjML1QAlhp6SPhqYMXuWYonhB2rJQXyRUinCgu0CyhZ4NGexblwXCvSKghdGwtWbjmBheSJxdeiz9wttuNvTI0AqyfdKwNLRS+xPAnxHCM3DWZ7DG1aMzZbJAcWGQ25bP1H2h6pxYo/e4ld2HMCS/EGF1cGx3dPJELELwgJd9uBVQBYgxmFOi5nZydOnbdIAelp1IszFzJYcMymkBa0oPRqZNZcbEjMjXz3UmBXoIzA2piDi5NIsnlyfPf7i4BlL8UIHVhYYP28tNhifAAADRxJREFU5Nlschvl17OZ5fxM8dOWTsXLYKnh4vIUHC4YA4rkBTdi4Gn80XPcUUjwlNlrbJYoI7AEd3BR1C3MlnxAedRrgBVIyfTWnGLAIjzn7chqYEUPKzNHcgIiczUNfq7wSKYIXNJZXUl/7EiY5AMWAagzzsVUVxLWiMqOFxSO3nWf8M2AlWhHVpyiASAiJF8n4pD7UZLZ/I0+FyBhKAoDbFo8bJiHCfCBRUixBeehoVYskVsANYC1kmKRDqwqwEq1MCtWRBgMinHBJDJskcxsjGFuWu+oUW3sPUJk0jkvsAgO0IhbRww/JEYJoAaw1PAWxHonYO2MmnCMZrhhuBISUJJTkhl7bszPGcxmwmEzkXiy24r0/fIBixCwTygX8yAA4hbxmF7tqpyHBeyqj7YD63XAMumVX7FyPWuGDRaBS+9KZp6B+7kNAyx3qYJnQko8H7AIyRmHApa7tF4d1ce+CFgTz2Y6sMoAa8YouGKlsDZ0PTThl/esVjuWBN10acdBIHc52gCWQwjgYk2LehGw4HOIpO7AegGwlomHDckxiIUzswVFvdrAQn1uvORfCqQt5gMWASgKRYoLVVgAsNyLgBVp/fej7sCqDCwzWaZ+YrwFnSGFBbhpriSwsDaLOkb0YBKrID0jckovAZZGRfvHfb6V9CAmVulewsg5RF6qDqx6wNoJ4lZZTiFhncwxokyjtoc1Yaa2Dzmf6X7AKi6ASsDS0f4QI2wHVg1gLSNJ0oqTPhcX+3IiKc81p9WuzCFigGWH9wXWA6MQOq8A1pcBCzqv+58l6Q6sssCa5Up1ZRVHMdbLZaNgene8i4elittr48BSbwOs2JG7/23/ug6sy8BapQn8WD9vcnWcBYEFLGRxYZZ8f+0cFgZY4tOBJd4HWMB91E8+wGo7sK4B61uAVivl3J8MrnNKXXBdFaeTUA7pQhrGzLa7eFjTpwNreiNgPcSe2G63HVhXgZXvFloWsDZUBVXy8SWBVTKHtX46sNZ3AhZ4U+aTlzV1YF0G1qMlYC2830Zd3N6ih5XZXqdPB9b0WmA99JaqEnIdWHcGlskDrKUmsHJ6WOOnA2t8L2B9vfVUnUbDPYYdWGSNmG8ArLVdYLlPB5Z7ObAid03dosewA6uWh7XfNYcl89qruh2wygugNrC+LCERF+6uA+vDgeVrljU07GHZ2wGrvADqA+vxcOZ0lH7qwOIoUINJ9z3PzG5Th3W8bV1cex53B9ai3KW/RxvA+kKW9PcjVgcWGVi8MenbVrofv7vQm7/NLuGef+6vAdbX764nNQ5tHkjagUW2pEyV7lmBVbMOS384sIa2gUU8S0TEk1m76sC6I7DGLL2EuBbqO9RhfRywpqI6CQJL8IFFPktEjzE3q8WbwDqwyN4L7wpKXAv1HXoJ3acBSzCU5nXAYpzWZqeZ1pXQgdUysMRwdQ3DB5YtelguB6/vDCxVnNh64E/B5NDOhwCRtesOrPsBS6Halql65bNabckclq6z7N7nPKz8ArAZgSWZY1ih8vexA+t+wAqWP04hlvWoevkmTxz1eSzitsA6CmAsr/YrH1js0UE9hrvtwLodsJD3R5w/yLsNW8xhHe9zNx8HrPIC8HzqzEO29WTFd352YDUMLJnhLY64NbRJD0tW2SZsGFiHofn8bsfOp86SMYoLT/7aOrDuB6x1uL6IGdwvt5jDCr5cfBqwEBd1XXwWNiesHzJG7IGqe9uBdTtgBeHcQh5VkAfb81ptUQ/LVcnENgys8gLg96uqISewkLfRdWA1DaxgEaP7GCvS1W4yh3Wc//JpwDoKYM4+ef7l4seiG38NWMo3XorVgcVRJ7JSzMg0WJMeVrD+uw8DVqAA2QXA76YY83pYwWsYO7DuB6wgF+mJeWeH/YImc1jBt8tPA9Za2opXdl3DnNfDCjy2rQPrfsDS/mLPwobdfGnTw1IXec0C1tQQsIoLQHB358I7Ey8C66jrHVg3BFYIHFraXaHLW5rMYYXLeIk4YWwYWMUFoLgVmzI3sCpV3XVgFQXWdK0tVKI3i9v0sIKvL9FjNrIlXAFYa2EBcPd1lM8OLNOBdX9g2eVKW6jDK1WbOazce+eZE2UVgKV9YQEYnoSB4+avjmzrwLo/sIBjvfFBgQ2U0avcwCrsYdUozzkCy7QErOICkKx9HTcUB1bPYd0SWGHa/cLG84lONZrDCpPCS/agULBrJ2sAyxUWACvpYKEzYa4SZq7S6t6BVRZYgO+N1VhgFVTFgZXbwwoLybKfRunY76YGsMKYLa8ANOcsKvD+sYvAsnsvHH0HYOngtCCP0wy9UJz2RnNYgIuVfelV7H2NKsACBJBVNw096bDC5xrnXTdEB9YtgQVpByaNFSawTpfOZj0swKByE8tzXYUqwCotAEC/HC2GzgOsscrRHB1YxYFlF86R13ajHTHUag4LjGy3vC9n5r6cOsCCBKALqubgz5MOwpcA1lHN50cH1j2BBS5oKWJpQ1Sodj0sKGEyZ72OQXKzMXWAVVoAkKpYajx4hhjNUaSxA+uuwAJTnOd5DAXs4pxf9tZsDgtMxg07ISWrqXNAz74SsKA9Ob+iFdRq2qv4Q6zYZ7SM8Sq+u2q2tLY73/jpMh1YBG8Z2kQ2J98w/a+9s11yVAUCaAUQRUXx/V/2qjV3NmZAGvNlZs7Z2v2xVbGkbY9NC0nsa/3V9AxhvaDCivdMallGV02drZd+zrk6cyZhRVc9XVrhknTbZVpeLpYtbTy86nrItUxYS+7rTEDNeDn5jBBhFeBjXYPkM9ZEf1LXTi8R1hMqrNiCsvV+yZ6jUzpIfuH95x3b+TMJKxGAtsklqWlqwcKy+CTP/iyyfL1dXhMkXw35dfhhb4BqvNwRSoR1NmEl3stEE7ay4cgimTNXWNE3COstY9NhdL4fgjDW0Tn35lPOvFVYUyIAo/bJPK2UbWXJ5uI/wBy2Bzd9e3vG28+FxOHb3NWKTDNbh7A+WVipTmdnfaSkuJR1Uc/ew1pSuk02TnRze886oxpdjwUSTTwPdK9mmt7qOkTz4XXCiixS+V6VZ5Vx2/H7xg5dwXk1qYOPg22U9171uo2srbj5v3zqt1b9iKOPpayaENZHCysxKVjv2F6ZqqqMUXZIvHAWLI4+dYU1x6+77NDVg9bazn+Huh3Ll2C73aOnlwW9TljRNw/bCAx6GObhd6F8l19ah2mWlKolt8zNIy3UupkTdh2Tmavg7gmL5hHW+4WVNpYkuco3W5yqh5U11j75JlafP4h5r7Bcusjc+qDo/d13dENpTNelWoNkqWfivMcxc3CE9dnCktxUCSRbOU5eYe3NCvNkO+jVeHZhxZfWSTGllyP7DPCRpKlEmS+Qrp8Q1ucLa2rCsWwVOeTcPaw7b9j+AU8D/25hRX/RXUhTfP0lvhIJ68DMQE0IK084vbAmf2Ra1Mku/+krrHlWdHhWnG+J5Ls46u3CuqPIzm8+dCU2/H8NshXkdHFhHJoJYf0OYR15xkp3nZ29h7WixmP3q+B7ys14oEh5tbCOPbIuoq/4KjDW976gPp/TxTPCcM76CmEdO07TPaO8+owKa9rdGHJfEyu9pXdvYC8XVmqV3f1NrNlY0tj+a4k2+SiXVsWP3SWKsN4trKJbdrTyty3n72F91RhHOlmtpIubMdY5hDVn0pEADKJ06yUyHK8GqfLCMmWPGOsmhPWrhCVPgWBLXg5/RoW1frLwjg2DcCz78y17EmHN51nYGOh6aSL4fMNp02JQkjrWaHFRWJ+2vEJY91waSQq0fdlalo/oYZXfsWFo5HHYrV71aYRV5IBOl6wRcP1+K+9mx7mXDaGyokZGraYJYf1GYa3fQbCfpcXX/nMqrHX8vaTMarUqvIo7E87Ym8Z23PIqYS0JMASBrfviFU07cgk/3GfEQ1A681Jj1H6aEFZJO/uGxx7d+WVH1tXfu31YNTqaWqG2Ry69V1ukdUll/OaP/HPbD1aPGv+XsgerDi2X9tE7axz6R89WqhuKE6JStk5Ka9kAczDHnIq5MNSRUnXN6jWd13/2A+7TpxvbYoiw3swzrohp7NUu39AOuvfuD8W0Ur3ebkbr2lrbxt+ztcPNIvh3zCWozWlbK84vGdD9S4FlV+U8/jtPeA7BdVgX+7vdtHayDHdzwg7ttbbGduhV9RHJ9teE9cz7di5XTFX92fG7tVx7aAjmwnEuGuZDuk8JQfXoBHBLCObC6fEhcGaN7hzeT3q6IiwAQFgAAAgLABAWAADCAgBAWACAsAAAEBYAAMICAIQFAICwAAAQFgAgLAAAhAUAgLAAAGEBACAsAACEBQAICwAAYQEAICwAQFgAAAgLAABhAQDCAgBAWAAACAsAEBYAAMICAIRFCAAAYQEAICwAQFgAAAgLAABhAQDCAgBAWAAACAsAEBYAAMICAEBYAICwAAAQFgAAwgIAhAUAgLAAABAWACAsAACEBQCAsAAAYQEAICwAgFv+A11HzZMJR7z2AAAAAElFTkSuQmCC;" parent="mEXFG2sUmQ1XzkrOF1mA-1" vertex="1"><mxGeometry x="390" y="821.1700000000001" width="100" height="50" as="geometry"/></mxCell><mxCell id="mEXFG2sUmQ1XzkrOF1mA-45" style="edgeStyle=orthogonalEdgeStyle;rounded=0;orthogonalLoop=1;jettySize=auto;html=1;entryX=1;entryY=0.25;entryDx=0;entryDy=0;fontColor=default;startArrow=none;startFill=0;exitX=0;exitY=0.5;exitDx=0;exitDy=0;" parent="mEXFG2sUmQ1XzkrOF1mA-1" source="mEXFG2sUmQ1XzkrOF1mA-47" target="mEXFG2sUmQ1XzkrOF1mA-43" edge="1"><mxGeometry relative="1" as="geometry"><mxPoint x="645" y="796.1700000000001" as="sourcePoint"/></mxGeometry></mxCell><mxCell id="01Let86RBlpvGtF0hyK3-55" value="Query metrics" style="edgeLabel;html=1;align=center;verticalAlign=middle;resizable=0;points=[];labelBorderColor=default;" parent="mEXFG2sUmQ1XzkrOF1mA-45" vertex="1" connectable="0"><mxGeometry x="0.287" y="3" relative="1" as="geometry"><mxPoint x="13" y="-3" as="offset"/></mxGeometry></mxCell><mxCell id="C-EEUxcw7qsWDY_6hw8K-18" style="edgeStyle=orthogonalEdgeStyle;rounded=0;orthogonalLoop=1;jettySize=auto;html=1;entryX=0;entryY=0.5;entryDx=0;entryDy=0;fontSize=10;startArrow=none;startFill=0;endArrow=classic;endFill=1;" parent="mEXFG2sUmQ1XzkrOF1mA-1" source="mEXFG2sUmQ1XzkrOF1mA-47" target="C-EEUxcw7qsWDY_6hw8K-17" edge="1"><mxGeometry relative="1" as="geometry"/></mxCell><mxCell id="C-EEUxcw7qsWDY_6hw8K-19" value="Query logs" style="edgeLabel;html=1;align=center;verticalAlign=middle;resizable=0;points=[];fontSize=10;" parent="C-EEUxcw7qsWDY_6hw8K-18" vertex="1" connectable="0"><mxGeometry x="-0.0189" y="-1" relative="1" as="geometry"><mxPoint as="offset"/></mxGeometry></mxCell><mxCell id="C-EEUxcw7qsWDY_6hw8K-20" style="edgeStyle=orthogonalEdgeStyle;rounded=0;orthogonalLoop=1;jettySize=auto;html=1;exitX=0.5;exitY=1;exitDx=0;exitDy=0;entryX=0.5;entryY=1;entryDx=0;entryDy=0;fontSize=10;startArrow=none;startFill=0;endArrow=classic;endFill=1;" parent="mEXFG2sUmQ1XzkrOF1mA-1" source="mEXFG2sUmQ1XzkrOF1mA-47" target="C-EEUxcw7qsWDY_6hw8K-11" edge="1"><mxGeometry relative="1" as="geometry"/></mxCell><mxCell id="C-EEUxcw7qsWDY_6hw8K-21" value="Query request track" style="edgeLabel;html=1;align=center;verticalAlign=middle;resizable=0;points=[];fontSize=10;" parent="C-EEUxcw7qsWDY_6hw8K-20" vertex="1" connectable="0"><mxGeometry x="-0.2489" y="3" relative="1" as="geometry"><mxPoint x="1" y="1" as="offset"/></mxGeometry></mxCell><mxCell id="mEXFG2sUmQ1XzkrOF1mA-47" value="" style="rounded=1;whiteSpace=wrap;html=1;shadow=1;glass=0;labelBackgroundColor=#FFE6CC;labelBorderColor=default;sketch=0;strokeColor=#666666;fillColor=#f5f5f5;fontColor=#333333;" parent="mEXFG2sUmQ1XzkrOF1mA-1" vertex="1"><mxGeometry x="621" y="796.1700000000001" width="130" height="60" as="geometry"/></mxCell><mxCell id="mEXFG2sUmQ1XzkrOF1mA-48" value="" style="shape=image;verticalLabelPosition=bottom;labelBackgroundColor=default;verticalAlign=top;aspect=fixed;imageAspect=0;image=data:image/png,iVBORw0KGgoAAAANSUhEUgAAAT4AAACfCAMAAABX0UX9AAAABGdBTUEAALGPC/xhBQAAAAFzUkdCAK7OHOkAAADPUExURfFaJD8+QDw6PTMyNCwrLvNrHyMiJvimDfmuC/JlIfNyHveXEvR6G/bx7/edEPWMFfmzCfm2B/mxCvq9Bvq6BvehDvWDGPrABvvIA/R/GfaSE/aPFOnl4czMzenh2bi3uPWHF1BPUfBPC2ZlZ/JmAIB/gPeVAPzgzPBKAPHs6qemp/vQuPFUGfaaevWLXEVERo2MjZmZmnZ1dvm2ovWEAPm3kfq6avifAPzWmvFYAPN1APNqOviiOPV8APzbrvR8RfrBhvmyUfrLv/vJRkdwTKJ9xeAAAABFdFJOU9a/wsrQ29jq7Nnc5t4Q6OPu7+3w8Onh8fTg5eQeNCdJ4q/smv+B/zP/FVpI4IajuXRni17/b5X/Zv//w8T/Urh6rUG3APpaP/EAAAtqSURBVHja7Z0Ld5s4E4ZtIOTSpddt03YxLviCbWx8vyWO4yT8/9+0krhJQsLg9PvSNfP27B4feSQvD6OZ0cDp1gLQK1QDBIAP8AE+wAcCfIAP8AE+EOADfIAP8IEAH+ADfIAPBPgAH+ADfIAPBPgAH+ADfCDA99/A1zcA3+ma9xwP8J2qUa9W6/mA7zT5Tg3JuTcA38n0arXhPeA7YedG9BC/R8BXVl6vlsgZAb5yMih6KH+4gK9c4BvS+KoY/l6Dz2KcD7nfM+ArkzeGLL6hD/hKyKlxGs6f++xxzn32XMAnPqxl8NUcp+eMvKiCfh45vR4aMQBfRu7IydILXdDpPSKCXq0X7m1nDvh4x4vZyAg69ynce8DH7VqnVkI9q8L4DNdbjrDitOCVg4d2r1dVfO7oHgX/IRFKArWR2/d7tZIajqqJLxvhEMNhDfAVw1fazyT4/EriM5zfhG8E+PLwoEqv16vdYw1Rocxv73Mu/GplDmWSEm/kuclZzbA8nG6G4H0F8DnO6FlwJjM8v0dN7s0rie+Y4/Xu5RVdf0kB7HlVxOfnFinOvVv4cHK2jeg8fKNhXswr4FGjpG50jOrh8+TBz/EL8bDizsG5PofLw2dJ6+Ze4WQ66p119ZJ75pXSK8HiOeLX61cOnyT4lUuk1nB4vke3XHxu77W+R2qY2vBss29+w0qYNUofIvrDs+06146UbtmK5QQKYQ4q5n6GaZn9M8FnbH9P651EgQLRr9lRdV3TdN2eWmeAL1g616yc5Uk/M9+iuUfIGxNNU+qhFFW3G6+8NCPUW+ILrnnJPWw+8h8fH/3R3BUeAI+hH2hqnZHeesUmbszqyImROm+K73nLwNtKapZnf7uNLdGnx7mRCQO57IOgpUVuhxU6oaI3T3W8lq6Ea+jmm+ILHgs4n3e95Xx0u/W5neohk6109/br5GrRlp0Mms3BLNrGJ/qOoSZBoPWmsS/ymlhtUclnPW6vBdr6ff4+tGUVo0F8RdEmia80bQLQPumi7HA1JL3xtvi89kWq67YwK1AG5E/8acvEOgvZ+XnXq7GxrqEgHzrpmpo4DmizBtbbZt7Aj5kQLoKK+bBlLPA/1+G/Li62jwa7VFv8IxOcNPQpPzw7MXDN0M1QB39C4RLQznfRzubUEWOQFRXtrPZFW5hLLR17i+B6Twz7yPkUO/gT8FksvmxdSH/fRgo/3QiJ+xdtT7Z11d9XYBjobqjTPwLfvH2TKrt33fhrhO5+tJzPD/5Nm55yc9O2qDgqzB0NdLknRjk5vsEfgW/EkMj4TvJNe5lsS/PAAmyn8a/dPgh+o4OcTztW4VmzTgfZNAaTDtIs/q1pq66q41kT/way6MT4lBax6yQ+zVgmK0zJh/7UVjTFnmYii3hSCXz3DAh+/UPEqT0y5D57c08FSlG3BuUNZXz0FKErWrOpaqikVhQtpGK2dBVXPAo64qHNqqOSO8aHxrBULeAsNWypqYoe1urogzHRSZmIFpmw8NLlNXpSCXysH/G7pC3zSsOnJqYu54rwWVqRUNVAVuP4VKeTgDDVlfSEp477+DYk+OLh8DzIWeIDTYhPoVZFX9mUG3DLm3iPlMRntv+ixFdtyzsy3BadcZfUzDT8ifAN0H++ZhXBFx0klDCtdpJTnhIO12l84eFPJZQmetYyxRcORV+lCTtZXkknlcU3v6Po3fHXHsHZS5JOMvFH8phttBQXfXp61/tWRmaKT9Hqtm3jQDklA6ramkzspNmQ4FM6zVCppYYsW4klg08bd9BX+HNSAAiXL4fPeqTp/XXHcXLvhD7J+SaZmfdwBGcOhd4zGifdTvCpSRerQVwsKhaNeKMpgsxrRZbkDhmDqCdG4VPCvNVvqWmLQbx8KXxLZudmIYR87qQNNV/gfuIzAp05BlzbKjr4EnxUAwDXiso4TffRFhPgI5b1PtecoPBpcXU+Qz+thuljLFy+DD7/7gerO5fHgwflTz6MO+lU/oil0PgUWjE0gk9jQ6FK3TlTk+AjfqRRNUNfY/FRpHHyUXKWL47P2PH0Mgy+HQOzTJZ4yHm8xMW+wdimhdl2ogtSJwxztlYkXivAh2ODmrVM8WkG859CSEuWL4zP+PbjxzF8D3jwW175n96BHLPczJtUNRgfdUEJK6rHJ8aHHVhlF9VpfHTgaKpR8FPrwkmF8X0T6IHFZzygsV+5j39WD5K5fEkiPWNNMdtGjC9pP/X1yCnpdrUiwkfS8CwbLlJ8NosPR0LZ8kXx+Q8ifF4W30Pu4ws3xbc8rUGCQzjZ2Sw+S4B8qorwmYKiHFvm4hMtTzZ2MXzLB6H3cYXLw69j+AxsQvRjlZ87tIa8WLaD/xY+8+GXSAsu/n/AY/nPLRfJ5F3+gULifnYSwrObV51IMjiDT7QPO8c2rylZvhg+/5dYHIIVgrNY5eLbpexzrPAOFXVLQ4eqB1l8ojaDIk4d2SQTMJlXhI/Ek3omxBTD5y0+iMUh2BO7XHyrZKlFzuPqJkmFDfF4lG45fK3MhicPOAT4sjUIsczHJ1m+EL7dBxk+Nn2ai+wYj+9DEXxh8Z95qEvoxQcNDh++Gsb9DEXifcSScT+2ZSDEl11eLVo2uwspPi7Q+f+gsdzduyuGL3wuyz7UNTph48QQ4iMM6Ie4tvTQRixt3jIfX1j4pcsbduFDm/+PVD+5FLNAY7nu9zOZmosvPNbXVTVp+Panqpp29gT4iGuq42ikUZe3DEInTizHXMtAjC9c3uaWL4Jvt5Di41GtkOnPnzlgFgXx4WZy9JZBZzAYdGxdDd/SaAQSfOR8jwzsSbM5GcevFonwBR1iqRFLO7Y8gk+8fLHY1/0p0T/8TiWj76RkzEUytXukHWrW1bhxqUYdStziDaT4gpaavBMTopfhi16fYS2P4RMuX6xweZLz4568msTynWz/bqiFdsf6yRO6OU5u/YQrDrnaukNPULTGWIaPs9Sx5VF8okkFTx2r7juxurz7mV1s2n2KAW5W7H2gph7lZ8709NUeVeuYbG2tKPzRpFmPd5WKX2bDnS7Jg8pGYqlgS+TdMT6FwYd+JH2zoakwyyPToo+KllJ+bqaxRfh1362Wm+VTt0uHR6Obi16QgZszlbyUp3aaXERoqOOxmikNmy3yMqrWsUiKjfGhCMBX4c1ZZNkILSN89XGd8T70I6Z8+cIdF/e9BOBOsENDDwzlMd/koxer3y/1VmTfLPoqdHHL4pOk3eZlt/teoK7gkOs9Rex2G2acn7sLzk7yZr25EgIU+5Dr7T3P5N2Sn+pVCB8CuFx311l+Bd97MrLwnyqFD+/Lw1dE8Cut91+Lvaz+tP7K6f3aqBg+cqLiOKwL8dtk6KGZXgXxZUis18f3ryeg93V9qCK+4JLXUTfy1pdZrZ+MSuIzMzDW+TXwXkBvvd5XqXBht28WR44DrrK415ebIKgqvuBJsBd3kmfb3hVnuFpt9mYQVBhfcJXR58+XO8F2dHeXnOFTcL4qis+8EgFEbBi/sjZXlxkz+KtfMZkriS6vdqvDZr/frJ4E7K4u4S8eJpsSOZtYHz99TP2R19UmAHw4+X4+RVerAPBhvXw8QZ/PnF5xfEDvVZn346fS+ngIAN/p+Crwvx8rjO/T3yX1yQwAX4Lv79IKAB+F70tZAb58fLe59F4AH6VbTl82G4TvVq4N4KPLZhbOC+5Wmd7hRUbviwX46EPb7fdIiM13qiYxLdfb7/eb28SAGH0PAB/dcblN6K3cfL7EagP4GIVYXg7SBtQB+1z8pxrOVwKf5bpWfiW8obxvD/hKy0rovQSA7wTtI3wB4DtN3grRswDfK/ZwZej9T/BVSIAP8AE+wAf4QIAP8AE+wAcCfIAP8AE+EOADfIAP8IEAH+ADfIAP8IEAH+ADfIAPBPj+D/oXnNYw89vDLjcAAAAASUVORK5CYII=;fillColor=#f5f5f5;strokeColor=#666666;fontColor=#333333;" parent="mEXFG2sUmQ1XzkrOF1mA-1" vertex="1"><mxGeometry x="637" y="801.6700000000001" width="98" height="49" as="geometry"/></mxCell><mxCell id="mEXFG2sUmQ1XzkrOF1mA-49" style="edgeStyle=orthogonalEdgeStyle;rounded=0;orthogonalLoop=1;jettySize=auto;html=1;fontColor=default;startArrow=none;startFill=0;" parent="mEXFG2sUmQ1XzkrOF1mA-1" source="mEXFG2sUmQ1XzkrOF1mA-51" target="mEXFG2sUmQ1XzkrOF1mA-53" edge="1"><mxGeometry relative="1" as="geometry"/></mxCell><mxCell id="mEXFG2sUmQ1XzkrOF1mA-50" value="Notification" style="edgeLabel;html=1;align=center;verticalAlign=middle;resizable=0;points=[];fontColor=default;labelBorderColor=default;" parent="mEXFG2sUmQ1XzkrOF1mA-49" vertex="1" connectable="0"><mxGeometry x="-0.4031" y="-1" relative="1" as="geometry"><mxPoint x="13" y="-1" as="offset"/></mxGeometry></mxCell><mxCell id="mEXFG2sUmQ1XzkrOF1mA-51" value="Alert manager" style="rounded=1;whiteSpace=wrap;html=1;shadow=1;glass=0;labelBackgroundColor=none;labelBorderColor=none;sketch=0;strokeColor=#666666;fillColor=#f5f5f5;align=center;fontColor=#333333;" parent="mEXFG2sUmQ1XzkrOF1mA-1" vertex="1"><mxGeometry x="490" y="906.1700000000001" width="130" height="60" as="geometry"/></mxCell><mxCell id="mEXFG2sUmQ1XzkrOF1mA-52" value="" style="shape=image;verticalLabelPosition=bottom;labelBackgroundColor=default;verticalAlign=top;aspect=fixed;imageAspect=0;image=data:image/png,iVBORw0KGgoAAAANSUhEUgAAAMgAAADICAYAAACtWK6eAAAqQ0lEQVR42u2de3Bd1XX/7XGZTDOZ6QDDX0wm/BEapIstP6V7LduyLWxsyKOTlJZp0kx+AdqQBIMJkPygcX8kpeQHMWn7a9pAGgjJzzYmAfMw8kvS1dOSLVmWbMmSLCTLeoEt45gyw0zA9u767LvP1fW1ZJ1z7kP3nHv+WGNZOmefs9da37P3Wns9ZimlZgWUPqoKF8yJhkPX1kQKPyv/ltREQl8Rul/oSaHnhXYKNQp1CQ0LvSf0odBHQhcMfWR+9565psvcs9OM8aQZ8yuxZ+hnXcuzAxmklwImuKCOF5+fFV0ami0KelVNuOAz8u8XhR4T2iLUIjQo9L7QRSGVYbponjVonr3FvMsXzbtdxbvyzoHsAoBkjPaECwQQhddFI6GIKN0DQtuE+oX+aL76Ksfognm3fvOuD8TevfA65hLINABISlS9bO7sqrB8fSOFC0S5HhbaJTQkdD4HwWCXzps5MJeHmRtzZK6BzAOATEt160pn1UQKrhblWS30jFC30MceBsR09LGZ4zOxORdcDQ8CXQgAEqfKFYvEsL7pE6Ig5ULPmS3JeR+D4kqrS7/hQTk8gTcBQPJ04jVLCufIFiMkyrBJqDdPQXElsMCTTZpHwqsAIHlAe1cXz6oOF35SDNU7zD78gwAM09IHMV4V3gHv4GEAEJ9R7cqSWTXhwutF0BuFenLU65TrdMHwbiO8hKcBQDxO0aXzZkfDoRtEqJuFxgIlTxvBy83wFh4HAPHairF84SzZO99ogHFuJpWpbunNqrF0rmpaNk8dXFGkDpUtUO2rFqqjqxeprvLFqvuWJapnTbHqTSJ+x9+4hmu5h3sZg7EYk7FnGCjnNFCE1/A8AEiue6SWF82SvfL1xm15JpvKUivKun/ZXNW2coHqFKU+Lgp+Yl1EDd22VI3cVqrGbi9V73x+WVqIsRiTsXkGz+KZPJt3qM0+cM7EeF54fXXpvAAgObeVevTRWdGS0DXRSOghEdSpjINBiC94a9l8rZhv31qihkVZx9IEgJTAI8S78E68G+/Iu9ZmByinkIGWhcgkAMgMU9/27RzsXSWCudME9F3M5FapZcV8dUy2PXy1R9K4ImSaeFfemXdnDhneml00srgT2SCjACAz4bJdXDBb9r5FJsI1I2cYDaWxLdPxtcWypVnqGUBMCxiZC3Nibswxg2cpO5ERsgoAksXtVHU49Clh/uNCZzOxUqA4fWtL9D7fL6CYGiyleq7MOUMrCzJ6HJl5cdvlrdPvBZ9j1Sg1Yd0X02lTHFhepLcgwz5aKZwSc4cH8KI2/duuFi07kWEAkDRT8w8emVUdKWTVeELov9O5WhyWL+fAunBavUxeJ3gBTw6nf1VBdk8gS2QaACQdZxrz5okhHsLWqE/XqsG++8jqRWpofSQAxDQEj+BVGm2Vi0aWRcg2AEgqORnhm+dEI6G7hZmn0wUMXJ/5vI1KZfsF79IIlNPIFhkHAHFjjEdC19SEQ8+mw0OFUDmNHgmAkRYP2NH0rSjnkTGyDgBit+hBWTFhIgXCvOZUt1ScKHesWqhPnAPlTvPWS3gKb9Nwao+Mm5E5sg8AcgXaHZlLcOF6YdhIql6plrL5anBdYGNkmuAxvE6D12sE2aMDAUAmszciN82R5XZDqjkahFVwCBZ4pbLr9YLnjalvuz5AB9CFACCX2ht/Ksx5KpX8b2s7lQ+He7l86JiGbRc68BQ6kfcA6a7YSYbfn5laTq7tDcK/+28tCZQ0RwhZIJMU7ZIt6AY6krcAiYYLrhNGvOUWHOx724NVI2dXE2RTmxpI3kJH8g4gBx68n5WDvI2GVFy32tYIlDF3bRMhZJSiS7gBXUFn8gYg0XDhp40b1xXTyKo7GZyCe4aQFTJLASTN6IzvAcJXwICj1S2zMAJHAw+V5wiZIbsUQNKK7mR7JcluNG6k4Hq3KwdBc+RoB8rmbUKGKQRANqNDvgMInghjkDe4tTf6bw0HCuYbL1c4FbukAV3KlncrOzZHiXblVrh14Q760N7gcA1i6zFiijBcQuZvo7eX+vLQE5mm4AquQKd8AZDq2CHgVjeuXAw7v0XejhlAEMs0uH6pGhBFeXtdjPrWhTXxc78Qf+MaXRnFh0BBti6Nd3Rpa3UWDhMza3OEP/cnMpGn3YCD4gJ+O9+wwDEoitG/PgaI7rUlqkuoc02xOmKIn/kdfzsu13DtoE9BgoyRtUuQPI2OeRIgBJ3VhAs3uAkfoUCa3zxVFjhOGnAcl334MQEAgGi/pVi1lS9RrYb4md/xN67hWu456VOQIGtk7iosJRzakMkAx8xsq8qXkAW43k3goS/BYUrvaHDI1qlHFP6oKP9h8r9XL1b7Vy1SjZ9fpfbf9VVN/Nwkv+NvXMO13MO9cZD40A3sEiTo2Hp0zjMAqQkXkM8xGoBjQviJ4GBlYKUAGE33/K06vrtCjQ0MqFOjY5r4md813fN1fQ3XHkkACdstv/LJJUhG0TlPACQaKbzGzVlHq+xD/XoAOCz7bAzuXr1ylKhDBhyH/u8T6t3hYXXm3PuTEn/jGgsk3Mt2i7GGfRp/hg60urNJSLq6JqcBEo3cPEde9FmnRjmeDL8GHI4ZjxUGOYY3Wya9ffr+g+rU2NiU4LCIaw7KtdzDvdgkjMWK5NecF3TBhXcLnXsWHcxJgOjqI2FdYOG803MOPxdRQIlPrF8a31q1iF1Rd0tYDR5qnRYcFg0eOqTv4V5rq8WYfk4KQydcnJOge/eks1pK2upWmdI8p52ekA/6POiQLcOAKDNf/nZZAZqxO+77OzX+3lnbAOHapg1/r+/Fu8VYjOn3mDR0w8WJOzpYlK66W2k6DNRF3eqdxlblQ/gISoyLtlPsB+yI+pWi5C/8yjY4LGr/9fP6XuwXxmLMfAjaREdcxG7Vo5M5AZCahX8+21Q8dGR35EvgIUrMyXiHfPlx29aULVAdL7/kGCAdL2/X9x6UMRiLMfMlqhldcWGPPIFuzihAKEYsdscyp+cdhD3nTWYdBQ0o43lLzHNVtWKBancBkHYBCPdirLfJWIw5kkdh/y5C5SkAsSzVgtmpJj59yhSSduSxypcv35g5/8Bm0MZ52UK1Z/l81eYCIG0CEO6tX7lQryKM6WdP1mQrsQvPVgs6OiMAqVp20+xorAXBRSdGud8zARMjdE9q925EG9YNotiVouBvLp2nWrY7B0iLgIp7WUUasGNkFbHcvSM+jvpNzkx0aLRfREfR1awCpHfHjlmmec1ZJwUWyE/2OzA4wENpccNiJ3D2wRe/WhR717Ii9WpkrjroAiDcw72MwViMydg8g2fxTJ7td6CgQw4LQZxFV9HZrAGkKqzbnr3pZLmjwsWYj4ExlACK3oRAxJbVS7RxXVFapHaIgm8rCakmFwDhHu5lDMZiTMa2Ahp5pgWWIROK4kegoEPtzu2RN9HZrABEG+aRwjudHAhy4OPX0HULGFbouhWE2Fq+WBvUGhzy1X8FcCxfpF768u2qbfcu5zbI7t363pdkDMZiTMZu0mEoi/U2jmd3m5P2GFBKfRsi7/AQ8Tw668Zgd2GYh64xTRptVzz0W1G35BWjx8RYWdG52Ai1YpBXrpiv9nyhXEX/zz+ow2+8rk50HlWnz7ynzvzhnGOAcA/3njh6VB1+/TU9JmPzDJ61/5Lo3xL9Tskrit+K0zms4NiF7mYUIPTANq2WL+ajS9fqT85+3wJGlzkhP6iBsVDbB3vKFqnot+5SnW+8pkb6B9T42T84B8R0p+sy5kh/v+oELN/6ptorz6zWBnzMy8U7dSVsvU5moF+7x1y/GOwPOe3j7jCMXRd7O+WkkLRftlZjxgCPbacicRuD5CZrK7VPlLTu+99TvbU16vT4mbSDYiriWcflmXXff1DeYWF869VWPmGj9JnVZNhHIEG3HBbMPoUOZwQg1WWLiLd6Jh+9VqOXgCNs4qrEADd2RlSUsvbvvqGO19Wq06fHswaMy4Aiz+YdeBfeqcmEyVvxW5Zt4ieQuPBqPYMupx0gsn+7UQYfd5JT7gchWMlOAyZNttOErDevWqz3/tHPl6v2376o3rURup4t4l14J96Nw0nelXfuXDuRT+IXTxfv7zCnfTwaLrwxrQCpJr88EtrsxDA/4YPmNaOmwILlusVLZCU7sd+v+c496sThNndGd6ZJ3ulEW5uqlXfkXXWCVnksfbf31olCEH4ACbrm0GDfXG0zj91mM83QDTLouXwyzK2VA3BY7lu2K3ioqsTWaH76SfXOyEjuASOJ3hkeUU3yrlWykvDureUTOe6W8e4HD5dDg/2c7IhuSAtAalaHsT1+6iScxOs9ARPBwd6d6FkLHJWri1X7lt+KYTye8+BItE1458pVS+IgsYx3v4AEnXMYhrIZ3U4ZIIK0650UYKADqh/OOPrNymGFqWtw3CLbrNdezYjbNtPEOx/d8aqeA3PBwcDcmCNzHfJB4CO656TQA7qdEkAqlpewejzgZPXwcqvleGE3462ykpxQqBpRrGM731Tjf/AeOOIgkXdnDswluRAEc/b6qfuI81XkAXTcNUCqIoWflEF67D6wS75KXq9dNZgQZMg5QqMoUuXKxero77Z7cuWYdCWRuVSvWqznpjMUE7ZaXq+5hQ46AEgPOu4aIDWRwjtkkAt2Vw8vF19I9Fgd067c4niCU+svfq7GCRHxODjiIJG5HHr2P/Tc9idUS7GqN3rZHhl2topcQMddAaS6pIASPrvsovHIqkWe3loNJRR2s+wO3KP1jz6i3n3nXd+AI35WInNibsyx2aTx9prCdF63R444s0V2oeuOARKNFIbsptKSVD/k4USo0YTSPLhAMWA5YKv88no13NvrO3BYxNz2yRw58GTOnSZ264THK6agiw4KPXyArjsCSOUKHVayyS4KD69c4PnVg60VRnmbOQjE7ujet9e34LCoe98etW/l4vhWy7JHvL6KoJMOVpFN6LxtgFSFb/qE3NRrN+ZqYF3Y27aHfDH5crbHK48sVE0//sesBhzO2BmJzHG/zJU5t6yO5ZX0Gq+Wl1cRdNJBjFYvOm8bIHJDud2EqAPLizz7pRnTB0yxsjydprACRREq161QJzs7fQ8Oi5grc2405yMTq4h3PVroJLrpoCJjuS2A1K0rBSDP2V2ejnm4vpW1emB7sL1oMF6rQ7/8RW7GV2Uwbos5Y7A3mq1Wjw9WkWPO6mk9h+5PCxAxWK6Wi/vtGudedu0Om9XDKqwQFQXZ9xdr1UhfX/6Aw9DI8eOq8i9ujRenswpCeLmKPLrpwFjvR/enBYiT7VWbx41zfP6W7cGXk7pTB/7fv+TX6pGwihyUue8VHjSaGsDwxuu1t9rsG+uTbrOSU2pnO0mK6lvr3VzzEePa5YCMkAtcnRWritWJ9vb8A4dVRV7mvkt4gMEOT+CN112+6KijZCrBwJQAqQqHKOfTbT/uqtSzqwdbBw7FiEXCc4XtUfO9+xxVXfcbMXd4AC/gCbyBR17OZefdHZysd4OBKQESDRcusNt008vbKytil/q21vaKrcXRN9/IW3BYBA8St1nwyOtVURxssz4GA1MCRC542O5y5OV8c2t71X3rxPZq95qlakgM1XwHCDyAF7VmmwWPrEhfL+etO9hmPTwpQKqX6LTaXXa9VyMe915ZPTusmKvoxu/OaMGFXEqughfVZpsFj7zeE3HEmTdrF1i4DCA14cLr5I/DdgsyeLoIsukZSFYdIRb7ZEtx8D//Pe/BEa8DLLyAJ/AGHlmhJ16WuYPCDsNg4TKARCOhiF33rpcPB62egb36cDBWdX3P8gXqWHVVAA5D8AKewJvDCaEnY/lxaHgeLFwCkI4Xnyf3Y6Pd2CsvVywZuz3WkrnbJETVAZBVxWqwoz0Ah+XuFV7AE3gDj/zQNFRXPrFvh2wEE3GAVEVuxv7YZrtaoocZhZD7zek5Rignx7vXl6lTPsz5cEvwAp7AG+s8BJ55Oh33dkdVGLeBiThA5BdX2Q0vaS3ztv0xdvulwYmEl1R+7S/V+NmzATjiablnNU/gTUtC2InXizqgu3bDTsBEHCDRcMFn5Bd/tHNzp4fzzq0zkJiBPuHBqnvwu77IN09n3jo8qU44MIRnXi8N1Gk/X/2PYGICIJHQF+3mnr/t8VYGCJkqHnhnKMmp87KfeFyN52P81ZTVT85pnsAbeASv4JnXAYLu2s1VBxOJW6zH7JYUHfa4u4+9KF6ZDgMQ+gY2/+yn+RmgeIXAxeafPR3jTQJAvN5VF911UKL0sUSAbLFz0/5lcz3fRo3YHAsgTQYgB/79XwOAJAEEnsCbJgMQeOb1VhboLjpsEyBbNED2LS6cY7eVs5fjrxIB0pMAkH35HOJ+JYAIT/b5DCAO47JawAalRa+V/wzmg4GeCBAC8ZrMKXqwxZpsi/VTA5BFuiRQj08A4sBQHwQbAOSz8p/3bQUorin2FUCsMJP9Tz0ZACQJIPDECjfxE0DQYZsAeR9sAJCw3Z6DJzxcveRKAGn85x8FAEkCCDzxI0A4Ubfd01CwQZDiX9ouDudxD9ZUAGl4/IeeLkqdiSLX8MSPABlyEtkr2LBdvd0vDTknA0j9D38QHBQmHRTCEz8CxGHjzwcAyE/sXEzjdj/0HJwMIHWPPhQAJPkk/X8/5EuAoMPosk2A/ASAvGDn4oMrinzTOjgZILWPbAwAkgQQeOJHgEDosk2AvABAdtq5+FDZAt8CpOahDQFAkgACT/wKEHTZJkB2ApBGOxe3+6Ax55QAefC+ACDJABGe+BUg7fYbfu4HIMfyoffgFQGy8TsBQJIBIjzxK0Ac9DI8NstuHnqXD07RA4AEAHHYpm0YgLxn5+JuD+ehTwuQ7wVbrMsA8j3/brG67eenvwdAPrRzcY8Pwkym9GI9fH8AkGQv1kP3+xYgPfbDTT4EIB/ZubjXzwD5/oMBQJIBIjzxK0B67QPko1l2Mwn9AhCSZi47KAxO0i8/KPyHy0/Sh30QauQQIBfyEiDdCQChDm3DjzYFsVjJsVjCk70BQC7k3RYrBpCJPui6UPNP/imI5k2O5hWeWADhY9KdnwD5KO+M9MkA0vRvPwsAkgQQeOJXgDg10vPKzUu4M4XQAAhNK+kqdfBXvwxAkVyfV3gCb+ARAIFnQz4BiFM3b14dFJ40AGmjaScAWTZftW7dEoAiieAJvIFHNPWEZyd9AhCnB4V5FWqCkLtMXV6Ev3tZkTr88vYAFEkET+CNHwHiNNRkfz4FK1oAOSQAoSc6SnBkx6sBKJIInsCbelPAustHAHEarJhX4e6U8e80havryhaqXaIEnRU7A1AkETyBN/CIjwk8g3f5GO6eNwlTFA47sZ7GncVxgFSIEvREg94gyQRPKgxA4BX1eeHdmA8A4jRhKm9SbhEuvUEohNYihhp9+N4qLVL9ra0BKJIInsAbeASv+KgM+AAgblJu86ZoA8KlzwVVFalaTj/wt5bPVyeD5p2XETyBN/DooPAKnukeIXlXtCGPyv5YvUHw6zeb3iAVa0rVyMBAAIokgifwJmpaIMAzP/QIcVz2J58Kx1m9QXBbNpneIHvu+IIaGxoKQJFE8ATewKNmAxA/9AhxXDgun0qP6t4gImQOCQmhoP9F5bfvVqfePRWAIrkNm/AE3sAj6vPCs+M+AIib0qN5U7ya/hZEpeK2bLSyCf/xsSAOa4p4rJpNj8VD3g+ZZp4j+dNlKla8Op/aHwyJgdZtehNyAKYDFf9lcwCGKQje6HSAlTFPVreOx/I2QBy3P8iXBjq896A5RcforNOn6PNV++9/F4BhCoI38IiPyUHTzBMeelkHHDfQyZcWbHhf6PV9dE2sL0i0bIGqWL5A9TTUB2CY6rBQeFNhXL20YoN3Xu6X7roFWz408cS4tA4J2VNXA5DVsmU4diwAwxQEb+ARHxM+KkfMYaFXDXXXTTzzoQ30SMIZCBGqeGf2fPk2dfrMmQAMU9Dp8TOaR/DKyguBh1411F23gaZpummePu3NNGP36vJKp9Y2E4O1N+gL4qhPSJ2J6j3u4cxCdNcmQMDCVXGAVEVuni2/2GY75MRjXxD2zESidq8Na28MWwYiVTteCQz06QgeEfZeIzyLebLCmpdes0PQWQchJtvARBwgHS8+L6tI4UZbhro+UY940v7oXFOiT4UrZctAnNFAW1sAgmkIHuHMqDIn6vDQi3YIOltrDxzQRjARB4gx1CPyh/N2Bjjmofx0vnTDJsSE8jUcEJJrvedrd6h3RkYCEExD8Giv8EpXfzElgOAlPPXSKnLMfh76ebBg4SIOkJpw4XV289NbVsz3JkDWTBSLa37m6QAANumA8CpeRG6NNwGCztrNQwcLlwGkeslc7JBddiN7RzxiqCUCBDdlMy7elYvU2/V1gfLbJHgFz5qNq9drABlxEsErGAALlwHEeLMetjmIOr622HMAISuOMJOmb9ypTp86HSi/XXev8AqewTt46DWAoKs19u2PhxMxcQlAouHCBXLBx36Ky7IAgv/eKtbQ91pQpMEp9e14RfMOHsJLLwHEQfzVx2BgSoBUhfV5SLedwRpyKMNwzAhr1BAuPd6N5BhckgiUsjUcdB366pfVWE+POjU2Fqd3A5qUEnkEz+CdVUQOnlLlBB7D65EE/o/lEHh4twb77t1uMDAlQKpL52GHPGN3OepbWzKjoLDAYAEB92O/EFsADrQIz+aLd8QUaWAPXX9bmaq/5+uq5u6/VZV3fU3t/ubX1M7/9VX1+je+ql79xt8EJAQv4Am8gUe1wit4Bu/gIbyEpwAFHsNreA7vkQGy0MBJAMxM6Qk66mB79QwYmBIgxg4pt+vunaltlgWORGAgoF4RFHV3Ow0ocEly+ssBFx4YTtB1FuHy+aqitEi9sXSeeiUyV20vCaktxYXqt0sCguAFPIE38IjqJvAM3sFDeAlPycyEx/AansN7ZPC2yCIRKDMJEgfbK3S+PBkPlwEkGim82m7YSd0MRPeOmVWD5Z0vFl8vvmQYjwiLfTKh2QTXIcj6lYt0ZQ4OB/HlI+w3S+ep10Xwr4oCvFxys9omyvD/A4DECV7AE3gDj+AVPIN38BBewlNi2uAxvIbn8B4ZcJiITJANMjppVpNsg2TYmfeqH92fFiB160pZRZ6zuyxl89BQG9yypyQngT1wjwZGsf6SWaAgd4EvXeWK+VqYhEkg2J0GFDtE4HwZfxe+OQ6OYPWYfBWxQPJ74RU822HAstOAZU8cMLHVBd43JawuyKbH2CuDMwASB4eD0HPo/rQAcbrNOrC8KGuTHjExVZSfIbutw9gWevtUXqz23/tNdfiFX6mO372sjrz6iureu1t1V+7VdMxQl0X79qrOBDoa0CWUyBt4ZfHN4qPF1+49uzWv4Tm8RwZaFsZWQUbIqn/dxEqSrY8pupnK9mpKgFSFb/qE3NBrNzZrIAvVTsaMzcHXiH2uZXgT/rD/3rvUQGODGj/zXuCSnekIYJEBstj/7bu0bCyDHplhlyDDbHxQ0UkHsVe96LxtgFSuWMQqssnu8nQ4C8a6jsg1IevHTHV2vlLND35XjQ0OBsqZa2WDRCbIBhkhK2TWZ7Za2QDIYfvGObQJnbcNEGOsh+TGD2wXlVsfyUpEbs+tMbsDm6PhC+VqOMgIzFlCNsgodgI/sYpkOhIYXXRgnH+Ark+FgykBUl1SMMdubBZ0ZNWijNsf/eY03GrA2fHcfwYle3K8dBAyirdxM7ZIpu2QI/b7f8Rir0TXHQMkZqwX3mE3V53Tyky6fDkRxf7gS4Q7kQy3gab9gRLmej6JyAhZJYapZBIg6KCDk/ML6PiVMHBFgFRFCj8pg/TYRWMm27QBEPaw2jin8PSqxWqkry9Qwlyv8SsyQlbIrNPYIZkEiIP2alAPOu4aIBXLS2xXf5+Iz1qaUYBYvT1qVy5Sw729gRLmuh0iMkJWraYJTyYBMuJs9dDV29Fx1wCJRfiGrpeBRu0+NFO9DK0tVqcAhDqxHEr1VVUGSpjrUcAiI93GzfQ5zOQW66gz22MU3Z5O/6cFSM3qMKvIT52sIplokzCZkd7yzz9S42eDqiQ5eyYiskFG2TDSh5yvHpvR7ZQBoj1a4dANMuA5uw/vyEDDz1FTGTHRzVt3S1i9XVsTKGOuZiKKbJCR5eblDAsZZsLN22G/MSd0TlaPG+zovj2ARHQ67ma7L0B5x3RXPhkzAYp9JsxEN8ER46/xzi+pEwcPBO7eHHPvIhNkg4ys1cPKIUn3QaGuWGL/3EOvHuh02gBibJEbZeBxuy9Bknw6GWEFKlqh7USMtukcDw4MV6sjL/xKjfT2qPH3zuqlPaAZIOE9MkAWyATZIKNOk6ZLHB0yTLdeOCjIAI1Hw4U32tV72wCpLtPhJ7aTqWozkLc+alaRARPmDuOJGqVaO3E/dWtLVf3X/0o13H+vqt/4bVWbTXrgXhUVqhaqlOfvE9q74V61Z8O31C6hCqG37vuW2in0xn1/r974rkOSe7iXMSrMmIzNM3gWz6w278C7ZHPu8FrzXHiPDJAFMkE2yOh4QhxWurdX6JiDmKtYUlTZollpB4gpDYRH65Tdl0l3488xY6wPGZD0mozBxDwQKzGqxiRHQVVZIpKKdunQ+lgylhVar8Pqi2M5J79ZUqh+vbjAFf3GytUojoWhWyHob8qz6Ei7yyQ2ZWu+Fn/htZVIlZgXgmx6k8AxlmbPZqMzw/wUOuxE5x0BpLp0HgXmHrLb0zATBntiwpReSdZNnjDF8r7fJE1BjRmmBpOYdSlQ5qnXErIWt5q8E7cA4d6tAg4r2+81k5uxy+RlVCUkMmV6vom8hdeJwDhqJUyZzMJMJUw5NMwvorvocMYAYmyRa+RhXU4M9v40t0ywUm6HTcotrkMrD520zy6TSKXTbrNEGKKJqb3RhAxGkoxIOnrJZC66BQj3MgZjvb50IsMvmpSsxLtka97wGF53mZTbeH76uoixOTKTcotOOTTMu9Bdp/ruHCCPPkqM1p12E6ogGrdnogLKpYUbYqsKQjlh8tTxmrytwZN54mtpndFYW72Djz6ijm7fqjpe2qrahFq3bVUHt21RzS6JexmDsRiTsXnG/gRgdJkvdzbmbPEXXsNzeB+rdFKa0YIN6BI65QAc59FZdDfjAIklVBVQHuhNBy+o2mU5zFbrrrGEUkDZolGTr8Kemy8q3pvuF1/IuEu1+ze/jnuKePZgwhc7q5RF2bY721pBb6KzbnTdFUB6d+wgX6RIHnx2Jr1aOVeg7rbSS1zQHT/+oTqTyf4jMnbHjzfpZ3WtNRUPbyv1bIu0DHmtzqKr6GzWAKJXkWU3zRaj53EnBjuhACfXR3wPEIxUDNamO7+kTo+PZ7AD1LhqlmccyhOAoDsOw0kwzB9HV93quWuAmFKln7LbQtqigyuKPN+M3g5AiF6tLy9Rg60tGQMIY/OM1jwACDqD7jjcWrWgo6noeGoAwWAPh5bZTc3NZKxW7gEk1mr60M//NTNhMDLmoZ//m34Gz/I7QDqc2x0foJtuDPO0AUQfHi78c+K0nnCy1YK6PdSEx1HE8fqJOsB4l2q+tEYNd3enP89CxmRsK1K2xxRpG/EhOLqd1bdSRhefQDdT1e+UARILZtRbrXonk6jT5yNh320DcHXiZiU5SG+z5At/8InH01qSiLEYs16vHlYiUizWyW/bV3Skztl5B1SPTqZDt9MCkOYfPEKcFl6t004mgsE16COj3dpm9evqK7GWbwdMevDRbVvSkrvCGEdf2qrHZOwOs3pwFuG37dWgc6NcGR0sQidzBiBQ7bx52CN3OzlAtA4RvdpWeMrqj6bAXZep38UJd3Rtqep69fcpgYR7u3a8osdqMvWmuhLCyP20vUInHB4GWhUS70EX06XXaRsoVkvrZkoFPevUHsE7kSu9RtKzisRO82OHhrGtFvFR0dVLVPsvf6HeHRl1DI53R0dV+389q2pWF6tGk+N91BwOnshAGPlM9/Rw4bFC555FB9Op02kFiCk4R6xWs8PJqdYV832zfx5NyF2xQHLI9CfB69Tw7btVb+VedcpGGziu4dqG79yj7202QYEWOPy2tYJ3rc7yOyxqRvfSrc9pB0gsLL6gwEmhB4sOlS3wFUgSw/KP6twVUxGS1WSl2CZf/2t1+De/Vn0N9Wq4r0+NDgxo4md+x9+4hmu5h3vbTbRsbwZzLGaSZ+iAC3CMonOZ0OWMAKS6fAlG+3qn5yN+BomONDZRxm1WkpcofU2Zya8Qo7tq/YoYyc+xPIsF+hqubTPtBLpNR6cAHAnnHaJr6JxnAALtJo89XLjBblNQv4Ik3tNk/dJ4e7juhL4mROEm569Y+RXYGVafjW7jyrU6N/ltW+USHB/XhEMbdtvML88pgMS2Wp/7E5nE006Ndiun3U+Ge2IvxX4THo/Sx9rFxZK92g1ZSUe6rZkJX7fyK4ZmqFtTJg3yFnc2x0WtW6JjmdThjAIkdogY+lOZyFY3IMGT4RcX8GRNR/tNzgpbplh/xRj1mm0Uf+tffzkw/AIOZOvCW2WBYyu6lWn9zThAtGerpPDPZEIVLhihfeGDPosATswh4QuKokxG/G3UZ6BIPAR0cc5hUQU6lQ3dzQpAuit2zoqGC66TiTW4YQinqX4LS8lnQpYuTsgtakCX0CnfAGSinULB9W7OSKzYLT8GOOYbIUMXsVXxsw50KJs6m1WAHHjwfnJIPi0TbXXJIB32POrjjDm/EjJzEbKeSK3oDjrkW4AkJFp92u1KYhnvfs1M9GsmoEtjfOKUXHRmJnR1RgDCV6A6VoSuwS3T2MOSnzwWKGDuOiNMDnkK9oa2OdCVbK8cMwqQiZVEG+5vuXEBW4UgqHDhl/MSXyWPiUyQTa17YKATb6EjM6mjMwoQPBHydcAFvMUtSCxXcLqL0wWUWlG3FFy4Fji2oBvZ8lblJEAmIoD1YeJTbsJSEis4dgSryYyvGsig1r2XShkdeCqahUNAzwAkduJ+0xziatwEOCYXzNa2SeDpyurBJzxvTM3WsAotbEAXckUvcwYgVoBjNKyjgEdSYXStieVKdxOfgCZvXgOva1MDBjSC7DMZeOh5gOiCdGXFJF0VGDfwxZSAYrZdQz5K6c0Vgqdp2E5Z9gbJTgXIPtf0MedeKMEuuUaW22ed5rhP5RKmA+pIAJS0tFqGlw2pb6diOeRh0mRD1+SqHuYsQGLNQ2+eI8y722m1lCsBpbN8sa+KRGQz8hbepQkYuvoIskXGuayDOQ2QeLWUWEmh+lS3XIlAOSJfwaHgNH76rZTw6Ej6VgxrS4Usi9JZfSRvAWLV3TLF6ajg+N9pEpQOmju8coEaWBcOvF5JXil4Am/qUrcxEgnZPYEs01W3KgBIYjTwgs/NFmOu1BTMvpguweGBObC8SB27ZUleb7+YOzyAF7XpA4W1arRo2YkMvaRzngKIVTC7OhxiNXncSX8SJ6tKm3w5+9aW5MWhI3Nkrm3pXy3i/TmQFTJLtZB0ABAHtHdxwWzTxGdnOjxdU9kqKA6HYH7ygDEX5sTc0mhbTFblcCcyQlZe1TPPAgTq276dJCzawd1pGotezJCw9deVAzG2IByOeanMJ+/KO/PuzCFDK0XidqorJpOCq5CRl3XM0y+fuO2KloSuMS2qT2VQ+HGbhbCK1rL52vX59q0lev+eC6H3Y8aW4J14N96Rd63NME+sPuTIQMvCg9sp3wLEosrlRXTgJc/kGaEzNdlRivip/f5lc9Uh2bagmMfXFMtXOxyrRpLmGlZjptgDY/MMnsUzeTbvUJvZFWIyOhPjeeH1TvuQBwCZibOT5QsJV7lRhLZZ6FyWleWyrRlfcMK/yaqjQBp5EpxGd4lSk6PdIwrem0T8jr9xDddyD/cyBmMxZl32gZBM8HYzvIbnftQlX04qvvVaOo/gxxsMUMZmWJn8RGMaGMJbeOxnHfI1QOIrysqSWTWxFN+NQj1CFwIld0wXDO82wkt4mg+6kxeTjLuGVxeTwfhJ2SvfIYLelWruSZ7QBzFeFd4B7+BhPulMXk32klP5JYVzZO8cEuFvEurN1FmKR+m84ckmzSPhVb7qSd4CJO75WrFoVlX4pk+IMpQLPSfUn6dgOW/mDg/K4Qm8yXf9yHsGJFLdulIOHq8WBVltXMXdqeTJe4A+NnN8JjbngqvhQaALAUCmz0VZNnd2VTh0lWwxFojyPGxsliGPry7nzRyYy8PMjTky10DmAUBSoj3hgtliqF4XjYQiolwPCG0zW5I/5qhX7IJ5t37zrg/E3r3wOuYSyDQASMao48XnZ0WXhgQwoatqwgWfkX+/KPSYqe9FKP6g0PuZjA1Lin163zyzxbzDY/qdYu92Fe/KOweyCwAy80UnwgVzouHQtfKl/qz8WyIK+hWh+4WeFHreRB83moC+YaH3hD4U+sh89S+Ynz80fxs21zaae583YzHmV2LP0M+6lmcHMkgv/Q8ZeKFBAafmfgAAAABJRU5ErkJggg==;" parent="mEXFG2sUmQ1XzkrOF1mA-1" vertex="1"><mxGeometry x="490" y="906.1700000000001" width="20" height="20" as="geometry"/></mxCell><mxCell id="mEXFG2sUmQ1XzkrOF1mA-53" value="" style="rounded=1;whiteSpace=wrap;html=1;shadow=1;glass=0;labelBackgroundColor=none;labelBorderColor=none;sketch=0;strokeColor=#666666;fillColor=#f5f5f5;align=center;fontColor=#333333;" parent="mEXFG2sUmQ1XzkrOF1mA-1" vertex="1"><mxGeometry x="715" y="906.1700000000001" width="130" height="60" as="geometry"/></mxCell><mxCell id="mEXFG2sUmQ1XzkrOF1mA-54" value="" style="shape=image;verticalLabelPosition=bottom;labelBackgroundColor=default;verticalAlign=top;aspect=fixed;imageAspect=0;image=data:image/png,iVBORw0KGgoAAAANSUhEUgAAASwAAACoCAMAAABt9SM9AAAABGdBTUEAALGPC/xhBQAAAAFzUkdCAK7OHOkAAADqUExURTQ6PnPGzzmyiM8YW+CjKx6NdBEdIiApLbwfJSkxNDUgNWKBN+rr6vv6+hchJS41Odzd2xokKQsYHqqrrM/P0M0AT7i5uWPByu/v78PExCqvgt+fGWRnaYOGhouNjk1RU3d5e96bAJiZmuSnKjpAQy2gfmlxb67b1xmsfV2xkdyCmL7i3ssARebs77sVJerKmtZYfVR+OFRYW87o3evCzOrDvYXJrm+4tOCoReO3cQAKEWF8JToHLYPL0vLk0cxnJJ4bTNuVKjYUMWEcPLiXMMIcOEmnnYiKNDl7ZJjT2WqIRM4sYiNXSUdwTBoExFMAAABOdFJOU8iNw+HQ3Ofa29LaxRcF4s0l3+xWMf9InBA90eCbfXWxif9o0cLPllLgon5C/x/jZKbEqjI+SnuQuI7/1e99L9be0eTdzN21yMNouc/XAIBuP6oAAAxqSURBVHja7JxrQ9vGEoZlINos6C5ZlkCyjfENG3NxIAUSkjRt2qSt///fOZJlWXtfiUJOUna+YrHS43lnZ2ZH1lbKapumEChYCpaCpWApWAqWQqBgKVgKloKlYClYCoGCpWApWAqWgqVgKQQKloKlYClYCpaCpRAoWAqWgqVgKVgKlkKgYClYCpaCpWApWAqBgqVgKVgK1r+0yMgt+j6LmbUX+xFhBVC3ctO9wfMv5tjlYt2fEha0tY3dm8++WA9uFzOeFtaHi7u7C+e5ZeGVt69ZxrPD0reLuc5TwnJuj48yO7593kcw9f8ArA/He4WdHDsKltiMklVmR6aCJbS7IwTWhYIlfATEsTJaCpYwYh1hsD4oWAK7wWFdKFi1Pes5dfgzwTINU7YZZnb8QcFaTXam0+nOhPHJ2z2WDheTVqfTmpgvEJZxeLiT2+GOIQlae3sbUq21deYvDpYx3Sltaoh1eHIcTDobUmtak5cGawc1gQ5P9n7/8+q0hVln8bJgvZkirKZvyI9eHFWkrg4ODnBYrYeXBevtIepZbxk6PNmSOjh49wvhWuaLgnWKyfCQocMtqdyeS4c/JSxCh+Y8RUgdUDpsAMsM/G5/nIz7XT82msIyg3CQjpOknw7Cmq0io1gvydeLGsFykmE3YssQh/UWI/XQaf3yDmNF6LAurMjveQBAaNs2hBBY+nIQ1IblDHqeW13seokvU3+cQh1ZT7fToDas2IM2rE4CUFjzQ7YOF5OHIkk4wGHhOuzUQ5V6YNtiL8yGrt6Pa8CKBtCC5MXASwVaNbo6gPgVWvYFdY1asMKiwQ00h4ZlThk6rBLPVusUd62/MFi1Ei3fI2+9fObqATiwjD7nWsg9l4n4l/QjOSx/exiwcS4szzoldYiSykyowzqsxq7Gte0zM2GZKee511/9kOlcvg4Fq4UyWH71J83qUrAmmA5HI4wUrUN0P+zU2bcSoInMc7iwAgBFV9oWHW/MxBWutjlm48Ia6OindVG5Mxq9evWKyKRarfEBW4edb3WSrFTMStO5sIx7TWI6+WVFGpRcIfasgYV9jyFdSJ8ipDL7g4TF0mGn8zCvlY8Gnvju7SFXhoElg2UT7ZOI3AkoHQ6EsLqYW3o+o+uQ67AklRsJi94P65LKrCe5fRDyY5YmNZhiiw0li2nAFMHqA9qvqBYNSkqqw6urv2qTorwjS5IsN0uZkIcS7IaxheUaIDPSdTzUMRJKg3mShVxihaLdkM0KhWXOv7Ve4SbQ4dXVn7/vHTcoR7ro/bvDQewYThB2e2UiZMWi1CEpnxO67ngQxqE/SHQsY7P7SIJExPYsPxt3B4M0sdxiMZiI8qwxziomk9I8Rc/2vj8IWhwdrkmdNDu3GKIaQHPQuJ8/dXX7TFhR4VrA7SIOFA7RL8CLGP9hfRH0jaoE0NwMsWsKYOFuWbHawJo/lB1PAhZLhyWp3G7rw/Koba/iFfa8oSnO4OPsemD7pLsiLgR8phPbOnFR3PMQydKwljirgCikH6p8SqbD03cVqfzcorYOoyrq2GNGeSwtd8J74NPXDSrFwFKHkYftsfQtokcyFKwe5EbCHBYKQ6jDTmuyODp53PmhYdFP1axFY8r2WFCm3hBlZTZq0ZiYsgkNZLAmGA8CVgcjVfVLywZzbR1GSBwBT9jPiivX0iM6Olqy8UccViRilcEy8ZqGrcNOa75gHrYem4+IWXD8dLDQTxePZuh07lYTVmRj+yu5vLaa47AYOswST+Sqo73H6TBB7gP2gifrlFae5Rb/1AdUUVATFp7228CgOqUTIpMidUim6He4Du/qwvIB9qX1wuhpYFW6AQWsPmzgWAgsEOKsoLGSwcJ1OBpRbarH6pBIfmzgLX2jOSwjHKT98XicDvwgYsJCQpYeNYBFVN52xOjBEzJEdDgaZUX1KXUJPvRwdPMo19p0/Oxu0ARW3HctkJctRVNZH2aXU7Cq4Gj3mhxY4MbqyFMBvtThmhTzaPqxOiSyvbJ6sdKgJiwfulSLGK1rClhIQkcU141gsUBnqcM3WoclqbxfSunwmq1D83o2m90IRdljtpigNQxrwHI0IGskBGRCN3g8LA2kLFi4a3VapyOsu1xLh+bN5Vk7t7OZ6M76FqcDb0sPLHxP2qUpYDkuowB6BCxND1nnhosOlnga+LmFXIdrUrsba1+KU0iOe+h9MayupX1vWJpnsA5ZzW+dznrMqkg8iRMxkQ5PTn79+Lq9JbWmNROHeQiYfTm4rUtYsHxdqwvrqWRId1/LFo25mM8X7JkHvg7XpM7PX5/tYnYmOW2Nlx6LF+zxYRke2TgsOoeQAQupq/5NgGdVGqyZ0jeHMh2eVKQy+4LDkrjW+lA68ejjmvLRGLCWNhrgQBoGjuE4sd8HFtQEqcOyOSwbjROuL4VF6pCa6rs5qkjlhsPa/btOihqngEwENjGChuWgmeMwxs7zfWFSajaFBZPQ4nVo2LBkOrz+eF6RyozQYbtm3uV0AabHjWvRsFIo2NCF5U7cEFber8VO7IApg0XqEPt+rmft9pfXmH1p7lnbriV6ZxYHFhBFIQoWWkgnzWCBMXkMBZcyWHwd5qSyve8Mh/W6YcziHpI7TFhIzwXUKKSR7ZBqYIthFayw1psGujJYbB1uSOVGwMJ02L5uNE3mk6qhYAWuKBegYK0kRQsXFihzvRilpccSWKQO82ImT9G3QAQ6FGelkiYJE1bVDGW0XJBOaQkLbStLswdmotEFzMkAzusoOKyRj5HaFemwvcvfgfxY3EItMu5GsFDNlbCwAwuXlZhGsmE2NGxVHUQOLGQIcPR1+P59m8gOeDpsn13yWfVc4HappA0tT0KZDMlJLANoNCx090TEVa2Y3GuRGFaE5g/bAxYOrFKHo6/2+8/7+4BktXvO0GEW0WbXkn4W1Ht4yy9CphJcToC3eN28WNdYsDDX0iDE/DEY6zZSyXAGQ7D/bPlCWGsdjr7u56Ry+0TC+kLqUEKqYmBDy05Dp3BAw3cRh/c4qYOLBGzEcY3E0piwyD4jcNM4Pys0nbBMhbfewhs5wsLWJjflwXqLkMrst12hDs/Pd2eSinA1gFhxp8Pesmeh1UpZitGwkDTTBn60aS8nuq1xYFF9xnzQNzO3KrLKTY47zIYN/UCTD2sx+4SQ2hfrMEvmP/4qPeQxqYrVtomHtQIOLGwAB+hakvSARRfjCCwT2NIehQQWHrYSDqzFLNPULtjHjKfDNamTk/VLYs068HRHZMktpInRLgozBQvbJTmwfDEsPGyBAQPWokw8f8NhMXW4JbW3J/2phxTK7r7stTFgOfw2KcINhZXtk7LRv7EEFhG2AhKWWbU8P+GwGDqsSNU5bI3vJTd/Hzym+QfHY5sJK9tmxb58H8tg4Q7tmjgscxfJp4Q6zPKpWUWqfFlTPBmSCCatNbsag2K2lQdsWu4YOekGxDFR1+N/P7D8sAgWFrasEId1ieaeXB22M1I3JvXStPw9Gqfv8bSBTrLzDixsBmEfbQySsFZOz7J5M/fmSg4LDVtgiHvWNZans3WYk7ouFrptPvRghktGi9QG2MmCec88MqA8E+qJgXVRGcPwQeJRY8sQgEGV294LOxSbsAVdzScC/CVe1NA6xBPPC/ql6TqjR3Fq5y8eFYHZhhB4CVHxZQ5YmJ4Qnqm7xRBtfpmeOuWQW2EucwrEKN6rWi9n21m+5fZjXKubyy1mg2IJ8pexNufAKCyiACR1SKboEaHD+sO4UeB3k54N7GGS+gFdTAZhYfTRfuD3l1n90hsjb5I5fmHcIRAz8NNsOQiHSZd+687ZLMZpqg6QpVBYRHcY1eHn95//oYoZQofP/SNk/39DYZHJAdiS2v9nRL2sSerw+GXBmrF0WJAiX9YswgGmw+PVi4J1TekwI/V1JHpp+jv9pNYPCIvYDttn4OtI8NI08sN2zeL7fwOW+XcbSdFvzFP+S9ObqHX8HX7I5weFlYWtvDZcp+h52jY5lPx4QUYrn4s/OtpzVi8P1moxu7zcjqSRw0dvGDnMxd3t7d3NavUSYeEm1eHLMjGsiWz4SMFCMqmpglUbFqFDJcP6OjycK1jCBtRU+PtjChZm86kwc1CwcCFO/9feHRMBAMJAEDQABqIgDGV0xL8dLKRm9uqv1sCzGmN1nYyIPKthDTarbm1UrmRgwYIFC5ZgwYIFCxYswYIFCxYsWIIFCxYsWLAECxYsWLBgCRYsWLBgwRIsWLBgwfq2B7L/Iknhl18oAAAAAElFTkSuQmCC;" parent="mEXFG2sUmQ1XzkrOF1mA-1" vertex="1"><mxGeometry x="744.29" y="916.1700000000001" width="71.43" height="40" as="geometry"/></mxCell><mxCell id="C-EEUxcw7qsWDY_6hw8K-5" style="rounded=0;orthogonalLoop=1;jettySize=auto;html=1;fontColor=default;startArrow=classic;startFill=1;endArrow=none;endFill=0;exitX=-0.002;exitY=0.688;exitDx=0;exitDy=0;exitPerimeter=0;entryX=0.998;entryY=0.767;entryDx=0;entryDy=0;entryPerimeter=0;" parent="mEXFG2sUmQ1XzkrOF1mA-1" source="mEXFG2sUmQ1XzkrOF1mA-28" target="01Let86RBlpvGtF0hyK3-11" edge="1"><mxGeometry relative="1" as="geometry"><mxPoint x="70" y="578" as="targetPoint"/><mxPoint x="310" y="578" as="sourcePoint"/></mxGeometry></mxCell><mxCell id="01Let86RBlpvGtF0hyK3-29" value="5 - Access resource" style="edgeLabel;html=1;align=center;verticalAlign=middle;resizable=0;points=[];labelBorderColor=default;" parent="C-EEUxcw7qsWDY_6hw8K-5" vertex="1" connectable="0"><mxGeometry x="0.0957" y="-1" relative="1" as="geometry"><mxPoint x="-9" as="offset"/></mxGeometry></mxCell><mxCell id="C-EEUxcw7qsWDY_6hw8K-8" value="SessionId &amp;lt;=&amp;gt; OAuth2 Access token" style="rounded=1;whiteSpace=wrap;html=1;labelBorderColor=none;fontSize=10;fillColor=#EAFFE9;strokeColor=#82b366;" parent="mEXFG2sUmQ1XzkrOF1mA-1" vertex="1"><mxGeometry x="362" y="600" width="110" height="27.5" as="geometry"/></mxCell><mxCell id="C-EEUxcw7qsWDY_6hw8K-9" value="" style="shape=image;verticalLabelPosition=bottom;labelBackgroundColor=default;verticalAlign=top;aspect=fixed;imageAspect=0;image=data:image/webp,UklGRsIYAABXRUJQVlA4TLYYAAAvK8FKEIcgEEjy11lxiGmbH4FACje4RA2O4aAl2VbcWjKNACEaz3+478I5m3MQrqiviP7DAgCkakR6tc4584GAoNXn53/yzXnvQ/rbov+3/UcB69Nd6hfZWsnpcv8dwFyp9O/yVnNw/wH+d9ev3NafaH94e48PVhRl3hqGCm73k78f2Xjrk4J3APq80l36jz9xPUzYexkJGp+eTp/4oUjApkb/z8uRMZH+V/a/kXLLVEY/QbxeXjdVvDX8PPCFPGOUyvjuRNTB/LYjEtPtgWV7+l3xEEeP3wDVdiLAbyJO8lwH8yadZ2jzgf89MFfAngbcttlBsT/mRxpztOFB+kXfyhv2l6H9mi9dfesmamakcpvf0peUCjDnOaXLixWd9zHdACvfyu/4TXv946Mktlru6Bfqo7vSU2SERXfwZxcdym69pIut2z5mVq4mIow8bm8MiA5lBYl+bAoha6Y92JOLDlspKSVPDHPYIQkpJVSSWFJuWH0vd0rhL8VuGkAZR1ByqWcWRtoIZFf2bn08JKSnLiKFO60n3vjQ+eTmo50woSD5ewmyqeEuENqL3shddkG+nuypwudO520bf8DKFvGDgLAcJE0tiBZGlnAkgRgjOjR1YhAUxNnKJ64+tiFGGNmSOQuExokO7eijqOCQEWezHdMTBC9gzIC/dDrqRL/tiY7qKCF1XTYOEypWe81FIpMu150aunb4TPVshzi4Gt3fkV4qVx1ZEoUXRl9MomR5uTwP6RG5coJofCGx0ewl4w9lHR9e/+qkdDZPDsiZHl/PkJMiZM4vZidR2ci2vYYbpJtwpNwU9RHY+tgJYbuGN6kLNmt7U2kUyefAuo+de6jntV+yhWhTGt7mjnWOMsGLF3V8NP1699lkAJ8ljlTGFn2mDsQc1/e996QphJAV8GU9zTeR2ZcaS1K8kONwSnrrSd/Hyw1c5rfxv+v4cWF40nl2MwuJLk7IgdjqftnIGdiMTBXxsXNdqfPXnzSn1CXxRimD3ip7kK2I8+BVV/umYMRZBp7RCxHM2f1JgBiJrZSQO3lPHKzSeTdCiRNcX38N1eIqWifycPFGSDug9a/qRpGDHJGDZgTaFsNLfEdxTRgZqsWuZMetMhUTbWAojs+vYNDhiuRHtLSU4P7db4PkTRDizjBfn9/iG1Bt7VACQUIXcM8At8ddR0VSeUyveYWvBq0iN0rp/xPUvmAr0aGICm1l8Q0u4BR3hmlf92+M5D1byxecU90sVLbtfYYT1JgLniSib9v6Ewz2exWj4ke3u8dbmHv5mQX91wIrO7nJ7e7RQIFVB3/z1vMFROAX3KYy6oUO/h4SxMjt3781UsDkR9occ5v8qOwFXWMgSG7fXvj1ig1IpgElfF7kzMLlGDoQGb7dPr+xHnvyyvscvOI0p9+BzcJRYVlgYNKkwU2hKv9xL406fmwkR0k9QaB3uyIE2QzyQl91zYXnMjdmFvprv2YYBNTCXBRlQarV7V6xL1yJmaqKL1yLM/nNMTiuY2vRjI0urtS+rWIYW8jCJUZfWExuXxsJIVBgGlhP4ymzgNXunQLxtYGlA4ij7Ahxy8u3e8owgrzslYgQlTZc28C9cH2fgRgBBs3iAei6YnhtGKBJ8nTfLuMfI5OJYmRs4J6M49VRYFpWbWXU4tnk3FAjHNhssCPzfm6BGFGjDxaNYOo+p+6Va3sgZRB3Bj+RttzBimx96nF2OVeXDaGYUYAzbIhuQF2zCo27nKrwOTOfvQ1Lfx/FGTnzqrIH2xBhqid2QjfgWB7hcFKfOQoU4zd9Vh2M0RKacTxBfDpHaMuhEcYdlACuFRLlOpqfRrpAMrRYgMrQ/4pleV2ebypH81iPG0j+C5M9JF2xBqi2QdLfnLXECV2l5SDIV7rV3mew232m3p2mfA/meMqrU3onbJKy9t5i+l5+TBLjj+b4WjtVtIT8glXeg/peY5IYf0rnx7IJHemere6/76GAgWD9mpNE++M5bmdA/a9HMxLTub2bTcbmJNH+gI7ZRaptRvLfmrvIcVWB1PdKw570R3T0rtH6X4ap600JGkO4JULCMu0fkp47q/OE7MMUNopLfuSNSfDFakpZipT0lD+ta1Stvae6zlRLtZgbq4FnyEs5rR/ZaaCGhc5EH7UiNgOCZXyCanr6nnSrZBV7ODlfoDNbK7Sl7RADg3oJ4c9pHd4jBrIRK8kWH9o7hlaMk87OabdM1dqbpVZvKiO9Dq8QKN8cQxp3Mwmqz+uIWtsBo1ACL2SdzwZUuyPoX3NcT1U7lia5R0dUQJ3PrCdRoxtp3yNvfs7VgqhKzsXnNL4dGGVOOnQdR9rODN3NZWJB1xS0KsLwefLFYAiUtFQ5cOSmDyWBuVv4y3NdLf88MV4HhA7fc2+FoEkQF8cvW1n4iy8a9r9UBzXEfvDtntDhhRmFjlkuCNMl+Ep7muP1f8oVR9/CTJNAbphP5xGPtRVA35JqNMQAyLkjiJA8MY4atuKRPhSfCyGFm+I+Dx6BZcQ+jPxBPNIOq7NMGNefr75KKP5OvCPugiRjtVCseagMx4uhiegzxoEhYlorQdYLs1cBL9WxczpfIO9kEodlLNFXVkFIRJ+Ofc4nJEW6SBjsI0WDCcJYYR9URtuPKHZ95JApKLIXlgd1XIv3jNSck1XAvsDGLEoFO1yj0x1U2CMoRwNbsyjbvmBykM4pRPx0OUQBjl1LfkwLHVA9GzC4/ZHEFAtW41LnYE7MHFHOI9/y4oI14y10Dh9wCgf1Hy8HBa2LUqfSSjnnE3piE0wslvcQDkWtrVYKs53Uf4pCpEii0zr5u4Jr7fF+iOkEbkHuYinzLQgAfjnwf26W7BdsBTiSE1A/aTMc9z89KDY+s0S/ehxmnmTQTjwts9AQVNVVP6Z5xrm2bsni0Vpfjkb5Gt1sciDfXobgYdmSJYAQzhZMmQ8sYG/RBhFaW9yXT4LgaANGxeLqkIIRgz3rWCvT2t6jkM519sLl76JYFoXPaEa1th8gAaTxsSiUFc5aNKcSCOMuLO0nOORPPBSRqtwHdgO1hVn7d2k/wRF/ongBaxO9XxgA3NFqwSiUsx7pTORhIfjbQQwFlR4QDjJmu7yGg2ZmZQQoAwL0kgIBZ9u3aITU/IR3ANB6plCv0T4EHGzfBVfA78LdEwoJHBUf+mwKhPevnuZ1gy9i7Ln7A1IvHjQ5ICAD8wedIN4nSuvaZsGS7yzV7ykJzwNFTI2UA/zCIO94OWFXS7pWrXO0OdEhhY4FkkVzkMkBCbzl476hSnnS2satdSGtlywZbOg6QPhw2r+86v31B+ze7Pih7L9cr5eENETCyTfovhb4nMkUFt6gdru+4favWGNJ8gNrYk9Lwxz/cUjjRULnVHKMasRvXm5WEG5iVgcI+zXu46jhymAJdgIAfXjpWqBdMC+meQ5AuNmPhaECacgjEZi24h5fBEWwf5+bLVksaQLAKIHj4wmSkJrUIG202MmZ4DuzlmSCE9MsItdvGCZRniONleN67xqNtyCw8xwUplQ4o4Q0iTzIJAba+lwd3rMunFckgv0syiArKdeJMIVyc5DGij73y30DeMPZ4FSBsXaZiguMlBpEoRhRjgvbINgryJNHk2GIhKU6ybIzuDDQ/7EcFIa7N/q/9i/YC85lTYYhMRIez0IhCeQ4Uy40EcwYW/sT+k+5VIHgokihBdiN3KSMjar7NOrwJ/S+fzShUGaGcznw6UfIGBKn0oaQ1wH9p2VlIKokVA5mCEiG5Dn4wIizddnOl/j4vTaANPEMnSuHKSFAcX2IbjfRIqN0sh+a+Zqmy7R3UnhIlMMC8QYQRGViwPThLSz680268CXZcagcMvHFAAxUXkMRZyo9t6pRwLbAZ5RRBnqGB457YjpkTh+HagSO5FXLuQIRkoX8UQZ65pDnr/YCdbYRlTUjEqdR7KYO12vOfa02GJI9byMnCEZVVvQm6kcbymd3IJpsVlf98iw3xrH/dg3SBFEdXhKj6/DeSwPNQ0INw8/gWRw9gdWG/JJA7e8C9YGzS6s4fBEwc1K1wb4mULf7QED1wDoDiC0CjRHakf7PyOT3AYt2hWUNMofmThZLWFLoDqLAWSJaCCIB4IJ0H2Xo7/BrFihJBe7vUOgQJBzYAeBzhXZ9YEm2Aj/kmCTMiUnacL3CL85e/ogCk8VRGNzQJ2jDK/xqVSgqcGn8SSPHoQvlLf5ZEju+5fQztl5dSC/w60KBrwq0ha8FHDrXK1QV8C+5W0C3VIiywKU14HRdI4FLatflF8zuvyoxMnypQJzsN9b40IBSj36G84RMIuRQUoG6xIfC8o08wT3DaUKaLDMy9WiAheUbBJZ5EKiTdng7FJh5vUezkQ2CY22HPIIKiTbyIOU3Lp9yJPAdGplSn8aC1piviDyWgYKkaVRYUYR7X4hi/EgQBnKwbRgtAi6hUjq8QDZUWn88HYSsM0VuEC8rwDQxLFJniZTw43CzIsE0V7Ee5G2DCY53NgUYWzBUDg/VPhkkSvTItL1LOsVpczMqdzv9p1JdxzUKoy3fxSaqGAMkqqWmSY2HAN/EWotCVhVq+QtO9ZKsxKTqJUDG0IZoXkUrZ8ezwoqcVR4mvRGI0HVkBU+YKRqjeulPwC+ELqybYaWROrWABzSoHWgjqTlLyXRUZpUa9/4xSVfE1ViiBrFQaEPzwnaxhVGbgLpmirR7u2KOpemOLnRBTRoYc0TPis4qP5QWyfLj9L3MH7w6KpO6gh6Zlxezk9YtQFQDwY1ZJNA4lTIlqhrQ9juSvcO1LC7j45YIRawYv4axSCBhLD86cNH5xy5HOkYfVj6L5mX8SNqEad6V64wdQsZQpkRZBe4t8KMSw6aRTexajoWByuVhm0bW2KpPJT29cgz3IhsRcdN0m+77vHoojfw4+1eu/Cuj5cQOKIf3qaha5Fasivlsuy9jsTSi36AhTIJ4wI4R6X7GORO8kuKl6h0bg0ZXm+4pPd4wQ6KBX6fHzJnAkjWEKZF9k02ZS1hnX0V7qKIhtyqDeJeGAhQJXWh1BpJcnvtwNa2TBcUv8fu060kWv2ogqWlZdwC4peyglESatZiXca9baH5JPJMHnnzZslaZwsLPVtZ0LeVqL/wx/QGvqqOnfSkXti2hW2nllUeFAh3pIBaQSX/oaTVI4HuzvKm5hvGRfiQW/W+pifg6sed7ill2CCEXT/U+G83rDWexXf6u3h0SOx06gafYPSfOfjCBQKZgp8knH8PHl0oVq2jjLYPvHmge4wTBr9yTigXB6k/TOj+CTqbv8n3DEMrL7KYPCA9Ino7dNQRbLMlaJMuGeXyYN/luQLAw9hoR6wzqLapm6acUgG5v/kV+LAcM6KmAkITFGQDEoNJofVHDrJeeeoXmHoJZloazJI0A6R0sBozKd10p/kNN1xAVhISK/4iZdEH4BFFv6PSKz8h1bTC+pCVcgGCebXllHKGNkBXHGLrRwhpN+YEojPLi6R6CPuXZP1ndwi6N+jqKgwxBBWs0/QfHuDTP4plcFvfzpPIgfIrkXpjOqfelaoZG9F26YEEYY/GLUpTkQbB6dWOt/0h/StKvP/reYMMulhPQoJU2oGlLamzn7g9xF1SPcA3OEfuVZctLPyQa1YIwbR8o6dpFkfxauzNh9eVHm4AoKy9pjNxKDcnwBG7Y5X82QGe2GeW60aqOr/1h1GTCdTG1Pbk/GRDPdpXhDsxT8F4IH1hIJrnZJB9Fahg0zaQO9FGpM8vkURV6vJo6zs0c/d9mKXGk9z5RT/24D0QMxMa/KgxyyhT5qAsA4qyTnCWTX6n2SYX4LudbsRvLe8ExintBCcJLIWl3yuVKVwrCw9/BaJIF4q+LL1dlnyMu2Y13npegflkzqsNYZWAr/d2/BwQsezOj4icS4XPkxZJ30dK+hCfBwjtx+1tgIXO7sApIxbvq+nvA4RJwQWHCg2uMxKFZ/ApoaKxZ3PI5zeam4Mf0IyA3kCKL8iprfiZ6wI85/oZf8+DnS2EqSLNAIaZBIvD8AOgOvLcl1zW0+ypBImIfL/MDwoQP9tl2gUkt4LHv0WEfP+78gT7jZyz2vmTwtTJEyZUsowcVTh/IjMs4Yb4+60aXYBMHHtCFtCzKZw9kx3G0BD5JThMzEmdtFDLkyljcpp4c/KypC/3Xatwo29g7IY66OtPPzk8Vngc1ZcriKG9pQqDcyjryFtPcuWMgli5Ejv9yWtCMkF/kyDCOsdw+dgSVuo1DzBvCKEc60kqlnky1I67iPnTswLK+TE0MgtNgAZZBROdBukpNDnBkPoGyPoc8MReGxsdEzoYSucBuvLgjy36A0K5PnkSgGh8bkQSirVAaiWd24YPchqSfPGNYrvLRT46zG7ypC7H9sJ7tFamesTna5EBha2QdToQ9HK9B7Y7qMpJtn8xICL3G3LVIMwiM8e4zVIjZndYz9x9tCmNSwnGn8rxoIidxItLBWY+Gc3oGzdMq05nNaukNsutwlSj62Sr5sO5h2un0oywZlnQWBmBrLd1OGkEphrO6auh9oSax7P6DEBZagRvDyI+hgCSFg3pKAdw1dv4SSDdcQdKIqGQXyycpnNCz+8TfVBQ1jcYuO+IO0C8+SeF4nq2ztkBTLYVpsnvtHRLqiWySwuk8t48dmj/B9HGiIv0dEqp/2SSFs3lu38H7z0nTFCnKu7hichOP6LKh6ywzKQ6315/csGGKdXG8Uj5JoR9QYfBemJSKsGRR393oo40AxLXrx/N25U6Z3BbzixZyOAWru+50LoEKxtnA+asN7ouiD5O/2OPS1qNpoV5LD2MTN5lU7V64A8UG3TaBOYvrF2aGlnZ+ICLTFyY6StDjHZt8Eu+wBzwGc/DZZnLRazqFGiUgB/c5yDmLPSLx0m3nbbKw4Io0idJpaudhSh/Dz8y4QIxYqslucurrYcVD8uAsv3gTWfPQBbd8T617nFrAuBmceMa+P/oegDksV/LuZta/3iTCstLjROKXsjtD9G26ejI/noU6G1QfzU36GfLCWBlCY+97Jr4VyEFBRz8duF+oZW7EbPutbxYWGIrrzzice/Y7398dhwmVxEgTqrcLnUDabKH5kZFa7Lz8wzzQoykvJnw9/TiPhiAhFlrqs+XCXd2tEkWWtCjL1ye9lJqjZ9qd7qfjWjj3bHoTFnlwdoHuQ55ptef7haFyJK/7tst0G69culsE1eCohrhQlw8h5SgBotvwFaH3dRKGfiaUEzwuLU+3Lfiw6T1vdc6t5YKN9d13swdR8O/xAi8eoU792wlO9HyBdNuS39fBONjOGfH2Ey1fKMZKS/6F7sI7MhOe/pofTA7DhWggU2a/t4Ov7V4ikHwqL4g3GJgcRZ8bse7p4au7UR6rLL0VlY2jXZo4L4zNbLWmvWCR1GLA9OS1R9jftcl7BfY5vuM1JdBynubADImLi4HtKSBb9wnNt+7e9XYSEiicDUKv3OCrOSdULzeVerNWmaAp2Sh9L/O2t6FTLI+VJLSBUqckNNaHlAV/pZeSkv+zo5v9Y0X4G7R+5e09MlbbIy4EWfsN5P0YOe9jSukp/zaizFoZtjuldBE3bkkeFS/GCkJjzPGdL8mjOA15gc2KL5HEEEftkun6OuPNdLa5176VoGQw4YrcweO3fSNND5IBvjHBXnayYF3gbFYqcKAwl77LX8Ejg3jLviyPF57klThIo1CRA9kXCxKqwBFy8cxVQmffFiWB3/n88cIvxaYEuVcVU66Phrf5DO/OyFcgl40kj2eSyItQMaSQJPuPpAeOejrHS5tpwQg75AUBRIu9Tx35lWcc6cdRrR2+teOSsz07WiZ1y/UVnX4fMfiL5ylBWFyFjHgPOiVnOGAzOQtXIBMqcGez3NvT6bcTVKyl/JW/pzni6813eNlJt/hrIXF3o+XP8a4666kQ12uGub/po8NsoTCi0dkodIOJzavofODmmZgYWgjc01GOwAHJ3lU4PuQtTDxWZbWZyg1PHmsLz4pen8SifqgM8UleKmgE2kOLrwyv+9KUWknRL/ySG+RBXeROutPCXWKPQqV62LceRb3QooaNWwyCHWLL/5LR8BVVDDmMAk3HT22T7AhpRe/+vsbitE1J1pq8odKelWS2JfnPeTd7ya5RVx/wftV9lF0ituZ4wP/pjhpVibeKZX0UeR829dRhMdFeuxMhny458WuASPXS/prRI4Ew6wQkQ/4TTqYtmearceuZ/4KTdVthjJ+FrOc+u2petdkRtZ75T9ggkWg02x216/N7Nl/2YqJDpe76/DdtFyXw89qNIzVy7emftQXioCWrKhjgjn7YQcEE1cLStZ94hBkS1iRLjlladNjCOY/00ZzC453YixNn+88P3a4s+ewe7mKXOaxxy/CnFUb28vzxptR2JeiODOq9JcF7SmGkuEhsT9HhYYWRrxYdHloYuRi03NF9/lts3qf0MLL/YWAgePP533v7AA==;" parent="mEXFG2sUmQ1XzkrOF1mA-1" vertex="1"><mxGeometry x="335" y="502.5" width="30" height="30" as="geometry"/></mxCell><mxCell id="C-EEUxcw7qsWDY_6hw8K-10" value="" style="shape=image;verticalLabelPosition=bottom;labelBackgroundColor=default;verticalAlign=top;aspect=fixed;imageAspect=0;image=data:image/webp,UklGRsIYAABXRUJQVlA4TLYYAAAvK8FKEIcgEEjy11lxiGmbH4FACje4RA2O4aAl2VbcWjKNACEaz3+478I5m3MQrqiviP7DAgCkakR6tc4584GAoNXn53/yzXnvQ/rbov+3/UcB69Nd6hfZWsnpcv8dwFyp9O/yVnNw/wH+d9ev3NafaH94e48PVhRl3hqGCm73k78f2Xjrk4J3APq80l36jz9xPUzYexkJGp+eTp/4oUjApkb/z8uRMZH+V/a/kXLLVEY/QbxeXjdVvDX8PPCFPGOUyvjuRNTB/LYjEtPtgWV7+l3xEEeP3wDVdiLAbyJO8lwH8yadZ2jzgf89MFfAngbcttlBsT/mRxpztOFB+kXfyhv2l6H9mi9dfesmamakcpvf0peUCjDnOaXLixWd9zHdACvfyu/4TXv946Mktlru6Bfqo7vSU2SERXfwZxcdym69pIut2z5mVq4mIow8bm8MiA5lBYl+bAoha6Y92JOLDlspKSVPDHPYIQkpJVSSWFJuWH0vd0rhL8VuGkAZR1ByqWcWRtoIZFf2bn08JKSnLiKFO60n3vjQ+eTmo50woSD5ewmyqeEuENqL3shddkG+nuypwudO520bf8DKFvGDgLAcJE0tiBZGlnAkgRgjOjR1YhAUxNnKJ64+tiFGGNmSOQuExokO7eijqOCQEWezHdMTBC9gzIC/dDrqRL/tiY7qKCF1XTYOEypWe81FIpMu150aunb4TPVshzi4Gt3fkV4qVx1ZEoUXRl9MomR5uTwP6RG5coJofCGx0ewl4w9lHR9e/+qkdDZPDsiZHl/PkJMiZM4vZidR2ci2vYYbpJtwpNwU9RHY+tgJYbuGN6kLNmt7U2kUyefAuo+de6jntV+yhWhTGt7mjnWOMsGLF3V8NP1699lkAJ8ljlTGFn2mDsQc1/e996QphJAV8GU9zTeR2ZcaS1K8kONwSnrrSd/Hyw1c5rfxv+v4cWF40nl2MwuJLk7IgdjqftnIGdiMTBXxsXNdqfPXnzSn1CXxRimD3ip7kK2I8+BVV/umYMRZBp7RCxHM2f1JgBiJrZSQO3lPHKzSeTdCiRNcX38N1eIqWifycPFGSDug9a/qRpGDHJGDZgTaFsNLfEdxTRgZqsWuZMetMhUTbWAojs+vYNDhiuRHtLSU4P7db4PkTRDizjBfn9/iG1Bt7VACQUIXcM8At8ddR0VSeUyveYWvBq0iN0rp/xPUvmAr0aGICm1l8Q0u4BR3hmlf92+M5D1byxecU90sVLbtfYYT1JgLniSib9v6Ewz2exWj4ke3u8dbmHv5mQX91wIrO7nJ7e7RQIFVB3/z1vMFROAX3KYy6oUO/h4SxMjt3781UsDkR9occ5v8qOwFXWMgSG7fXvj1ig1IpgElfF7kzMLlGDoQGb7dPr+xHnvyyvscvOI0p9+BzcJRYVlgYNKkwU2hKv9xL406fmwkR0k9QaB3uyIE2QzyQl91zYXnMjdmFvprv2YYBNTCXBRlQarV7V6xL1yJmaqKL1yLM/nNMTiuY2vRjI0urtS+rWIYW8jCJUZfWExuXxsJIVBgGlhP4ymzgNXunQLxtYGlA4ij7Ahxy8u3e8owgrzslYgQlTZc28C9cH2fgRgBBs3iAei6YnhtGKBJ8nTfLuMfI5OJYmRs4J6M49VRYFpWbWXU4tnk3FAjHNhssCPzfm6BGFGjDxaNYOo+p+6Va3sgZRB3Bj+RttzBimx96nF2OVeXDaGYUYAzbIhuQF2zCo27nKrwOTOfvQ1Lfx/FGTnzqrIH2xBhqid2QjfgWB7hcFKfOQoU4zd9Vh2M0RKacTxBfDpHaMuhEcYdlACuFRLlOpqfRrpAMrRYgMrQ/4pleV2ebypH81iPG0j+C5M9JF2xBqi2QdLfnLXECV2l5SDIV7rV3mew232m3p2mfA/meMqrU3onbJKy9t5i+l5+TBLjj+b4WjtVtIT8glXeg/peY5IYf0rnx7IJHemere6/76GAgWD9mpNE++M5bmdA/a9HMxLTub2bTcbmJNH+gI7ZRaptRvLfmrvIcVWB1PdKw570R3T0rtH6X4ap600JGkO4JULCMu0fkp47q/OE7MMUNopLfuSNSfDFakpZipT0lD+ta1Stvae6zlRLtZgbq4FnyEs5rR/ZaaCGhc5EH7UiNgOCZXyCanr6nnSrZBV7ODlfoDNbK7Sl7RADg3oJ4c9pHd4jBrIRK8kWH9o7hlaMk87OabdM1dqbpVZvKiO9Dq8QKN8cQxp3Mwmqz+uIWtsBo1ACL2SdzwZUuyPoX3NcT1U7lia5R0dUQJ3PrCdRoxtp3yNvfs7VgqhKzsXnNL4dGGVOOnQdR9rODN3NZWJB1xS0KsLwefLFYAiUtFQ5cOSmDyWBuVv4y3NdLf88MV4HhA7fc2+FoEkQF8cvW1n4iy8a9r9UBzXEfvDtntDhhRmFjlkuCNMl+Ep7muP1f8oVR9/CTJNAbphP5xGPtRVA35JqNMQAyLkjiJA8MY4atuKRPhSfCyGFm+I+Dx6BZcQ+jPxBPNIOq7NMGNefr75KKP5OvCPugiRjtVCseagMx4uhiegzxoEhYlorQdYLs1cBL9WxczpfIO9kEodlLNFXVkFIRJ+Ofc4nJEW6SBjsI0WDCcJYYR9URtuPKHZ95JApKLIXlgd1XIv3jNSck1XAvsDGLEoFO1yj0x1U2CMoRwNbsyjbvmBykM4pRPx0OUQBjl1LfkwLHVA9GzC4/ZHEFAtW41LnYE7MHFHOI9/y4oI14y10Dh9wCgf1Hy8HBa2LUqfSSjnnE3piE0wslvcQDkWtrVYKs53Uf4pCpEii0zr5u4Jr7fF+iOkEbkHuYinzLQgAfjnwf26W7BdsBTiSE1A/aTMc9z89KDY+s0S/ehxmnmTQTjwts9AQVNVVP6Z5xrm2bsni0Vpfjkb5Gt1sciDfXobgYdmSJYAQzhZMmQ8sYG/RBhFaW9yXT4LgaANGxeLqkIIRgz3rWCvT2t6jkM519sLl76JYFoXPaEa1th8gAaTxsSiUFc5aNKcSCOMuLO0nOORPPBSRqtwHdgO1hVn7d2k/wRF/ongBaxO9XxgA3NFqwSiUsx7pTORhIfjbQQwFlR4QDjJmu7yGg2ZmZQQoAwL0kgIBZ9u3aITU/IR3ANB6plCv0T4EHGzfBVfA78LdEwoJHBUf+mwKhPevnuZ1gy9i7Ln7A1IvHjQ5ICAD8wedIN4nSuvaZsGS7yzV7ykJzwNFTI2UA/zCIO94OWFXS7pWrXO0OdEhhY4FkkVzkMkBCbzl476hSnnS2satdSGtlywZbOg6QPhw2r+86v31B+ze7Pih7L9cr5eENETCyTfovhb4nMkUFt6gdru+4favWGNJ8gNrYk9Lwxz/cUjjRULnVHKMasRvXm5WEG5iVgcI+zXu46jhymAJdgIAfXjpWqBdMC+meQ5AuNmPhaECacgjEZi24h5fBEWwf5+bLVksaQLAKIHj4wmSkJrUIG202MmZ4DuzlmSCE9MsItdvGCZRniONleN67xqNtyCw8xwUplQ4o4Q0iTzIJAba+lwd3rMunFckgv0syiArKdeJMIVyc5DGij73y30DeMPZ4FSBsXaZiguMlBpEoRhRjgvbINgryJNHk2GIhKU6ybIzuDDQ/7EcFIa7N/q/9i/YC85lTYYhMRIez0IhCeQ4Uy40EcwYW/sT+k+5VIHgokihBdiN3KSMjar7NOrwJ/S+fzShUGaGcznw6UfIGBKn0oaQ1wH9p2VlIKokVA5mCEiG5Dn4wIizddnOl/j4vTaANPEMnSuHKSFAcX2IbjfRIqN0sh+a+Zqmy7R3UnhIlMMC8QYQRGViwPThLSz680268CXZcagcMvHFAAxUXkMRZyo9t6pRwLbAZ5RRBnqGB457YjpkTh+HagSO5FXLuQIRkoX8UQZ65pDnr/YCdbYRlTUjEqdR7KYO12vOfa02GJI9byMnCEZVVvQm6kcbymd3IJpsVlf98iw3xrH/dg3SBFEdXhKj6/DeSwPNQ0INw8/gWRw9gdWG/JJA7e8C9YGzS6s4fBEwc1K1wb4mULf7QED1wDoDiC0CjRHakf7PyOT3AYt2hWUNMofmThZLWFLoDqLAWSJaCCIB4IJ0H2Xo7/BrFihJBe7vUOgQJBzYAeBzhXZ9YEm2Aj/kmCTMiUnacL3CL85e/ogCk8VRGNzQJ2jDK/xqVSgqcGn8SSPHoQvlLf5ZEju+5fQztl5dSC/w60KBrwq0ha8FHDrXK1QV8C+5W0C3VIiywKU14HRdI4FLatflF8zuvyoxMnypQJzsN9b40IBSj36G84RMIuRQUoG6xIfC8o08wT3DaUKaLDMy9WiAheUbBJZ5EKiTdng7FJh5vUezkQ2CY22HPIIKiTbyIOU3Lp9yJPAdGplSn8aC1piviDyWgYKkaVRYUYR7X4hi/EgQBnKwbRgtAi6hUjq8QDZUWn88HYSsM0VuEC8rwDQxLFJniZTw43CzIsE0V7Ee5G2DCY53NgUYWzBUDg/VPhkkSvTItL1LOsVpczMqdzv9p1JdxzUKoy3fxSaqGAMkqqWmSY2HAN/EWotCVhVq+QtO9ZKsxKTqJUDG0IZoXkUrZ8ezwoqcVR4mvRGI0HVkBU+YKRqjeulPwC+ELqybYaWROrWABzSoHWgjqTlLyXRUZpUa9/4xSVfE1ViiBrFQaEPzwnaxhVGbgLpmirR7u2KOpemOLnRBTRoYc0TPis4qP5QWyfLj9L3MH7w6KpO6gh6Zlxezk9YtQFQDwY1ZJNA4lTIlqhrQ9juSvcO1LC7j45YIRawYv4axSCBhLD86cNH5xy5HOkYfVj6L5mX8SNqEad6V64wdQsZQpkRZBe4t8KMSw6aRTexajoWByuVhm0bW2KpPJT29cgz3IhsRcdN0m+77vHoojfw4+1eu/Cuj5cQOKIf3qaha5Fasivlsuy9jsTSi36AhTIJ4wI4R6X7GORO8kuKl6h0bg0ZXm+4pPd4wQ6KBX6fHzJnAkjWEKZF9k02ZS1hnX0V7qKIhtyqDeJeGAhQJXWh1BpJcnvtwNa2TBcUv8fu060kWv2ogqWlZdwC4peyglESatZiXca9baH5JPJMHnnzZslaZwsLPVtZ0LeVqL/wx/QGvqqOnfSkXti2hW2nllUeFAh3pIBaQSX/oaTVI4HuzvKm5hvGRfiQW/W+pifg6sed7ill2CCEXT/U+G83rDWexXf6u3h0SOx06gafYPSfOfjCBQKZgp8knH8PHl0oVq2jjLYPvHmge4wTBr9yTigXB6k/TOj+CTqbv8n3DEMrL7KYPCA9Ino7dNQRbLMlaJMuGeXyYN/luQLAw9hoR6wzqLapm6acUgG5v/kV+LAcM6KmAkITFGQDEoNJofVHDrJeeeoXmHoJZloazJI0A6R0sBozKd10p/kNN1xAVhISK/4iZdEH4BFFv6PSKz8h1bTC+pCVcgGCebXllHKGNkBXHGLrRwhpN+YEojPLi6R6CPuXZP1ndwi6N+jqKgwxBBWs0/QfHuDTP4plcFvfzpPIgfIrkXpjOqfelaoZG9F26YEEYY/GLUpTkQbB6dWOt/0h/StKvP/reYMMulhPQoJU2oGlLamzn7g9xF1SPcA3OEfuVZctLPyQa1YIwbR8o6dpFkfxauzNh9eVHm4AoKy9pjNxKDcnwBG7Y5X82QGe2GeW60aqOr/1h1GTCdTG1Pbk/GRDPdpXhDsxT8F4IH1hIJrnZJB9Fahg0zaQO9FGpM8vkURV6vJo6zs0c/d9mKXGk9z5RT/24D0QMxMa/KgxyyhT5qAsA4qyTnCWTX6n2SYX4LudbsRvLe8ExintBCcJLIWl3yuVKVwrCw9/BaJIF4q+LL1dlnyMu2Y13npegflkzqsNYZWAr/d2/BwQsezOj4icS4XPkxZJ30dK+hCfBwjtx+1tgIXO7sApIxbvq+nvA4RJwQWHCg2uMxKFZ/ApoaKxZ3PI5zeam4Mf0IyA3kCKL8iprfiZ6wI85/oZf8+DnS2EqSLNAIaZBIvD8AOgOvLcl1zW0+ypBImIfL/MDwoQP9tl2gUkt4LHv0WEfP+78gT7jZyz2vmTwtTJEyZUsowcVTh/IjMs4Yb4+60aXYBMHHtCFtCzKZw9kx3G0BD5JThMzEmdtFDLkyljcpp4c/KypC/3Xatwo29g7IY66OtPPzk8Vngc1ZcriKG9pQqDcyjryFtPcuWMgli5Ejv9yWtCMkF/kyDCOsdw+dgSVuo1DzBvCKEc60kqlnky1I67iPnTswLK+TE0MgtNgAZZBROdBukpNDnBkPoGyPoc8MReGxsdEzoYSucBuvLgjy36A0K5PnkSgGh8bkQSirVAaiWd24YPchqSfPGNYrvLRT46zG7ypC7H9sJ7tFamesTna5EBha2QdToQ9HK9B7Y7qMpJtn8xICL3G3LVIMwiM8e4zVIjZndYz9x9tCmNSwnGn8rxoIidxItLBWY+Gc3oGzdMq05nNaukNsutwlSj62Sr5sO5h2un0oywZlnQWBmBrLd1OGkEphrO6auh9oSax7P6DEBZagRvDyI+hgCSFg3pKAdw1dv4SSDdcQdKIqGQXyycpnNCz+8TfVBQ1jcYuO+IO0C8+SeF4nq2ztkBTLYVpsnvtHRLqiWySwuk8t48dmj/B9HGiIv0dEqp/2SSFs3lu38H7z0nTFCnKu7hichOP6LKh6ywzKQ6315/csGGKdXG8Uj5JoR9QYfBemJSKsGRR393oo40AxLXrx/N25U6Z3BbzixZyOAWru+50LoEKxtnA+asN7ouiD5O/2OPS1qNpoV5LD2MTN5lU7V64A8UG3TaBOYvrF2aGlnZ+ICLTFyY6StDjHZt8Eu+wBzwGc/DZZnLRazqFGiUgB/c5yDmLPSLx0m3nbbKw4Io0idJpaudhSh/Dz8y4QIxYqslucurrYcVD8uAsv3gTWfPQBbd8T617nFrAuBmceMa+P/oegDksV/LuZta/3iTCstLjROKXsjtD9G26ejI/noU6G1QfzU36GfLCWBlCY+97Jr4VyEFBRz8duF+oZW7EbPutbxYWGIrrzzice/Y7398dhwmVxEgTqrcLnUDabKH5kZFa7Lz8wzzQoykvJnw9/TiPhiAhFlrqs+XCXd2tEkWWtCjL1ye9lJqjZ9qd7qfjWjj3bHoTFnlwdoHuQ55ptef7haFyJK/7tst0G69culsE1eCohrhQlw8h5SgBotvwFaH3dRKGfiaUEzwuLU+3Lfiw6T1vdc6t5YKN9d13swdR8O/xAi8eoU792wlO9HyBdNuS39fBONjOGfH2Ey1fKMZKS/6F7sI7MhOe/pofTA7DhWggU2a/t4Ov7V4ikHwqL4g3GJgcRZ8bse7p4au7UR6rLL0VlY2jXZo4L4zNbLWmvWCR1GLA9OS1R9jftcl7BfY5vuM1JdBynubADImLi4HtKSBb9wnNt+7e9XYSEiicDUKv3OCrOSdULzeVerNWmaAp2Sh9L/O2t6FTLI+VJLSBUqckNNaHlAV/pZeSkv+zo5v9Y0X4G7R+5e09MlbbIy4EWfsN5P0YOe9jSukp/zaizFoZtjuldBE3bkkeFS/GCkJjzPGdL8mjOA15gc2KL5HEEEftkun6OuPNdLa5176VoGQw4YrcweO3fSNND5IBvjHBXnayYF3gbFYqcKAwl77LX8Ejg3jLviyPF57klThIo1CRA9kXCxKqwBFy8cxVQmffFiWB3/n88cIvxaYEuVcVU66Phrf5DO/OyFcgl40kj2eSyItQMaSQJPuPpAeOejrHS5tpwQg75AUBRIu9Tx35lWcc6cdRrR2+teOSsz07WiZ1y/UVnX4fMfiL5ylBWFyFjHgPOiVnOGAzOQtXIBMqcGez3NvT6bcTVKyl/JW/pzni6813eNlJt/hrIXF3o+XP8a4666kQ12uGub/po8NsoTCi0dkodIOJzavofODmmZgYWgjc01GOwAHJ3lU4PuQtTDxWZbWZyg1PHmsLz4pen8SifqgM8UleKmgE2kOLrwyv+9KUWknRL/ySG+RBXeROutPCXWKPQqV62LceRb3QooaNWwyCHWLL/5LR8BVVDDmMAk3HT22T7AhpRe/+vsbitE1J1pq8odKelWS2JfnPeTd7ya5RVx/wftV9lF0ituZ4wP/pjhpVibeKZX0UeR829dRhMdFeuxMhny458WuASPXS/prRI4Ew6wQkQ/4TTqYtmearceuZ/4KTdVthjJ+FrOc+u2petdkRtZ75T9ggkWg02x216/N7Nl/2YqJDpe76/DdtFyXw89qNIzVy7emftQXioCWrKhjgjn7YQcEE1cLStZ94hBkS1iRLjlladNjCOY/00ZzC453YixNn+88P3a4s+ewe7mKXOaxxy/CnFUb28vzxptR2JeiODOq9JcF7SmGkuEhsT9HhYYWRrxYdHloYuRi03NF9/lts3qf0MLL/YWAgePP533v7AA==;" parent="mEXFG2sUmQ1XzkrOF1mA-1" vertex="1"><mxGeometry x="680" y="320" width="30" height="30" as="geometry"/></mxCell><mxCell id="C-EEUxcw7qsWDY_6hw8K-11" value="" style="rounded=1;whiteSpace=wrap;html=1;shadow=1;glass=0;labelBackgroundColor=#FFE6CC;labelBorderColor=default;sketch=0;strokeColor=#666666;fillColor=#f5f5f5;fontColor=#333333;" parent="mEXFG2sUmQ1XzkrOF1mA-1" vertex="1"><mxGeometry x="945" y="801.6700000000001" width="70" height="60" as="geometry"/></mxCell><mxCell id="C-EEUxcw7qsWDY_6hw8K-17" value="" style="rounded=1;whiteSpace=wrap;html=1;shadow=1;glass=0;labelBackgroundColor=#FFE6CC;labelBorderColor=default;sketch=0;strokeColor=#666666;fillColor=#f5f5f5;fontColor=#333333;" parent="mEXFG2sUmQ1XzkrOF1mA-1" vertex="1"><mxGeometry x="825" y="801.6700000000001" width="70" height="60" as="geometry"/></mxCell><mxCell id="C-EEUxcw7qsWDY_6hw8K-22" value="" style="shape=image;verticalLabelPosition=bottom;labelBackgroundColor=default;verticalAlign=top;aspect=fixed;imageAspect=0;image=data:image/png,iVBORw0KGgoAAAANSUhEUgAAATYAAACjCAYAAAAAYDLtAAA1qUlEQVR4Xu19CZxUxbV39yzMMMMgA+jILmtYFBcYFkUQxKjR6FOeiGsUNYrGzwU1vkQBMRijoiZR+chDjUtwf3nun5FFEKICIjuo7LI4si8zwzBLf+dfXdVTffvevnW7e3p6ek7/fpce+tZy6l+nTp06dU6Vz8cfRoARYAQYAUaAEWAEGAFGgBFgBBgBRoARYAQYAUaAEWAEGAFGgBFgBDQE/IwGI5BMBAKBgBHP+f3+gKLLNE+i26HTkOiyuby6RcCIyeqWBC49HgQqVy8eeuS9v98T2L/1JFkOBEIN/vbnVORYylb9rX+Lv/1Na/Bt9z4kX2S6TAd6hSDyNwlkWN6HBJR436xGfx/2jl7r/8ffwTKb1ag61Xu772Daprbl16bPClFnrUu88BdkiHr9/qKd/sLiWRntx8zIyOu0IZ4+4rzJR4AFW/IxT0iN0GIO/f7yedUr3z8z49gOkWVmWWUGhI6Qd+Gf7PB0fms+/f9izAc/YekgqtQ7KbZC72sVL0qjpVPlWOr32dGo0uba0K/qy7a8U+LTDYdM2SbLSPDnBMsLVGT4/C36rszq++olLOASwrpJKcQ6uyalUq4kfgQOP3zDexBq/oJO9oVVRc5ZgaM23V0Zni5gk09UoAk1E+pD5aiVp03VfqtQQ8F2NDpVmEjujZwHggIcAq582UlVX524vvrHL88yaTunqX8EEska9d+aRkIBLT+HVC1+7UJHoeaAg63GZoqZWKkafKTiFKH5KYVKKydgEaoGpYcnsVHgPJdRbd8uaGrWT/Xac+bWlG3p6rkOzpB0BFiwJR3y+CusXDrvXL2UwJEMHx63DzQ2W63NLaPNe0fNTqbF+witDe88an6mpAUq3duvyooHg6oVV79rShOnqz8EzLmh/mjkmi0IVG/b1Meqrfnt7E82y0pbrS2a5qSX4aS1QXMy0ehM0zn0uInwDmVV2pzT0lqvQ2ltDsvRMHLKl/WhJelQZsrURoAFW2r3T8Kpi0dbsRLjqLU5LUftND87oerFzpaI5ahHlAP73x3lMQsnTzICLNiSDHgiqsts33lV4NCWsKJMl6PI5Cbcoi4zTTQzu+WoTq2HMrzglejlqJ2dDfTU7F9wnhe6OG3yEWDBlnzM464xs3uPlXaF2C5HbRLGtYngRL3DMjO0iaB2R001LAetLablqAniDpsItlnLl/WoObyntUmxnKZ+EGDBVj+4x1VrZtueq40LMHX7iFagiZ3Kml8KMLdNBuN2REuoCUtbrc3U1ijUWTOKAoe//5lZSk5VHwiwYKsP1OOsM6tjjzV2RXjSZqwFmPqzibVYFNcP02VmHG4fcbVTttt0h9hpOeqr2twzzm7k7HWIAAu2OgS3LovOaN9vp3H5sWhc1sIdyjDRyCLcPuJcjtq226lM07pQqIflaODw8mJj/Dlh0hFgwZZ0yBNTYWafoR/GU5JJFIJj+U6+aKZCpC64zq1ML8LdYDlKGwjnxIM/561bBNzYoW5r59JjRiCr60mLrDujUQvzMrDVcs2aR/0fy0iT5aibFpXI5aipUI0BcdvlaPmyLjEUxVmShAALtiQBnehqMjt2s91AcHT7sAkGd3P7MKXZZDkaKsvs1CLXqqPtACfa7cOJGAqvOsGVUE5QLwiwYKsX2OOvNLNTl3WeSjHV2OoofjNC+JlqWIl0+zDBwEMUQuDgThZsnpgweYlZsCUP64TWlNGs1V7aQPjJrlBTfzYTgky1sTqLQjAhUqUxFZZeyoySNnBwHtvZEoRloothwZZoRJNYXkabHt/YVWcahQBH3biWoyZ2NklgWFC8TrSpe4iloRDe0dw+HJejMfr12drZavYXJrG7uSoPCLBg8wBWqiXN7Nx7sdMGgonWBqHmOSjeBAQ3zSkBUQiefdncaNLbZej2wTujJsxQP2lYsNUP7gmp1Sm0yrFwExsTMtsdAKkKNS0jTCsL/ifijDYbQhN5RpvpJoJjiJmb20f5sm4J6UguJOEIsGBLOKTJKzCjoI2jk66pRmPizxZTULxN7Giyl6MRPeGgtcUThUA7ox2T1+NckykCLNhMkUrBdBVz/3mt11N0fbFoXNa2m0QhOHBWIoPiHYW3l2WnU78aLkehiKYgazR6kmrv7Gn0UKQOAFVbvzux/B9/fsRXWV4glnAtj9+cd934e2kndDf+j5MlDj8y7p+Vnzw1xLNgs1v+2dna4PYRbUmqyokWhWAj3KC1mSxJ67Q3IJht/Pps68RyNIroogtews+PqlPCuXBTBFiwmSKVxHSH779oIW0KNFdCCxsEh3es70EknAEySv864QW6yMVVqEGjcTxZ13Rgy3ZHCCQlHNSupqOAI6mAd9Cioq0PUI4sA3Y224teHPrAsZ2UHnY2v/UGqzj6UtxaJW+wymj3wBSf77dxlMZZ6woBXorWFbIxlkvaWk9dqAmNjW6iIkF2uiqS7hDtlghNzSuJJj5tJmlC9epRCHV0F4JjG2N0+0B50vWjJrP7fQ96xZDTJwcBtg8kB2dPtRyaPPZduoXqIj1TzuiHp+Rdc88D+A2XJB++f+g800L9+eWOSf3WK5UtKf35NlltuMY2nczqWEeuPVn+7Ogt8zdtE0zgcAeprZYqp/Aw7U2f1i0arO1OKe4gpbZnnnDrnzN/9shdfFO8KQcmPx0LtuRjblRjxZfvXRbYV9qKEtcgLjS7T/FCPSPZ2ZpXb9l4IhQ6JT+gTGh/68mt/Wy98V0KikCVmRiztTqhTKuDRFg9/pyA/j5W3tNvrBfk0u3zuiVM/e3mrGHSD/qN8wF/8zbbfDXNDpOtc5dJZk7DCDACjAAjwAgwAowAI8AIMAKMACPACDACjQaBWO0cjQagxtZQsu1drbVZ2bOkrak6I7Ntn6V050LELVnVJd+pOwAUT9nZuKLxmzVfKL8/v9Uetms1Nk6Mr70s2OLDL61yHxw/YGNg96LOYbsOll3RQKnPlzvuvWtyBl30KtLRJsaxpVP6fR84uPkYYci320WVBUbdgbXZIdV3RzOOv+CL7LMm3J/VceD8tAKdG1MnCLBgqxNYG16h5EJyRunDxQv8zbtXk6sDtCXlDIG/AxSFoFxsszKO67Kl2X/NOgGtLHvl/hlVXz56g7+5+G/IyVYIOd2FAqUpXzXNzSKUxi8VND0dytCiHwLlO33ZZzz5+yZn3P1Iw0OYKU4mAuygm0y0U7gu7UTeTCITESlCxNAT/H+lv4n4rtjoy2jff7ZqSkbr9huNm6WiFPR7QO3iTh3uQoD/WuXCu6dUbf1qqHGdnLBRIsAaW6PsdvtGk9Y25OjcF8dLYaYSKVsXxJHff0zzXXnXPHqTXkLpjFtfr9nw0eWh37QoAjetLew9tDY11eplWGNWm9RU5N1c4uDeyx3KCPDJBMwDCUIAtrayv16+IHCQYlpNBBvqVdEAasmqL0fF+6BMtcaNYkma+6vvemcW9VibIPK5mDRDgJeiadah9dUc7Frm/OcjN/mqN0cnIdpR4A43WNkdPlm9c8mQ+mor15v6CLBgS/0+ajAUZncfELFjaRIUb5JGBwG2tpotfJFKg2GMeiCUBVs9gJ7OVfoLR65yvEzZ4QDIiPPZDA6KrNn79ZnpjCO3LT4EWLDFhx/ntiCQdcp/zLQuR92u5gsrwnA5Gti15Hiy6+GQAP4wAhEIsGBjpkgoAv7CdkEjm5MtzeEuhAgibNJZ09TsXa+iHRLaBi6s4SPAgq3h92FKtSCrc59vEJ1g/JHLTq92NiE7927obVwPJ2xUCLBga1TdXfeNpbjO3f4Wneq+Igi2LfPOTkpFXEmDQ4AFW4PrstQmGBfO+Jt1X29djoZpZAbLzFAro0Qh0AaCuAOCP4yAFQEWbMwTCUfAf2yPr8UGgsd7DELCz/Sm+MPb2/MGQsK7Ly0KZMGWFt2YWo3IOvGc90MaWzSHXJvYUduWOJSBCIRA6Z7jUqv1TE0qIMCCLRV6Ic1oyGjVblNoA8Gj1haCwtDtgyIQeDmaZvyTiOawYEsEilxGGAKZbbrWxnDqNjKDW+htd0ejCMfA/k24b5U/jEAYAizYmCESjgBtIOyLduBkcJlqX61tFILDUlSEVv206tSEN4ALbPAIsGBr8F2Ymg3wt7l8rh1liY5CCOybMzI1EWCq6hMBFmz1iX4a153V88xZodAqj1EIEcIvintI4EAJjidvmcZQctNiQIAFWwygcRYzBDxFIGjL04jlqE11+lFGFFrFEQhmXdJoUuEIaP4wAp4QqPx+Ec5CE6dA0lFFYTfU4ze6sapX2dM//y9/Hu6F8X4hu9LYIu1tdOCzzeGTNT8sRATCAk+N4MRpjQAfDZ7W3ZvYxsEZ9vD9AzYEDm0QN1Lhg02CZo/taU0bBnvw/yMfP3PP0fd/87g/n4SafpkLXpqcrOt0qq7IbylDHhnuLzprdtPRr7GtLbHd3aBL46Vog+6+5BJfuWrhSAg1f0HXGnoq6DkihNk/H5+CbxJ8hSGhhh8M3DsiWmANinfwZwvLd+QgO+kmlxVSvjYWbCnfRalDYEZBm22BCkEP+CaHnlzY0eimqi2Kygi7mi7cTKIQ3DjSUgaiDzI6nv7/UgclpiQVEHBjo1SgkWlIEQSy+xQvzP3VM7/15bQq8bfs+h2+s8644+Xc83/zRyHtyH8tZwy9Vx8sRdVyFMtQZR+zu2/U4oQr7Gu43MV636glHV2kvCq7/y1PpAhETEaKIMA2thTpiHQiQwamK97Ct9MOQqz8p8rz4xKZdMKO28IIMAKMACPACDACjAAjwAgwAowAI8AIMAINEoFYbRwNsrFMdPIQICfdPuUzH/xv35E97S21wj6mQuDFt79pjdrEstriAv4mAbxTv4fe+5vlHabd0H9l9brsJboRflXyWsY1NQQEWLA1hF5qgDQeurdzZaBsU1Yw+kB+wnZDgzIqIrpAOeFq+/WhNGqHFBnxvma7L1BJG68n3vxazkX/9yq/X0/QAEFjkhOGAIdUJQxKLkhHoOanTVkZxzkINS0hwqdsY0Ohy1mdkeCsq8uurLaUl0K4vp1+RcV7Qqu7inuBEVDzHiPBCCQcgeyR908j4VZbbhxRCK7EkYCrWjX9yqqtXw11TcsJGgUC7KDbKLo5+Y3Mu+bRW/MeWDTU33aA7blscV+ojCZpUQj+bJ+v8sun70t+S7nGVESAbWyp2CtpRhPZ27CwDPKajZ0NP4eWo2qqVREG1qB4kVjuIViC4n1VO3xNb60NyE8zGLk5HhBgjc0DWJw0NgSyR4z/HW0khGd2usfA4chw05vi6Wy2nrFRybnSCQEWbOnUmynaluzTfv4/IYcNZWvDMjJaULxqi4OgCzXVUoY8my1FkWCykoUAC7ZkId2I6/Hnt9ojzmeL8ok8DjyKlUQ/ysii+VVvXzywEUPNTZcIsGBjVqhzBHAIJZ0Gstm4ItPlqPUuBNodDZR8dp5xPZwwbRFgwZa2XZtaDcto339WzBS5LUe1gul8tgw6XaRFzHVxxrRAgAVbWnRj6jcis/vAz0IbCA6HT5psEITS6MtRq52NNxBSnyHqmEIWbHUMMBcfRCCjVbtNoQ0E610IdiBFuXIvLLmNNlezd0Mvxr1xI8CCrXH3f9Jan9mm67pQZXFEIRhdzbd/U7ekNYwrSkkEWLClZLekH1G0gbBXuuiaN85Ga3O+SV7uotIGQs3Wf3NolTnKaZmSBVtadmtqNiqj2+W14VWx2NmcbrCyLEdrfvwQ957ypxEjwIKtEXd+spue1fPMTyMiELwQYcitOMqIzoP7mZeiOW16IWDIKunVaG5N/SDgL+y4IYaL4WuJ1TQz2yWp3B1FQHz1ziWstdVPN6dErSzYUqIbGgcR2SeeMSvMzma6HLUJvQptIjhdqFz6Y6fGgSq30g4BFmzMF0lFgE7U9eBuS6R5iUJASyAEaQOhesPsi5PaMK4spRBgwZZS3ZHexGBnlM5nmx9XK93Eoowdrdn9Td+46uHMDRoBFmwNuvsaHvHZg8c8Hyh1OFlXW3LGG4XgL2y7t+GhwxQnCgEWbIlCkssxQiBn0CWv0kkfB4wSq0QOUQgRzrpKm6MDJ/353Zd6qoMTpxUCLNjSqjsbRmNyf/3GhSZuH87OuNHbCXeP7EF3/qFhoMFU1gUCLNjqAlUuMyoC2d0HLGh656IzIdyEgHPYHQ0rxMa2FiH4iJsDFdt9md1veSur48B53A2NFwG+86Dx9n29t5yOF2pd/vqDz1Z/89xoEOPPp38yT6CI+dp7k8OWm9Y7DkLT8g+htpBQezv3smmj+Y7Reu/eeiWABVu9ws+VAwEScMdWrpp/bvX3X53rq/mxDcSbB2QC/qa5hzPb9Via2e3CN+lW+DUe8nJSRoARYAQYAUaAEWAEGAFGgBFgBBgBRoARYAQYAUaAEWAEGAFGgBFgBBgBRoARYAQYAUaAEWAEGAFGgBFgBBgBRoARYAQYAUaAEWAEGAFGgBFgBBgBRoARYAQYAUaAEWAEGAFGgBFgBBgBRoARYAQYAUaAEWAEGAFGgBFgBBgBRoARYAQYAUaAEWAEGAFGgBFgBBgBRoARYAQYAUaAEWAEGIHYEUj4nQclJSXHlZcfyQVJTZvmHsnLyy8rKGh2OHYSOScjEERg9erVfegLN73U3vZSCw542e53K3xWnkceXAsT6Nix0ybi1XLGmxHwHTp0OP+9996/6JprfvV6hw5dduflFSrGo+/8QFFR+0Mnn9zv28mT//AQMWZvhowRiAUB8Jkm1DQeCwm6uH/bvHlL+1ho4zyph0DMGhs0s+nT/3vchAl/nOTzlfpIoPmaNMkO5OQ0qZLNxE1DYhatqDiasX//T+Ln88+/cPa9945/ZMSI4XNSD466oUgOyrDCSTMorZva0rNUYAjNnyZKaFRZ9IC/cNuoVUuD9mW95QppVForz1fTu8qSkm35JNg6nnBCp9q7/NITykbRqpguTH722eduLSoqKpkw4YFJRUWFR4jZKgoK8o+QUDtCqEGw4QHDCDWffvdRGjzV8+YtPJuE2uwrr7zmDQjHdESZNNOe48ff+2SLFscBjwAGpPWhQdQhHduepDZBSOlCTQku8JwQVJL38Dv+Vg/e6XlVGWocxDQektRmrqauEKBZs9mIEefMB9OQkCqjRwg1zKKksSlBZrskoEGOPHhqIOCwTKXfyubMmXtWXdFbH+VCoAUHlWhfFbX1ID0H5PdB/E7L9n/UB20NuU4vS1HCGpod+LISPArMNUHn+DcvRRsyh8RIO7QrYpLd0m5WDmEG4aaYhjSw11944cWxixcv6Q+VHoyIb/p/v6lTnxzfs+dJ34O5aLCD4YRwo7+P4jfKd12MZKVUNlpmfyqFPrAptQo1/B/vgVFKEd5AiAFPuT1k771A9gHwF/yFFQaa6Ja3gcDAZCYKAWhqtDGwAxsDcsCWkVAS6j40FBJgnUzqIu1sOG0krFYaH5UhNDcSmsea5E/lNDR4bpPtgraAQXWgVkuAxhDUGqClpnI7GjptcgUAPsXkoibO6xt6u5j+OkCANJFZUlPDsuqQFHA/QRuLpTraIX1ADfpYy4il3rrKA02ABFY5hL1cou8DXqSJXg+hD21XPZgk6ooOLtfnw+QpJ5ijMH3gb+qHGxgbRiAMAU0TgZ3oAJaPpL1ti9fwDwZ87bXXr0gHuLXBBMGG3U4sN2MS+umAR322QesLYdOVgm1sfdLEdScfAWybO36CdrWiZ6RtCDtGVeS2kb1s2eLT6feg/0aMH9oZnRtj1pTLtnbtWuWfB9eWHFpuryku7v91yhHKBDECjQSBqIKN/NSE0ZU+2RBq5OvTgoyzvyRfn62NBB+jZh45cqSpTBg4erQyUFzcb9Hy5SzXjMBLfCI738yY/TWxAfbFF18M2bt3b0uQ2rRp07LWrVvv6tu37woaB1sSRT7MGXv27Gm1cePGriizS5cuG1q1arXHxN8RCsjWrT902LlzZ1vk7dq1y3qKothqkteEfkXbihUrTt69e/ex1P7dbdq02dGzZ8+1iagD5a9bt64X6C8tLYUjtp8Upx/79Om9KlYFKqpgIz+1iXJplUWaSB5cPS666JcfmICRyDRgLgL11GbNmh2mT/7w4cM/VaEviGYoKfnpeJv6AtG0QlqyjFiwYOHQrVu3nlBWVp6XmZlRfdxxx/04bNjQuQMHDvhSB5SWlcUAHfVTPSjX6lwcchIlJ+Xq7dt3dJBLIgyo0KAi2guIIbaTNrc4Gj7IO3/+58O/++77Xkin0TaH2j5bZya0QyvLDx9BvWyJ3SkadsgvNjCwXF65cuXJq1evOenAgQMtOnbsuHnIkDPmFxcXL4qXYRGNsnTpN/23bdvWkfDNRxu6du367WmnnbqE2jDH0oazgauiOxWct2GXe+GFv99CwstxBxua+R13/Gbq2LHXvxCtP2FyefnlV39dWFhIXgW+DOK5DgsWzBuAPOifP/xhygQy71yL1ZBeDv3206RJk6eNH3/343b9Qf132oQJkx4lXj3HWj+8D2688dczp0x5+P5owoE2//48a9acC6j8QyRgCvr2PXHJK6+8NAblQWA+9tgT9/Xu3feaH37YaONzmu+jOl68+eZfP0c8vcTrmAf/TZ/+t9uKijpcV1a2z3byGTJk2JLbbhv31BVXjJnptXzb9JqtQrh2gPHkbwkp30shcCORjC9sJsQM7cj2d4v+m/VvuJjY1SG3/qUvU34AGyH01ODR/Z2ow15QdkRES1jKDyta1gWbDgzW2EQQu3F2DzHS03Z0YdZyoE3QqNNGzP5QbTRDrY8WudRssJYNDduCXXsaaJdTmXCiDsNBr4PSjPbSR0gLmmhj6EFruRJjaxsmqTYQ3RtVHvp7vdd69fRS0KMvqmPZPICwkDhiBxtuSXBPgs8mdrsPSRce4ZuoHLAp/Xc0wYpJyIHnxI55LQ5BIU5984tgu0XoIcrX6wiVjzRw+tbLVv6S8B8FLdojNviC5qMgbxAmQ51oIzett6TPpaAjuFHo84FHFG3wXpAYYLcfj9r5L1MhlDRenjftN2yoKdcoST/whZxR7VdYHNbHEuF1oWkdjhobaQykCUAr9GWStpZNs8dOzOSmBScyHan/IjBZCtiKq6++9m2a8QbR/+E5LgKY6cHfwsO8pGRfwdVXX/UKzXQhMgDmxRdf+tFtt93am/IhIgBhN8iHmQJl+Cl6gv4WjsYVM2b84/oZM/52nZxVtiNkjN5XERYVKjzMpo0oJ4siLUiVjgw7JLqQJcK7HYOJ8J1P5eZrtCGtog11U75C/FYxadKECdOm/e3/ELMPGjVqzKYffyzpTL9Xt27dco8T7mBMoj0wbtxtMz7++INzwawFBXCUDrYd+agO+lcIvDKaId8g5hv75puvjzLR3jCwaWb/lGb2dhAGVAa0jzCNVZav2jDx6aefGU/5+t9++50lsg011Ia9Tm3w+LuaWEyD47GjOow0j8/kQAYOegSDsJ9S36Jt4DUf/Y3NomqivUOfPn3WID9pm3Bgt36EIKP2I6+PtJMm1O7ulOdDyr9fJg6FIGrlY6Kspnp9KB/RKqRBbocQmTr18bEyb6j/KJ8aB2hzJkUFlVZU5GcQTfPQP1TGOhvaaFJvItrSooWvkrTKfVAkqP+fh4DUaEM9aqyF6kHEET2VNFbGknbV5+OPPzw7Gr8Qr59KbVgKRQKCTJbvaCoguoAB+uIorRbfp0l9EvH/Q2684CjYvvpq0ZAWLfKF4CC7ke/cc0d+YsLgbhXG+D60TMGAWbVq7WnUWGhFAKQGHU80gjGyiWlyaTZ7yrKUPI3AXCLBRGcJJqJ8WchHeei/+RTv2gTMh7oEU9AgryBGX4rgfvodwtUPoKO0AR0PeqpJSDVxSKe3RQ2mudJVBAIXHwyiTJ029AVC0+iTBeFH7/PBqKANgw3pJR7WalV9iOMNfPHFouGYdWXazEOHSgmzo4KxqI5qSgNhR+1vfwAC8OKLL/mY/u844yMfBjTRgjZg5sUyV8RqEk3+/ftRFZ58lI82yEHXHjQ3kW3Yi4GFmGKHNkSB3PGVLthc82MCg1CTgxlAgz9yqR8lNseVd+rUYcOWLT90ot+Ey05QKxIhg9C4DkgB0pvatDZa30PTu/nmW1+m70PAgMrLs6ZHGmACXkD50IzGjr1xJmE9ieqBUNsHQeuQt0LyKWgTqxGq7yUqa6ANXUqoiL75/POFP//oo08uQXskBqgjx6494FkZG56B9AsWLBlIwg3KD05hifjAbETYLKV8hyUvi7qJB/OclqKacM3G3yTUJtGqwEdmsqjCzVawYYlQXDy4IzqNnioM/NNPH/w5SWVXBiEV9qry8nJ0lGIsax6rdA4b6KiT8udee+21zytbkMbsIq3scKFJEuiZZOtYR4bG5Ui3b9++wrFjr5tBM5qoV+7sfk1gHkQnyzYh6DkPWujo0aNeb9u2zY7S0jIyYH7ba+bMV0gFzyfhUQghAzAPHj16FJsDatBFM0RDo/MPHjxgwbhxNz8tG66n95ONbaeiTXY0BtN+SiukFgQUhCK1aS02IXr16rmK+qM5TTSnk6A5GwxOQhYCCOFaZUQbsI5Gk3qnYxcgZsqlfs1EzG6/fqcugX1l1qzZ58H2I4WTYKQ5cz49U86SkxyYFZoA2gBtEVpaBiYMakMG2nDDDSM+IXy3o3ysAqi8IdSGDMzy1AYMiCpqQ3NDfF35T/Id0ln5yjEv+J14YQHsUrIN1aRdE38UlUyb9pe7LrzwwvcwqStNHTz14YcfXXD33b/9M9JLIdIEWr0UIMJ+5vCBoKqmybkvTVw5hMNeMmU8eN55534Mgz/yLF68uP9dd93zzPffb+xD74VWQ9+lS5cuH3zppZd/DKyp/46h3/bReLsBNklM5KCL+GTAgw9O+iPl7Y08lDUTkzL6FREvbrYw6gtopWKFRBg079mzy3rC4EFVB34HXm+99dboiRMfnvLDDyVtaKxAwNMqpfAAbZr1JsEzgQTPZL39yEMa/WzCuFQKNbwmnLc1t7PTYYX1zjvvjKJV11RMmHLCBb8cQow6Cfj5nj0rpMMp1rlKDQzAGGzCVSSxYRi3tS95/D1UnfR3U3YI2A+EkzAx449u4UkYuJQW7diHB460oAM2BLtTN8Acyn4BgQN1mR6s/xEXK8qx4qDZ2CpgM4B9zgQr2JaUlhPUovIDiMxwsmVCEGphW8qWApvHEcyeEvuwqpWNTbZDYId6sBEEw7WVTi0kCXihbGhgsGtGpEVeoncVZmBMAHhQNmxUTjHAljZAw4OAFj5nsGkRXQtNsHNKY/EpFPHL0kbrWCwNxElIRzSIuGe0AbYnO/7QCwGvEA9uhx0IOAX7MNIWrWynko+Q7iD4l7Bb7lQHfqf3K6C5SWyVfW8/fqO+/sLJl9SSV9jD0CY7+y61803pcI96lA0N2lrAjY9RD+V/TWKHsSL5K5JftDEicKJH1OFmNwPfET+tIxqx7IctEXa3I1BKPPOJJthQmDAymwo2GnjzqGIV8B7tGwZJlC88xLUn4igaEkLYpRFnu6FxYCQMKDcvfm1QK+fiCjgXOw1SHShlPJVMpYL9K7FTZSPYYMwTBmuo/W4MgfxqQ0QJHDmY3jDpLE3wio7GgDEQbILpgB0GRbR6aLI4RcNbTARyUyAsmyWMTEw2UvC6NkNrQ6j/60CwCV5yE2yyrWqCAF8a2/kkLyneFMZ0udkUwoBwGifrEPHVsh/2uzm5wx4l84UOUaC8mFgdJxpVqdzMUHQdxISOXVxrx2iCTcU3i4lP9o9rPyIB4sSxGSXHivAcwAaXyhwU3qENEtQDcxA2NYYZVUCJaNxtRRt04SnHt2kRQtXEMm2HFFCmzCEqkGtsTxqbBAVCDrN2NSS0RcgowYZBLCS9yakgoEXOeBjU+5HPy2GXwc4VHYKZvAp4uAg2YQuBau2GNjHZSqmtQdgcoTZ/66Yh6GWSZjNP7iiZamxIJxjKJCoCM7GySWL5QPV9Htmm4EGimIHRBtiMPLZhvtQW6kpjE3wYTbBpGh4mL6Gdeh0wNIgnaANXaEe60NIEmzgRB3WowHwDPlkueVjsGEqhM9UtH96TgP0XltdS4ECjpiWsOLAz9NEEm9KkMEF5OkVYtlXYGeVEKw57UJVoCoZY9XhpgyoDG2woU7YFNFaDdiccInbokBC2LTKUbpOZsA1MxzKvOckEzKeemnobEYH1fHGUB+/VU3zllZe9QjYDUTzZHTI6d3Z0ABb0Qv2n9fVn0egB2GRXKJbGTT/ZC47BLILdJZN2IM2kSRPhuoCPOufLNGvUdNi6J1vEiYo2GGcnTvz9RC+bM3/969O3kI1M9Z/afYxqayPbV1Ms38mx0m53LIzmMWNG/0MadGETqoRtTB8UQUYTfQY7bQBtePnl56/00oY//emPdwU3bsI+0drgBX8jGxv8BeXuv8AQSx742Xmp6LLLRpHLhMBCHt1V6oPDrE0Zahfed9ZZw+aa1DFy5Ig5tAED4z3oo/4u9V1wwS+MfEkHDx60gPKqTawMsme1hBNwlHpJIG9r9swzTyrHfBMSaROlCP52D8EmB15QmdTKCP6MEmPZ/lLf7bf/BvZJ4w828TCZY7MFdcD2OHv23JFOE6njrmjnzidsXLp0BQQDaVH5VWSUPMOECjfnU7syaGbphNN36R02KrKoM/9FhnK7pDBMNznttFPWkVuBi/BYo3Zm5DZ1qY8Y8E3aVTFphkiDQYod1qlTn7tLbiaY5o06OFesWHmyLCi0k0kG6vdNC0c67LxBiyKD8ulyU8Qtu2A4mrC2mwgfeJbLApXQDCufHHtP0X6Ae8terwIBYWc4zorcJbpru2RGAsmtsabv4QSN3XA1IFu1Kjw0evSYd4knQYdyb7AWF9a/99zzWxzBpU5tEa4g69ev70Ff1vCT0Iaa2ihwo5M2xVYGhWZhiBZEJbjlw/v27dvRacAirxSKIpfT5l0I9xEjRoQ5eZvUNXTomZ/5fBMmyroEBrt27YJT71bIDpIh0FThMZCB1WAs0UujRl3yFk2ww4jXsFsMQd28rExEKkScRu0o2AYNGvg5eSBfDv8pbAND+5FHJ4udm0R95K6l7oKQdeqppzp5MYNe2PxcZ/XNmzd3kTSKTgXjETNt8Uo3IhFoF/Mu6jDRWfSJe+Dt2LFDObnBpQC7uitNhI2V9lNPPeXrOXP+fWZRUeg49mi0eXWlUBjbYk0aSSel6QQnm5OXxdKGCy4470OaOO6kNqB5tNubI3y9EvQJaUhO5dEuutJggE8ldsDJJQa2Hz2vwlV9K01Z/R+71KA7hJUKwbLUG5okTLFSPpyybFEfLkkywceS13XMKPoRymVSvp5GE7Yh4U3ROm2QZseOnYgMQv01tCKrOfPMM/49c2Z0xcSu/l69eqnVVghHqRlH2L0dBRupykpqhwB5+eVXrqMKw7ZxvQJgTf/22+9cJn8DIDifzUeOwE4hR+qce9dqpcsJ0gmtKNabsigUSTkpig7Lzxdb6NaP7lJhwkAqP9IGyB2iZPly1yZFJOjSpTN56YsZWbxr0kT4PTl9TNxV7PLaamxkTMOyAx/RhlgFkrUNKMs7EgnJodopJnIqMWq4oaVGha1yeMZr3cyj84QX/nDiM68Ntu1DSyGSrjATnHE9QWEbnlfGfepliDFE4XVKSTAu3ykh8WGB3TvHzoPjJNkb4EQJvxY4I1bAKY7WtFNNZxs3qqGtde7c82kYnzFAyM5GPi1XvehSvq1d0FpXy5YtEZenBl7mnj37WjuprdHoRHyn9t5NAwBjuw6I3NxcZZxFW7I3bdrS2Q0ru/e7du0mVV8wk8lgMWFuu2r0ZUzo/THHHLNfClVo0NmaoPPUlD179ra2DghPBcSZuHXrVmq2R99hqQQ/QutlMG61IH1YHo3/9Ly2WLoVnqT3YoJCn8YyTujKTfL1DC17BT8qJQB+ouRX1xP+fmRy8m/atFkE+nv90FhUZxlK8xKcpI8rsSsnqpB4/vlp12nhQxnwB7v55nEzvBLklJ6cEP9CXu/qxiE/DMl33XXHE4kov1u3bt/JcsSAhqGd1FZbX6xo9ZHhs1g3LrvQZqRtdOjQQS3nM6EdrFu3squX3URFgx4dQr95XWqawmw7GE855WRlP0I0RiV5nfdzc1+wq/Cdd/45muwvRriZEuwlXffu3dcRDyILQpdyyQa5GW5E8AyQ3+o4cvxm8hTAGZlCkuDfZf2YTEBeyDdN66le4iu7CIWoddEJKKdr403IFTij47t3714rCWMIfmjD1WTW6hcLv9Pu6ig4QWM80yO0Ppw0YkdYVMFGnYO7QrcjZAkfeLyTZ/4YO58mU4RVOjjswcufjPLQXsgQuC8Pd5N62bWMVqe28yf94vJ9r7/+xlVe6aR4xnuIRgDgZSkXdaDSkTffaEwgOgie3F5og72TNlhGqNAZSV+0IuIRHhEDA0fjaJXR+1KEVo3w2gZ4qsulnwqL81JE3GnpNJN5yvZMdJQRPT22bt3SEafHYOUADwH54G+TR9xIZiHMk2BxaFTIdhVjo536P2yZDMExbdr0O7zWQaeX3CAjN0IyRUU59O/fj8KshAUHdQnNdu5cb7yCSXPmzLdo112ENiJCJ5vcuXAKzy7Pgg0ZXnrp+as1rS1HLkknxyPcKO9ECpV4QvoNoaG0nCn1PfHEY06A6uAbDVAwIRwlEQtJ5ZPTZeFR2gS408SHSwGF0BBqO8KpUIbX5YkjbyCQGVECMjYSjo3lFJ7zFy8az+9+98Dj8DOTzGKCSawDw3ZQwlSBkzjk9jt2RcuhpXiZiakNj8kZ2Os4Slh67WAHYJkJeqZMeXSSlwrg1kS+cje5OYzLMuOxL5n0sxfS9bRiKYowLITueXGeRbQK5Rkp3ZcQ+9kMET+qcOsxVCQAfTfdNO5lL7xCxyf9lrQ+EbIHOmlcZl1yycVvOzXW1V4FfzE4qtLWKgoFsIghhL1tMgmOT0wvcgEBMpxmVvA+UmFXwwcHWObBiS/WQ+WcGjd58iQCYx9eC7oJ0KpzzvnFZ9GOmFFlIfIANkUMWNBIj7CdSQ0pVuYJ5bvvvnse1iaMbNotyhs1avR7Jp0NgUva7micrCDbptroRpcXzcE1LfneQfCrU1Ky4DR5/vkXzDYR0Ig/hcaOE1PciK7L95gAiZbJ8N/CoAGmwNb05jTwEvHUHDqT7W+0utmFaAxDAVeXzVJlqz507UvJRxgniMc8iHEvnWKj0ok0OKNROsBDntRgzN1449jpKiO0KjitY1VGv8F0UUPCrwXcakz4HX1BSsndcnUnbYE+H07wcSLOVbAhIxU6nnymPqPOV7uSQrjR5ccjSfvYjGNUsAyxY2j6rYjenU1p/k6z/GpcmCw1NbFOhlADM3g4wNLYCA4/KXgnE6BCayNAQX8Olrvw/HaIFT0WIVFYhssoBytzmDCJK9PiCBbS2r6iDhYnSWCAk9/gQEQ2yBCyiDIwMWAmlAJXBDgjr3zc6lSzfULoR2XQ0BCeRW2AVlsDUwXa0L//4BVO3vvUhj4484v8CXGIqZHbglvDHN6b4uKjAwuelWVAm8LpKRUkqF4kPpgRTUhjwEnTCU5DQX9k0LFYz9BpsPBh0z9hy70Y24NssfadKRZKaACDAxg/ZDK620n44LIipKG00B4wxiCwcCDtPGuA+gMP/P4huRwV3g84BOHjj+eejZWL0ypKxm3jIM8XpcyAckHO9tvyMLlHU4Rcd/BUJ5Bj3HBoaKRy/jwYFuHLwvlaOGOK1r5jcR4T0kLa05lO+0EAOV5S5H+RqAMqPt7JzhECErMkhBoxw3MeOttT506fPm0sHcNyLi2ZmsGWQw+E8lGq81k8GGRk3Fy1Zs3avkuXLutP9JIbQz5oBaMqfLBjho5z+niiSRXy6qsvj8bx0tgpAl04MgkG7KDhOf+1888fPhu0ffPNsgHkiDuABpFYKkn8laaklphURo6doPAya9u1LzRD2r2kNlxBbdhEbYBhWPAEDYQiEtzvAccrr7z0zTZtjt8h29CP2pAj26D81SBMwE/CkY14x7MPlUOnGE3aQZ4t+gnB2FLzgAYJk4uPzuS7gfj6Bgw+OlV5YdA1xef74IOPLsGgpAGHvoA7EDCqxBFCCN+Cl7wDTUhnTJelDOQDH8b6MeFRMfnBfgXHfIwBnK6BB4cC0CkwOJIosHbtuj6Ey/Wy/Qfk2EBeoa298MKMa4knwugEn2PClgoD3JLoPLbCcjoGqitscTgQYsyYy1459tjWuzZu3NSN+KWY+oWCAsRYxKoJYxG2+EyEitHk/nA0IIwFGwrB+Vy0LJ0KtRAxnTh2BkwgBZyqJ58EmvBxwg4IEQXGFQfF0SPsVEGVVBibz8IZVh56yrONAUsNWi73hWaJASXPW2sCxgW45Iw5Apon/kODEyDiT9BLh5wd9dMSsapjx/a7yZGzSOtAJ5I90Qfva6jyGAiSNmCmDqkEbcOh4YIu6XIjaEYn08woHEqJthKijVwm3N1MPOCsJxUM65QXDKuOw9HaoHAM/O//fiA2RWQb1Km2wi2G2oAjdQ6QMDtIbYCXuu25XzHSrWg2EiQk1D6EFo9JFjagIN6FVHWhj44YKqZdX9odD1pPgoJZvEMdEMgVNEkX0pJ2IrQLF3o98YhWVqz5VBFOfagEHibVLDpya2G7dm23kuD6FTRXeoSLE/XjZbREFz6ncmLCnxBQIsRJHlXVBLY5p6gCHF5KGmA7CEqprYvz4vA3yYz2kyb9aaJ2dh94SAhAesTGHVaMOP2GDj+9lMZ1VJiNOl0vActSBA5TwaQpboN0F6d/aGnEwXsQavJ3vId/UA6lz8czfvytT8MO4UGo6VqHZ7cGAE3EHj9s2BmfUv3w9g8xPYSzEswyrEd0EmyKtPW/fs2aZT2GDBn8mdyEcALTOhuazI6iLBJq38BO2b17l9UST1UHcBS0SbrE79hwoHQZgwb1/6qk5IeW6HBoefQtttNtCFS0eJrEtHKQP2peCGZqwwmnndaXaBI8obJjiS1O5gUDS34ALwDfTGrDv1es+Lp727bHb5ObEMhnjJ1DZ6j8IV8n0zJJqE2TS+gyvR1KyGHSw4P2yLYcpXTg6wJofLS8nuxCE1573YTSeT/aqsGuah1Lt3oVXgGcHB004WzDRCOcvtFmm/YLbR5LQ8LoAJaUDicIh2gjofYkMKY8ubJ8sQEWnNDFagSTBuSHGqPgbwi1bJiIEGOdKD9ap8GMM9t/iS1X2clySaRuPa89ix/vcX4SdkNNjgyyVmi980DW6UhXtBdgQMQn1tIcSS/sXDR7367KwXJVpad3EQ6BNAvdo2NAbit2Pkyu9EJVx0ka0Wgj2jdRuitrC6vFWZ6sElaP9c4Deb+AKy3S7qGWueLb0NB7PTEnlpOO/GBtA042UelNjz1yaoA6rUPvD3m8kmubVQK0M2jDCR4RFHwi+QRhekjntlmiziILHydm5KizCPW8VN+xJrnVcV96XhwvrufFElOesHIUm2uE/2fqPcad3HkPYYC0tViIexyOYiPIhDf0etW5hzjZR8c3WF+47MB49+LNgHrinR0FrdA46NqwLnS/Zh94wysvdHinkyPnUvLbWh7PVWXqpiUFDIU50TE64bcxmXS0nga7WeSIOFidWlJQUHAI6/sBAwZ8YT1lFJsfyusZIVbW7WtsnGh3i9LpIx1+oKXNu15pUumxtFu0aNFA2BrQR8CxVauWexDmZvXzI8F1sWRcnx0uYCDlmJyX11QEapv4CoJRyQgedoGIl7tSwYjUhkGyDTTjC3x/Iny/tMF3BG4fA22yDXNixQ4rAfih6fnhxBnrjjv6Yv78+cOp3OYI39HaEcEnTjSjD+jaOsSkimUdPTXUBxDmrh+ZVwkysTIy6T+kk3lhplCfAOKltZOpcZbaW7TM/E9sXmE1gNOfyeQ0TCdMYUAxn+127vyxHdlMtxFPHoAPoOdTbC0tBp/R7sEAujFuGN2Udowsf7smOxJ6zaEr4JyAEWAEGj4CJNjelhobzhus0TW2htw6zza2htxYpp0RYAQcEUjI6i1V8GXBlio9wXQwAvWDgL7ZUj8U1EGtLNjqAFQukhFooAikjdbGgq2BciCTzQgkCIG0EWY6HizYEsQdXAwj0EARiNkHM5Xby4ItlXuHaWMEGIGYEGDBFhNsnIkRSBsE0nIpGmuYTdr0KjeEEWjkCGTgBGHE8tJVfRQOV+E1bCsl4WPBlpLdwkQxAslBAFEEQ4b0/4YuAqILuo5mUwA8XdnHH0aAEWAEGAFGgBFgBBgBRoARYAQYAUaAEWAEGAFGgBFgBBgBRoARYAQYAUaAEWAEGIHURuD/A3Qz+tHo4MMQAAAAAElFTkSuQmCC;" parent="mEXFG2sUmQ1XzkrOF1mA-1" vertex="1"><mxGeometry x="951.47" y="821.1700000000001" width="57.05" height="30" as="geometry"/></mxCell><mxCell id="C-EEUxcw7qsWDY_6hw8K-24" value="" style="shape=image;verticalLabelPosition=bottom;labelBackgroundColor=default;verticalAlign=top;aspect=fixed;imageAspect=0;image=data:image/png,iVBORw0KGgoAAAANSUhEUgAAAvAAAAFMCAYAAACtRojpAADNB0lEQVR4XuydBXwc17n2z5kF7QpXZLFsSbZlxjhMTZO2KaV0y3BvuSlzbyFN4RZu4Ssz3zKnDEnaMJhktmXZkizmXUkraWnme97Rznp2tSiy4J1ft46kgXP+5+zMc955QQjemAATYAJMgAkwASbABJgAE2ACTIAJMAEmwASYABNgAkyACTABJsAEmAATYAJMgAkwASbABJgAE2ACTIAJMAEmwASYABNgAkyACTABJsAEmAATYAJMgAkwASbABJgAE2ACTIAJMAEmwASYABNgAkyACTABJsAEmAATYAJMgAkwASbABJgAE2ACTIAJMAEmwASYABNgAkyACTABJsAEmAATYAJMgAkwASbABJgAE2ACTIAJMAEmwASYABNgAkyACTABJsAEmAATYAJMgAkwASbABJgAE2ACTIAJMAEmwASYABNgAkyACTABJsAEmAATYAJMgAkwASbABJgAE2ACTIAJMAEmwASYABNgAkyACTABJsAEmAATYAJMgAkwASbABJgAE2ACTIAJMAEmwASYABNgAkyACTABJsAEmAATYAJMgAkwASbABJgAE2ACTIAJMAEmwASYABNgAkyACTABJsAEmAATYAJMgAkwASbABJgAE2ACTIAJMAEmwASYABNgAkyACTABJsAEmAATYAJMgAkwASbABJgAE2ACTIAJMAEmwASYABNgAkyACTABJsAEmAATYAJMgAkwASbABJgAE2ACTIAJMAEmwASYABNgAkyACTABJsAEmAATYAJMgAkwASbABJgAE2ACTIAJMAEmwASYABNgAkyACTABJsAEmAATYAJMgAkwASbABJgAE2ACTIAJMAEmwASYABNgAkyACTABJsAEmAATYAJMgAkwASbABJgAE2ACTIAJMAEmwASYABNgAkyACTABJsAEmAATYAJMgAkwASbABJgAE2ACTIAJMAEmwASYABNgAkyACTABJsAEmAATYAJMgAkwASbABJgAE2ACTIAJMAEmwASYABNgAkyACTABJsAEmAATYAJMgAkwASbABJgAE2ACTIAJMAEmwASYABNgAkyACTABJsAEmAATYAKXmoDbM5rlHhpwXOp28PWZABNgAkyACaRLwJrujrwfE2ACTGAlEJgaHyuYbDu5XQ521svh7g3iJ3fuFBv3/Q19+9pK6B/3gQkwASbABFY+ARbwK3+MuYdMgAmAgDoxmj31uy9+I/DFV1+rjA27xLjbJSY8UnjdQmgh6R4e+rarqDjAsJgAE2ACTIAJLHUCLOCX+ghx+5gAE5gnAlJog50b1FMP1wm7UwgphVAsQmTnCzHc3SjcfdW4UOs8XYxPwwSYABNgAkxgwQgoC3ZmPjETYAJMYAkRULLzJixrtz6oWWC3oA+JdwUi3oLboLunVowN1Syh5nJTmAATYAJMgAkkJMAWeJ4cTIAJrBoCSkVdE5xpYH03dZmEvKc/S4yNVKwaENxRJsAEmAATWNYE2AK/rIePG88EmEAmBJTC8gsy14VDwiKehDy50gR8Qox0rc/kXLwvE2ACTIAJMIFLRYAF/KUiz9dlAkxg0QnI/NIupaKhTaihaSu88bFahexuvtzd152z6I3iCzIBJsAEmAATyJAAC/gMgfHuTIAJLF8CMr+o27Km5rSmBqM7ATcarbd1p/BNFC7f3nHLmQATYAJMYLUQYAG/Wkaa+8kEmIBQsvOnZHFVi1DhQmNsZIW3SCGH2tdCwBcwJibABJgAE2ACS50AC/ilPkLcPibABOaVgCysaBY2O85JfvAa/sVH4lY44RFitD9pJhq3220fGR62zWuD+GRMgAkwASbABDIkwFloMgTGuzMBJrDMCZRUt4j8kpAYH7IIiQw0xqYoQnaeuAo/UlVW4fZOWSDqc0R/W6MY6m7Av9vFLz6+UVz5rG/gz/cscwrcfCbABJgAE1jGBFjAL+PB46YzASYwCwLFNadFQUmfGBuo1HPBG5umCK3j5NUjbrdVuvvWiZ995DOyv22zGBtegxzxhfhXiMkxIUprz7CAnwV3PoQJMAEmwATmjQC70MwbSj4RE2ACy4GA5irrtBWWXtA0ZKIxb7DAK/3ndhe6XMEcR5bXcuH4teLkg42i73yhLtztDqE584R9bKB6fHiIjR/LYbC5jUyACTCBFUqABfwKHVjuFhNgAvEJOHPyAkpx1TkJwR4t4KXQRnqK1dHBfFv5uh5LRcN+zQJ3dys+FljqEewqUbVVG7iwSZ0YLWK+TIAJMAEmwAQuFQEW8JeKPF+XCTCBS0ZAqd78sMjOxfUpgBX/RCqzqiLYduQaapiypvqMMNJNmvLFqz3Nl2tT3uJL1ni+MBNgAkyACax6AizgV/0UYABMYPURsFQ1HpJZuUGhURYa06apQj1/+MnTAn7tMelwTIt8Y4PVXh3qkZq7t271UeMeMwEmwASYwFIhwAJ+qYwEt4MJMIFFI2Cp2XxYOnKQN5JSSeKyxgeCPtR56gpdwJfUnFUKK0KCfOXNVnqq2tpzdveiNZYvxASYABNgAkwghgALeJ4STIAJrDoC0p7tU1zlrUJGfGciIl0dbNtCQGRRxXmZX9whYJWP2mCF13pbLncPDVIyed6YABNgAkyACSw6ARbwi46cL8gEmMBSIKBUbWwSFMhqtsBD0Gu+iZxQT8t6S9naLllQjGw1wemCT8ZHQdXW7ua9Qg2xgF8KA8ltYAJMgAmsQgIs4FfhoHOXmQATgItM7ZYHBNxhotxjSMwHJi3BtqYbiRFcaC7oVVrNG/3ce7ZKTI1zJhqeSEyACTABJnBJCLCAvyTY+aJMgAksBAH3VMDi9nhy3K2nGt3nTuiuMIk2S92ef0+Lc1OQKn7WAlNC7Wu5TBfwNZsfVrLzsQv2oV2ND6WU7GlmP/iFGEQ+JxNgAkyACaQkwMVIUiLiHZgAE1jKBNw9FwrlQOc20Xtup/jFx68SI33rxVBXo1i3/Z/u8ckXunKdMRWbpntjKazsljkF49roQO7FNJL4Q8APAd+qi3+lfN0p4cwJicAEEsGbqraS7O8+cxX+uWsps+G2MQEmwASYwMokwAJ+ZY4r94oJrAoC7uEhp/jlJ78vzjz6TOGbkGIKFVND0OuhgBBZjsvE+FAJQPTFgyFt9qD36686EvT0XxMJZiUXGljZtfHBKtXryRHBwCHpyB7VPFqhfo5IzKsmZC/84HljAkyACTABJnAJCLALzSWAzpdkAkxgnggg6FRmOcfFSI8U/gkYyWGTsCN3e5ZTiPGREtHfti3ZlVDQ6cB0cKpJnEuL0MaGqlCwabdSUDIqswuGIgWfjJOR182FY1fCXQdlWnljAkyACTABJrC4BFjALy5vvhoTYALzSMBVWDSpNez5s25B1zPKkHM6iXH83/hIrhjuSVpwyVK/95/IJhPdIvKDn3RnqcMdjfQHS92uh4TVpNPDVnoR9OWKgbat89gdPhUTYAJMgAkwgbQIsAtNWph4JybABJYsgTW1Z4QNAtuU0l0o8FefcAtY5huStduypu6EsGVhF1MgqwWpJCc9qLjasYmORbrJR4XF8gqhIp2k+SJBP9xozu3CL5vmg406MVqg9l9oUId767ShnnptcrQw65ZX3Cmduf75OD+fgwkwASbABFYOARbwK2csuSdMYHUScOaNaMXVw3LwQhGE9jQDEvNUQdXdu849MuJwFRZOxYMjHbluy5q1A2rfuVLdgh/eNFjl1ZGu9fSjpXrz4xLpJjU/5YMP70AWfhV+9gPn9+A3P5gL+OCpR2/yP3zXWya/8bYGdainWvUMuMQovHbQHtuVz/g6zt0xl/PzsUyACTABJrDyCLALzcobU+4RE1hdBOzOMVm29pgu2M0bxLwcaN8sRgfWJgRic3iV8oaD09Z1Q5xDp+NYdbB9qzrUWWWpajysW/RjCj6JINYEnSeumCtsta99i//h390WPHzvNrW7xSUmEYjrgA8/BLzal9yHf67X5uOZABNgAkxgeRJgAb88x41bzQSYgKG3nXkeUb15vy7CdZEdrppqgS/7cGeD9LrLEsFSHLkBpXrbwxqJf3MgKwS8NtK9ITTat1Za7Zqydvv+KDcbOiF53XiHqj19nbVzGow1a48qRWVBYUdhV3IForcI1Ba0P3j2wJPndG4+mAkwASbABFYkARbwK3JYuVNMYPUQKHC5As7axv2arqjNRZlggXf35WZrvuxYGiMjIxGPeV9uRZvZfV7fFxZ3bbRPTPR3NLonfEqwtOFE5NSG0FekUHzevFzfcPlcaE+4Klu1HNdAJNONyU3H13rsCrfbzZlu5gKYj2UCTIAJrEACLOBX4KByl5jAaiGghoJ6HI90lfbKgtJpv3dDYFMwasAr1OGu+jg8Lmr2vOJ+kUfp4k3Hko97YBI+9D3rRChokRUbH4ukmzROBhcXbXIsLzTYuXE2vCHM8+Gfny0KSvtFbmFPVBBuOJOO7Du/CVlyoitIzeZifAwTYAJMgAmsKAIcxLqihpM7wwRWJgH32LgVOd5tSn/7Ouf4QDX8xjerva17Jr/7vjXo8VOVvOIupbiyW+1wV8KBPQJBWmxC7Th5teqf+rpid5jM86aSTNmuAVlY1Su63eUR9xU6A+WU7z97mfCNF2lVmw9KfXFg0tJIN6l6h4Tae3Y39v5xKvLq2HCJ2tveqHad2RPqOb/b/5M71ovdT/pWwdVP/7H7R3celWcfR0Asuf+EU2HSf0+6XcikQwuQk6nOz39nAkyACTCB1UOABfzqGWvuKRNYvgQO/OW18uHfvV0bHy6ehNuKNjFmFRMeoSEFZGioe43MyW9FNpljofZjlVKEPU50P3KLCHWd2SV83gL85DYBuGiBzy3uEqXrmkTn0adE5XsnX/TBlr0Q8AUit7hHlKx1i+EuVyRbTTgTTWioY4MWCihYLKjxAKsTY/mTX33jI97PvqJUmxjPEV53tjYxCgu/T8Dy3k7iX1bUNwk72k2/i7jQ4C+qKmT70etZwC/fqcstZwJMgAksBAF2oVkIqnxOJsAE5pfApDdPtB1ZL3rPFWqeASuKKOnVVqXNLtT2E1chGFWVJdUtQjMCWcOX1zO5tG7UfJP5MQ26KOCdrkGtsOZstAsN9saxcqijDOI/X1jtXq1sw7GofWgXEvmjvetQubUycYc1oQ501qvtJ0u1oa5szQ/XHMo9TwGrowOV7tHRLK12+yMCfYn48BvFqNAfrbv5mvmFyWdjAkyACTCB5U6ABfxyH0FuPxNYBQRkZcN+4cwLCORj191cjKqr8FuHhf1yQqAUVTVLRw40sMlThvzUvYM2bbS/JlbAwwddv/+5cp0hUVB+Xjhyo4+Fi4yYHEFF14FqYcnyyrK6kxLXk8hyY3yoHZqnf502in0SbVb7pLJu6/16u6n91Ha6Mv07NlQj3H21orz+iMjK9uinMKerhICXfee2rYIh5i4yASbABJhABgRYwGcAi3dlAkzg0hDQypEFxmqdTvRuFrgouBRqPXatLuCLq87J3EL8FzxZzCkhIcRD7cevjBXw4TPpv9byyzpFDh1rDmSlkyKTTffJK5DSMSTWNDSJEIo3xVR8VUc681RPb8Jc8/C9D1iqNjTFWu91QT86UCuGexpcBQU+UVrbogv7qJQ4WIyM9tW4+3uocbwxASbABJgAE9AJsIDnicAEmMDSJ5BbOCJKa1ojmWAMga6pQu1v3QUXGRsKMjUp+aUdUZlo6A6HfOqh9qYnaqHQjPsdrPDSPTquiMLq8yJvTT/5nEc2ugZZybuPX4ffZ2lFVee1nCKofdMCgSzwE24UfbqwIRlES/2OB7WQyb1HPzcE/EhPlhjurtOPrdx4JBLAGlmk4Pq+iULZ03zZ0h8kbiETYAJMgAksFgEW8ItFmq/DBJjA7AmooYBWu+1BQW4t5g0/a4FJZ6jvfKOltLZLFhRfgMf5TAt89+k9EN5x0zG68nNVCPhzWl7JuRlWcpxfDrTsFiG/UzhdfaKkrhtpHaPeAkgrMt0Mtu1Ephs4tsfflKLKNpmPVJXk3qOLc/xLXUGaS+Hu1dNcamt3/isqgNXwg/eNK1rfub2zh8dHMgEmwASYwEojwAJ+pY0o94cJrEACrvw8TVauf3TaQh2utGqIYN+ETe09v4O6rQtlJSa5Fo5BLvgy5GyHk3tkI1P7RWd5m3NMFFS0CaSdjC4GheuN9mSLqdEi4SwYEsWVZ3ULv3mDJR0Cfru+T6LNkeuxlK/rwmoj5vxw0RnpWu8e6M8VVZsfuZhCMnwiFIsSfi+CaS/o/eONCTABJsAEmID+vGMMTIAJMIHlQECrbDwoZGymRhRr8qFYU3fLPuqDLGs4KrIc0yLZ7CsP95VQF3zZL26GeNc9zl3ZSAFZWHtG2J3Te0QFkiKVY+/pfSK7YFC4qs/pFnhjo/0QmKr2n2vUpsZdiTjK7NxhZU3t8VjrvbBSqsqOLWLSUyaoGqurAvklzW3HBVSIfndPnXt0jCuyLoeJym1kAkyACSwCARbwiwCZL8EEmMA8ECiuPCeyXf4oP3hYqOFCI0I9zVRMSViqNh2Q9mwoYHPNJtLzqgi1Nd0U0wra6eKOa9Y36ZlozC44urzHLp1NTxS2bJ8oqj4l7Ej3qL8FCAt9SlU5Atd7D7LJJNgUZ/64UtHQpKkxfvAUyNrfslF4R1BEyj6plaMNsdcnX/nxwVox0t0wDxT5FEyACTABJrACCLCAXwGDyF1gAquCgLQEtLXbH4sKIiWPGohgFHgqC40OFlhqd9yP/PCwYpv84Elok4DvPm32I4/K9eL2jEqtbONhYc/xR6WhDPuryz4sELSQVSusahX5ZRcDWcPgJaq2hnqjzj9jSJSy+mMy9u0ABcmODyGd5GC1y1UQEDVbHtUDac1vAGif0f5KMdzZuCrGmTvJBJgAE2ACKQmwgE+JiHdgAkxgSRCwWAKyYv2RWAEPBQ8BP1SpDXZuVJy5QUvBmq5ILsaIEEa2mr7zcfOpUyYa/ZzZhQMir7QrKhOM3nFY24fbGkVgMhuZajpFbslwVKabcEYZtfeM2UVnpoAvKO1RCitwuhgfeuwpB9q2IBuOFFUQ8JTK0ryRBd4LkT/alzBV5ZIYH24EE2ACTIAJLBoBFvCLhpovxASYwFwIuFyFKlxMHtfFtnlDmkgI+Hx1pFvP5iIpHaNe6An/ixRdwh98Y0XqYLtR0Mk4ycWM8ZqmaqX1hynt5LRnjcnDJujNlkOtm+Gj3iZyiztntIFyzfc271P9EzERtBcbKgtKO6RrTd+MBQi50fSe24dMNzmioOwCfO1xkDlVJZo4NS6Ep5ddaOYygfhYJsAEmMAKIsACfgUNJneFCax4AmvqT1HaxlgXE9UzQPngdQu7tWbrA5RtksR7ZKPsNT6vNdRx7Hr6nTa9WcIfBf9KDa4rWmkjMt1Mi/+LH/wQnBKi6+g1rqLSPi1vTZt+XvM+EP1q14kK5Gwn9R13UwrWtCuF5S16Pnhjo3PQgqHz+BWafzJPs2ePaiW13TMWCLQgGe5oHBnoMWfSWfHDzR1kAkyACTCBBM8UBsMEmAATWC4EbPmFfbJ6U5egYFDzhkwwocELjf7JCanW7HxAt8BHiWx4yQQnRLCnWa/IWlRUpBYWFgbxCYT/VQsL8nz2usvu1SukmoNgSWQH/UIZadtJx1qqNj8qsvOn/eBjNn/H8WsSsZRZ2X6tqLpZF+yxPu4jHUW2kM9pzy/uspSvP4zGRueaR5ssQ2277b4x+ODwxgSYABNgAqudAFvgV/sM4P4zgWVEwJFf1BMqqj6tu5jQ3Sv8oUDWwMCFLd7+jo2TztJekZV70ZFc91EnK7pP+Lqak+ZTd1aub5LOgmAkkNU4VvULi6djI6FyIJ2lpGw1RkXWSDs0MdW6/9YRtwdpalBkdWTEho8Fn0jAbKCg/KzUxX+4kJMu5PF/oYBweDo35LiKJuy1Wx+iny+6/2BfEv3u7jUOzZfQwr+MhpGbygSYABNgAnMkwAJ+jgD5cCbABBaPgCUnPyhK152MysVOl4fFXbp71stJT7G0Oya0NXUn9JzxUblm8KN3qHrKM1SYqMXSYg8pZRvgQx9eHBjHwx1HHR+oVadGc+WahqMQ8BORVJKmk8meE9dIbPQr/BOCdZ8+EV8eWVxzRjjz8McY6z0OCXWe1K33SmHVeannozenqkSxqNE+fAYMH/7Fg85XYgJMgAkwgSVHgAX8khsSbhATYAJJCZTUnpwZCIrY0aH2LKRjrBIWa0CUb2yKcnEJZ4oR3sFKMdi6Pdn5LRWbD0alktTVODLdeIcqQn1n9ip5JX3SkYdMNGYfe9qHssmc3QbdbQSyxiSjhyQnAe/IG5vRfrwhCLYeeqJ+qfySLgS7RmerCafCNPz8eYYwASbABJjA6ibAAn51jz/3ngksPwIF5R2iqApeNLHpGKGXB9s3i1BQEbW7740SybppGyp4csQh3F1Js7lY1l7294j4NxVrElMeoQ1f2CwlYl4rtz4szMG0BsXghJR9py6nH10u1wwBL0rWnRZ5xUhzGfMnXEftOXWZpoYUmb+mQxZWtsS2X88133nketXn1V10eGMCTIAJMIHVS4AF/Oode+45E1iWBLTcoj7hKkemFgj4qGBQi5CDrTvh6+7USupOCQS2RmeTwe1u0kPpGOuSdVwpbTgSEefGjnBx0SZHUXH1wmb9V2s27J8OdiVXmHC6SWoLfNfF4Fk92DXe5sq2h0RZ/RFhi67mqnvdTI3b1aGuGsVVfkEprj2tV22lzeijFW40/ed2iYCPM9Esy5nLjWYCTIAJzB8BFvDzx5LPxASYwCIQkLlF3cJVdj42C4ykfPADSCXpn8oRzvxBVE0djRL5ZIEnUezu0oNRE20yK39IKV7rjhRcCgeaalpAqJ7ueghrBQL+CFx1ogV2OBhVDJy7LNn5tTXrD0qbDbpciwSq0iKA0kuGuk9dLq12TSmqPD8zWw0E/GBbCdJhciDrIswzvgQTYAJMYCkTYAG/lEeH28YEmMAMAlpuca8oKG+H1zhStkMEhz8CFUuVnpMbhX8iV9izx+CucnyGyFesQh1q26p6euFknmCz2SeV0g1NkUw3YQu4hEVfG7mwTRvtq9TKNh3UqEIqbea3AJQ9ZuhcJNMNVXnVK72aNllWf1QX/5SnPuKiQ4uLgAhdaLqFdlWKa04rznCqSvP5A1Mk4jfxtGACTIAJMIHVTYAF/Ooef+49E1h2BApzHKiYuu6ocMIQbc7FTnezAJLDDLZvEnanW5QhGJUs7mYBDDeU0HDHBnVssDZRx5WsXJ+latvDERcWY0cKZPV0r9PG+2qRpnJUrGls1kW4WcRTG8YHajzd59eHD9PDZ80iXveftzkuJrI32gcBj2JQep56WVRzFhVZ1RnZapBtJ9h24EnLbtC4wUyACTABJjCvBFjAzytOPhkTYAKLQqCw+qzIKYB6Nlmx6cJkFe87vc9V4ArAAn9iZrAo3Gw8PVnCO1SZrJ2wwKOYErm4TKdp1z84tzbWK7Txgaq8LGtQlG/eH1kcREQ+dvSNucRI+5bwr0jhGxJ9+lcWm09DRdkZx+JPmqevRh0bKrJUbNov80q6BarDRvv5S6F2n9y7KIz5IkyACTABJrBkCbCAX7JDww1jAkwgIYHCijaR7UJaGFM+9bCvuuhv2eUem7AKEsA5RTiFSQTDgq35xuHL3rMuGV2ZV9ptyS+NSeUIr3X/hFDd3fVjE34p1mx8LLJAMGer8Y/Bz3666FPcTDTUZkpzGRH9YYlPbfOP56sD57YrOYUeJbeoMzaPPR0S6m/eqfvh88YEmAATYAKrlgA/BFbt0HPHmcAyJlBYc05z5g9EBalSd6igU+fRGyDsbVp2Ya9wVQzGZquhdIxqz+mr1cCUka99BgjFUTAoC2v7YvO1U8VXtb95nzblKdTKYIE3qrFGxDhuqb5RCPhOwwIfD7IKAf+IntaS7sARFx861quoFIhLXSmtOxnJhhOp9opFhHc4H28RkEeTNybABJgAE1itBFjAr9aR534zgWVMwFWQPypK68LpHsNuNIbIHe/LlZ7uGpG7Bvni1x6NziaDTk/nU79OTI0WJkIgc0s6lJKGgzP84CkIdrD5KrjJFNL5NVcV8kbGuLlQcK2nY5N7OLriq8kPXtWqdz4cKQRlCmRVkeYSi4srqF2ybMNBYcvCf5nfMmBnLBpC7YdvXMbDx01nAkyACTCBORJgAT9HgHw4E2ACl4hAGXKxZzmnLx7J80ICFz/3ntrnKqvqRSrJcxELvL4j/oh0k6H+s5WabwJpXuJvMit3Uilae1IvFmUOgiUL/HAbjoWfu9U+iUDWx+HUEuOnDsP+WN86Md63Nnz2GD94ONdnuwaV4mr42sS4AOFndaRrvRYMWK01O++XdvTPfH36b43STZ64/hJR58syASbABJjAEiDAAn4JDAI3gQkwgVkQKKk7KqyOaVFubLqQhyjuO6tXQxX55W3I+BLOVmMEvGInP/zgR6b91BNtSkFli3Tk4Fhzukf4qU8MCuEdrEIw6pQobjgh1NiqqnDjmRgok+MD1SYBT/8ZSSmJgNigUrn5cKz1XpIfvHewFmkuK5XyjSeQTWd82s8/XCyK/kUBK63v9J5ZEONDmAATYAJMYIUQYAG/QgaSu8EEVh2B0oYm3Uc8NhMNVWjtObWPeGgk4M2BrBGhrwi194y+T6JN5le0w5UGf8b5IhsENPmuD5zeh7Q0qihpOEQW8dhsNWK8XxETg+UxAp5+hELH/1tsk5ay6Uw3URveDqjeoXL4uNdJJLi3lKy9mK3GsMRD0KujPev83tHw64dVN/LcYSbABJjAqifAAn7VTwEGwASWJwE1p2hYKyi/EJWpRbfAI/3j0Plt7hF3gVa09jQEvDvKVYXueuRG03302mQ9V4pqTin5ZUMk0C9awEmCW4TsO/oETQ3ZtYLq8zIrb9pKb2wk8GHhRyaaTSOj43qmeE3TLOGPomkqlDkE/Nod/xKo7qoHshrBrORj7+mxqCOd+tsBWOkP6qsDY6P/pIqzfm9BqPd00oqvy3NUudVMgAkwASaQDgEW8OlQ4n2YABNYcgQK83L8trq9d1PmmWg/cYn6R36nY+xCQ07FhiZLwZrzGlnlDaGsK2MI+I6ma7yj7oRW7ElbcW/IWdIWm4mGLqaMnNuZk2WbdBZXNitrNvTrIt+c7R2BslZP+5ZsGcgqdLm0wsJCf/gTwL8hV15uYMpZ2q05XRfFv94+tB2pKv29Lbu93glroGzLw3r/zCJfwko/NWbR+s+wgF9ys5IbxASYABNYHAIs4BeHM1+FCTCBBSBgrdr8AFxZZhQ7EsFJqwXFlOwOp6q4qs9REaZoX3lKxziY7R/pqaNmjYyMWPFRjA/9Licnx6fllLUJWMX1iqumXO+apzPXpk467XnFXUpRLfzgw242kX1gpR/t3GpXp1AuNv4WkLagKF53Ufwbfu6oFqsOX9js97pLQ6WbDuguO8am13VFTyDyUSxKTzfJGxNgAkyACaw+AizgV9+Yc4+ZwIohYKmgaqgx1VihtJFhRoT6WnQLNfKpH0Ew6HSfo2qiqkIZatlFv4ZVPIiPanwMQFph7XGRlR3tIkN/hEU/1HvyGrjPBCHgT2mGBd64BvmyD7fWqr6x4kSwkelmRBRVN0+nuTQvELDY8HQ1yilPscgu6hF5ZUgsH/670QnVT/vUr5iB5I4wASbABJhARgRYwGeEi3dmAkxgKRGQJXXN0gkfdPMGi7UWmESQ6rSPuLKm8YDMQjaZeNlq+k9dl7Q/hfUQ/7lxjkVoa9f+p+h6vXDtcWmlmlAmkU1uLmO9Qhvvr014/qy8QVGMTDpm8a83GAJ+pL1CTHpKhMU+oZU0HIv48IcXIJL84L2Da0OeXpSL5Y0JMAEmwARWGwEW8KttxLm/TGAFEVBsWQHL2j33ReVipyBWEvETw5XI6JJvqd7xoLBnI6oU6RjNfvD0c/eR691jE4nvgyWNB0RW7lTUsbqI1lCR9dRVuoB3VbfIgko9P7s52FXCFSbUdeTGRLhdroJxCPgmiPRpFx2jbRDnwtsHF5zuehSs8ouKrY9Frh/JCQ83m7HeWuSk37GChpO7wgSYABNgAmkSYAGfJijejQkwgaVJQClrRDpGKqZEFvCwFZxcWCaGy+FLvklxFniVvJKeGdlcSDOPddcKv5dM7HE3Lbu4X8st6Y46NrynOtiii2clv/yczFvTMyPYlazwg827tcAUOeDHP39uca8oKFenc72bNgTBiqFzO9wej00r3/ao8fdIukoKbJ0YsmiervVLc1S4VUyACTABJrCQBFjALyRdPjcTYAILTsBS0QiBG1PMCW4omnfYqbq7dYGrrNl4mLK5ROdrp3SPEzlypH1r4kZKvyhsOKgHstJmqoqq+cezQiPtNUp+ZZuSU9qmzajICgv8wJldmhqAiX3m5kaKSZGDhUVead/Maq7Q/EPnd4hQwCnzylulIw+XNol8Kvg0NSo0T3fDggPmCzABJsAEmMCSI8ACfskNCTeICTCBTAgoZRshsKGszQGqJHDHkeBlECIYm6Viy0NU5XTGFvJJMXx+e6LrufKcmije+Ljul65ndDc2uOiEfELtOvgkaXOoMr+8PcrHXhf7aMPQuTXCPxnXwu/Kz9VETukFBKm2RrLYGKcnN5qhlj0i6MvW7LluzVUbx8KPNrg7N2j+Kb6PZzJheF8mwASYwAogwDf+FTCI3AUmsKoJOPKHLJVbOmfkYodgV93TLiaW2n136+kmdWEd/pDoDyAdY9+JpIGsWtnO+yIWeON4OhUJ+MHmK+lXcOPZL/Wc7rCSm6z0uq9816EnJFwglJb3a4U1Z6KPoRMiDeXQuQIx6S4V9hy3KKmfdhMybdJiE+rQuZ2ad2Dtqh5/7jwTYAJMYBUSYAG/Cgedu8wEVhIBac8ekyX1yOZiErhkkLfAjcbd2agiU4ulrPEkMtH4Yq3oAukYpadjIwJZE/upF1S3CD2LTVj4G/8R8kNAT6ehlIV1J6QDhnbDSm8S8aGB6WDXhJur+rRwUrp4k/jXT4qiTgOnL0cQrUeUwgVIRZCsUbE1XJFV9XSs1SZH1qyk8eS+MAEmwASYQGoCLOBTM+I9mAATWMIEFAdysZc2HNHUGOs3rNiqp3udOjGEFDGUD359cyTVY6SyKZTwJP4+3ldD+7jdbkmfqO4qdp/mqj8dlatd3wPW9YmBKtU/7lBKGpqQE94TscDrAnz6o/adTF4xtQCFppz5uo/7DB/9/jOXC4stqOVXnRe2rOl89EawLr1hGO9R1PGBqiU8PNw0JsAEmAATWAACLOAXACqfkgkwgcUlYCmpPxblQqNbqK0iNHwuVxsbqNYFfBmKPhlWbr15lIYGVu4pd4kc7doYbnFUqafw74KiBH7wsdZ1svBPjpSqA2f2WPIq+hBoOjSzqBQ8bQZO7UxGQ3PVNAtd/Id97CPWe7QNWWywKLCKbGSryS3BDpRt5+LiQGDRoo60GW1fXOh8NSbABJgAE7hkBFjAXzL0fGEmwATmi4B0IRNMUQ3SMYYFLp2YhK4aQiDpeT3LjKVm792RqqdG0SUKbJ0ccoiRVnMmmmgrvJQBrXz33dHVUOn8OHbKbdWGW/UgWKV8+8Owlkd3idrgH88L9SUR8UV1p5Gusjt6cTHdAdl37DIR8mdBwHeL/HL4+cf4waOAlNpz9BrV5+V7+XxNJj4PE2ACTGAZEOCb/jIYJG4iE2ACyQnInOJe6arqMAtcckdRyI1m8JxuAUcqyf0CVvOobDW0k29UyLGuRtMVolxoUExJ0wrrT8CpPkacIwuMfxRuOhc26+cvbXxMF/BGLnr9LNgHvuvq4Om9iXrgyskKaMX1TcJKBZ3CCw/6l+7Oql/KgeadWl7FWa2gduZbBsp0Mwg//OBU2EmfZwoTYAJMgAmsBgIs4FfDKHMfmcAKJwAB32MpqGyWsFAbfuR6lyHY1aHz29TJUbt0FvYpBdVj0cGupJThmTLWW+8eHix0uVxGsvVoK7w9zy3yqyajAk1xIS0UENpY97rpBcKmA3q2muhskyTCKVvNFbFDEOVrX1J/RBfwxpsBQ8hTddfB5j2uomIvLPDtMwpKoX8hd2u1CHgLV/gQc/eYABNgAkzARIAFPE8HJsAElj0BBLJOKa7Kc2TtjrZiw8Wk9/gOFF3Kk3bnuFKy/mBUqkddeaPA03hvvZwcrkgIwpo1qRWtP0o+5xcrvmp6pht1tGNzaLSn1FKy6aCSlRPU/24EyVKqSjUgQoOn98U5t26jd3tQ0Kmo4di0Bd58ftLzWJAMNetBsFpe1TnhyJ/exxyE6/fCDz5ZMaplP7zcASbABJgAE4ghwAKepwQTYAIrgoBSUt8kKR0j5WKnTXdDgZWcKpYOtW2X9hxNqdi6XyOrttlVhdxqPO31yERj5FMnG3p0JhqLY1yUbH5YCBxr3shFZ6xrvTbetR7pLAOyuOFozJEkvWGl761VvYNFcUGjPdqarQeFzY7rxlSUpQVJ/7Hr3JOqxBuA88JRAD9/U0VWI1i362DCXPMrYnC5E0yACTABJhD9+GEeTIAJMIGVQGAiq6RbyymCAo5JJ4lAz4kLh2+gPvpya05D0sdY6SHgx3ukU0xXTIUbTSj8iahpV2HhmKNqx4NaTK55KrikefuUicELm+jYYMn2RyIsjUUCiXzfqGu868TV9DePx2MZHR1VDHcd/KvBRabPUrrh5LT/j2n5gP+2+DyFeao7O3fd7nuUvNL2ePnifZ1HrvO43dkrYRy5D0yACTABJpCaAFvgUzPiPZgAE1gGBLTcclioXcMzUkWi7drgmcvcY15Fc5b0iGy4i5ut2HqgaQDKukOv2ppos+SWdSg5xfhzeIFAO5LgDo4LbbxnnXts0qIVb3osSoAb+/jHLJqnXU/3qE1vM+69StmWR2eIf/KzD0zkacPndllySkbh69+hX9/YdLGPbDXDZ3fAfShhMaplMHzcRCbABJgAE8iAAAv4DGDxrkyACSxhAiiIBB/xgXipImXf8cuRUtImnK5+kVcxFJtPXZKVfPh80nztcF8ZlAW1gzNysUsrqrme3yUCYwVa0Qa40NBtNcYVJjAqxOh0thpToGwUTMuaTQ+Ty0+0Dz9+DngtCMSdzqRTuK5ZWFDQKcZKL3zD2WJiQC9GxRsTYAJMgAmsfAIs4Ff+GHMPmcCqIABhPKUVItWinovd5CZDxZrGutZIb3+Vll3SoRWsRTBqTEEkZI9RB09drY73J8zmojiLO5Wi9QdnBsrC8D3Sslf4PCXCWdir5ZaNT1vpjaqp04Gscqxjg3tkxJloMJTqPf+akYUGiwGVUlUOnLpKF/DF65ukzTH9BsFINUmiH9dT+o/p+/DGBJgAE2ACK58AC/iVP8bcQyawegiUND4u7NDIRi52o+fk6tJ/6nLXmpp+VD49G1sQidJNhgaba5CtJn6gKc4js3IDSlHd8ahc8/R7WO+VsQtV0j9eCOu4V5Rugx/8zAWCnOjbKMe7DTcdc7JJvZUyd02XLKgci7XeSyw21LB7j6Vi54PoH9R6eIFi9I988wdOXrN6Bpp7ygSYABNY3QRYwK/u8efeM4GVRaBoHdIxwkIdEe6kjOkHWKyHmvViSkpeZYu0QeRr5mBWKug0hpSQ3Q3JgCh5Vc2KLRvrA6SQNHbUq7nCs2ZysFJY7BNaUWN0qkrdUo59JgYqxORAbfiwmQJeKkHLmi1NkWqyhpsMFhfa5FB1yN1RbSnbekTYnJ6Ih07ElUYVcqR5z8oaTO4NE2ACTIAJJCLAAp7nBhNgAiuHQGH9MWHL8s9wRYGAlwMnL6eOyvzKVplDhvaYbDWUcnLwTMKKqfqxueUdMqc0+lj9D3DTGTm7QwdZ2HA8KtBU/7su4Enk67nmCwqQDjJmk9YsVanafe+MYyH+IeBLtdFp673iqj2r54E3J7qkxYgXgbRD/VyRdeXMZu4JE2ACTCAhARbwPDmYABNYMQS0nLIekVPaNSMTDHzG5UjLZSOeUYd0rT1F7iq6m4t5gytMqO/YtclgyLzqFplT1jvDBQfHiiEcqwazRM6aDpGFfPTmBQJZ4APwjhnr3JDs/JbSTft1H3tDoIet99p4X5Y62jkt4Es3HdIXBLr13fCzx38HJgrQx6QLkBUz0NwRJsAEmMAqJ8ACfpVPAO4+E1hJBFx5Tk0t33G/7rJiLtZEP4d82XKweadSXA8BX9o6w1UF+6g9TddrwSlrIiZKflWLklfRLIxiUJGKq6jmOnJ2nwj5HVqWqw9W+HZJVVRJY1NiGfpYrEJxn9vlHugqSXR+6appVnLxZyNI1RDw5N7jbtNzzVsqd/9rOluNOVCX+ucVYjhuxdeVNMTcFybABJgAEyBjDlNgAkyACawoAkUbH9UFPG1mER+comwxO50OpyoL607CXx07hF3Rw/up3r5cbWI4scC22DRywREQ47qANjZYxOV4RwGs7C5Y34eEq+5oZIFg7ENW+rGObcI/tiahgLfnjiiljWeiFhfUDRSjuhjIugvZamL6Rt0NTgo52jbtxsMbE2ACTIAJrGgCLOBX9PBy55jAKiRQsvGgrtzNPuJ6waVJIdytej51C9IxiizK6BhO92gIeVjNQ4OndV/5hCK7YN0JYYerOfmdGxtdC1Z56Tm7W2TlubW8mpZ4bjYQ+ZV6tppEGwS8LEQgrlHx1XCTIT/40Y6tIU/nGgThDih5ZaNR16fOqnD9H5t2s+GNCTABJsAEVjYBFvAre3y5d0xg1RHQXEj1aHPCkRxbxAKP/wjBQj10Rs/UohQ1HNcz0cQWXJKqUPtPXJ1UwBc1HJFZedEuLOEDZH/TTa68nKDIqWwRViq4ZM50Q9lqeoWYGi5PdH7Fnh1SCuuOaxrEuG7hDy8SkKdec7etF1MjehCsLGk8INBW8xsGSYG0U8PV7p4WI9PNqht77jATYAJMYLUQYAG/Wkaa+8kEVgsBqQS0ih2PzswyAzcXn7t8yt1XLIs3HBL2bM+MfSCYQz0Hb0yGylK85RFhLxgW6oxEMroPutvrtyCYtkPklOE0MfngpQWLiGNXedzuxH72hevOSGt4cWEsQMg/f7xLqGPTaS4tZdsfkxSYa1qjCHLRmRwol6PtW1fLUHM/mQATYAKrlQAL+NU68txvJrBCCbiKioNa0YZjsf7teuYW38gaMdqxUXEWeZX8yvPT0aVhFazz0OBr3t6oBaaonGvcTXEWjsns4ouZbkwqWhk9v1UEfQ6RW3ley628EBWMauSD95zbDneX3ITnz6toUwrXemODbCkIVh1q3q0L+PLdD8QLwpW+IbsY765boUPL3WICTIAJMIEwARbwPBWYABNYeQSKNj4esX4bvaPMLVMj2RC49boILtn6mIBrygw3lOC4CyI+qS+5VlB/Qg9kNTZDxAfGcuT4hQYtu6xdZJdMZ7oxb2SB97TsgYDPTgRdZpd0yLzy9pnVXFHQafis7gIk82vOwNdeX3BE2k+Bu/4xIb09LOBX3ozmHjEBJsAEogiwgOcJwQSYwIojAAs8iimFN1MgqJgahIBu3UJ/UUo3HpAQvVFuKCSJgz6hDiMYNdlWuOHgtPgPC2hdVU8HksrBI9e6CovGdRFPVn/9b+EPXW/0fAnSTSYsuIRCUT0oGKWLf3PbJFxk1JGWXapv1C6zcgfhK98RJfLDbZDe7joUdKIUO7wxASbABJjACiXAAn6FDix3iwmsZgKK0zUgShr7kHqGJLkJhRQoiKRb4LXibQ9PF0QyW7EpW80ECjo13ZSUX+muBzQjlWSkmBLOo/rIwq6Lf6UAwbS6lTzGVx6+68rQsSsSnV9a7KrMrYD4Nwl/3f0GAn7gZKU6MVymZJeOisL6Q1EW/vA+Yqx9h+IbqlnN4899ZwJMgAmsdAIs4Ff6CHP/mMAqJJBXWNJlLdlwGJVRo11kkE894L6wfaSruWHCUd0m7LnT2Woi27QVPTB4dsfI2ERCP/is0sZDij0nELU20FM5BoR1cjqI1Fm540HpKAzpfvC0mTLi2L3ndo54PLqVfGRkZMZ92Jddc0o6i6cLOhmbLtCl8HYcugkVZZVA/nqkmzT1j/aDyFcmuutzLP78VTjs3GUmwASYwKohwAJ+1Qw1d5QJrB4C0p4XVIobjiIkdUZFVuntbVCmEMwqLX61aNNjuoU8UlGVhDbSMfqGq5SJ/oTpHq12Z0ApXH88Ok0k8dWENt5XpwW8dqWw4Si5uujpHhWy8l/8hIZOXo4fSZLjcvo/0Vte9XnhyA9MH0vCPLwAoBcGI2f2Fhbkq4JyzVtpjRHtB6+O91q0yQG2wK+e6c49ZQJMYBUSYAG/Cgedu8wEVgMBCOwjuoVaV8nGB6kWR9sdSLdY48rPCYnijUdmsNCz1YwWiPGuDck4KSVbECgbU8yJCi753aXq8JldsL57pbOoO6pia7gt6uDJvWiUcf81+/jol9Tyqlu0LKSqnGG9hw/9SPNu9+iEVJylXUoO1hi0j8m6L0UAbkLtjathjLmPTIAJMIHVSoAF/Godee43E1jhBGR+1TklvwoC1xQMStb1EAJNx9ob3Z5xRStEQSTDR90UaCp8gznSc14PdjVvbrc7Yi63lO39Z5QFXhfnEPA+jyXkPr+DflRcDceEBVZys589qe3AaI4cPbud9nG5XDMEvMitahcOV09UkKx+frR/qOlaLEwcwlmMbDVVpy8GsoYt/PDNDw0cu1oNeBO6AK3woefuMQEmwARWPAEW8Ct+iLmDTGB1EoD1u0fJr+2QlMrRHBBqRSrH0TbkYp9yaiUo+ETpF81eLGQY948KMd45w4ptFtuyeBMs8DG3UHKHwbHaWJvuBy/Ld/9bKKjIat7oWngzIN1nkmS60QJa4ebHhcVBO0e3H4Gywn12G8T7eaVw3VGhBab3MTZaRIwg3WRggiJoeWMCTIAJMIEVSIAF/AocVO4SE2AC0LzZRX0yv/KUbqE2b5T+kQR8YCJfWJ0e5HTvj2RzMYQ+rPJyorfaPYLCSAk2aXcNyLxqKP1oFxZN88MPPpxrvmjL41L3Uyc1b/pQcK17OluNsZF137Dwu3IdquZqaBLWOJenCqwjp/fl5hUEZG5VmxYvW81oay2y6XAgK38RmAATYAIrlAAL+BU6sNwtJrDaCShZ+T5yo9GMTDSRQFVY4EfObJKBiQJhc3qEqx6+8mERbkBDNhcx0dsgp4YqEwp4i82vFG08FFtwSWKBoI53bQqN95RaijedwCJhMjaVpW6B9zTvMov3GdfR3W9gvVfCQbAUCEvFqOiNgvvsZbS/kl/dIrNIp5sWEbRPYEyoYx0bV/sc4P4zASbABFYqARbwK3VkuV9MgAkIFDs6Ih0kcM0uJhC4UyNCQOC6itZ4YYFH0SeTm40u9BEs6u3YJCb69Jzx8TZpy1GV0p0PRKV6pB3JhcXbVa+Nd+kCGvngT10s5ES/oH3QnqneOvfAhVLah1xzjI9xLa0AAt5qg7+M2UWe/juAPPJHrtMvhUw00lEEk39MrnksQEJ9B6/nKcAEmAATYAIrkwAL+JU5rtwrJsAESCvn17bI7FII3Bg/eAus8GEfdPiaw4pO+dTDQaAkmMkC7+22IVsNomATb7CwH9TMudj1XO1WoU32WbXJfj2Vo1K+918RAW+cCiJfBsaLUJV1V8KzWxxerWjTYb3Cq9lNhg6YGiyfcPcVKa4NB9C/zti3AGSpVwePX86TgAkwASbABFYmARbwK3NcuVdMgAmAAHzUIeALB2dUQ6VAVffZafHsLOkS2WUxRZPIVQVVVb3TvuyJNplddmFmwSWJQxHI6u1eR8dZSrY9GnW8Lsbxf6Fxqxi/EAmUNWe40ffXVFUr3LRf39fYwsWcRGgqW4y27IZ4H4Ov/4UZga4w86sjp/dqoUCcJPM8NZgAE2ACTGC5E2ABv9xHkNvPBJhAQgJKbnkn8rF3zbDAkwV8+MT1brfHptkL+jRK26hb4Ulch08nrUKOt291D/UlzuZiLxhS8mp7Ys8vkcpRDaehlEVbHtZ916POTX7qXpz/gp6tJt7mKshThatxWsDHHhucUBCIO53pJm/dWWGJCXal9cfkQJE6OaC76PDGBJgAE2ACK4sAC/iVNZ7cGybABEwEpDUrJAvWnhYQ1FEb5VMfay8SU0PlIquwF3nXz8zwI7fg9uhpQTrGsZJEUBVHYY90NSCX/MxMN+rImStC3t4CFFzqkdnl09lqIhsUNqWD9F5ocHtG9TQ18fLBq4WbDkZ84HXrO33wf6FxoYw2X8w1bzWlm9T3oZ1VoQ403cQTggkwASbABFYeARbwK29MuUdMgAmYCFhKtjwi7Lm6oBV6JpfwByJeGT5xtau0aljLqzutV22NSslI+eLPNpCvuhnoyMhIxC1F2vMD8ENv0igXu/lYiGx1vG0jCjaVSptTU0p33RddMZVENs4/2bdeejsbEg5YVkmvllczGFvQSaKt2ti0+41SuuNBac9BWpuYTDok4AebbuTJwASYABNgAiuPAAv4lTem3CMmwARMBKSr/oS0wUJNAjdqw8+e5j30K7jQnI2I/IgQx+0x4CGRrQej0hb2U4/yK1dyq1qlNZvOclHEUxDsZB/cWAb1Yy3FWw7MdOPBPr7BNWKqf23M+S+2UpEBrWjrIzOOxfk133AV0lWWWEt3HEY6zDGhhbPVRNxtQiLkPr2bJwMTYAJMgAmsPAIs4FfemHKPmAATMBFQCqkgkmNsZqAnFUQ6NZ2pJbu8Q3MUw4weU/WU/M89Z7ebT4f/jhLwCGTtkk5yNY9dIOA37jN76VilsPFIdMEn+iX88H0DORDwiTPdSItPFKw/plvgzRulqvQNVahjnZvo1wjWPRPlZ6+3UIOVvqNOC/lj/Id4ejABJsAEmMByJ8ACfrmPILefCTCBpASU7NJRJae0e+ZOEMXu03vdnrEsLbu8XTiKBmZmq4GV3HN678jwQM7IiFtqmqbgE2uBb1Zyyi/Es5LDhUXPxa7kVZ8VM/LR4/brH0Wmm65Iphuc2wIXHfpMS3BpCWj5G47NcO8hC/xEv0Pzdm6g/SxFmw9S/vmopQUtPoITOaq72bwA4dnCBJgAE2ACK4AAC/gVMIjcBSbABJITUIt3PKjndo/ycYewDvmz7RNtjVmFa08oOWUtM3O6K/CTP3qtw27TCgtd+BQGioqK4Cx/cfNb13SqznIEwU7/evoSGvS0IkIjp/dNeT12n5Y1LvLXn9NF/sWddD94y0Tr5smxQT2NDM4fxCeEj25yLyzI1+xF648hkw7J+YsXhTjX4N4TGG7RxXkof8t+PbjVfG7aJzie7e9vuobnBxNgAkyACawsAizgV9Z4cm+YABOIQyCUW384rsDVpiz2qfYtzpyCgNVVf0qiCFO0Gw3k+GRvsUNO5iQC68jOCYaySrtIsEs9kNRww4Gby2hr+eTYQPWU6vBouXXHJIJdJf6uC/ywyLdMdm1yWPwUZRt3c+QVdypFm1AtFgsEPcPM9IdSVQZH2xtHBnsK/Hlb9uvZJuncxof2CU1A5J/R/fx5YwJMgAkwgZVDgAX8yhlL7gkTYAIJCGiFjU0RFxPDCk+pFoNTsJK37KTDlIL6Y9OBrDH+5rCah4bP7EsKN7emWdig8Y1A0vDOUvMLZbx1e2FJhUfk1JydWTHVItSx9vXqlLsi4fktOeMyv/64UE2pKvWUkshTP9nVKP0j5cJZ1qZlFQ9H+8pTqkq/kBMdibPc8IxhAkyACTCBZUmABfyyHDZuNBNgApkQ0PLrTwpL1rR1PLKRgPcKdejYVfQrWVB/HNlkoJJjsrlgt9DIcX2fhFvOujPCmm+yvtMJ6YNUlSOHrqPjtOyq80IhTxmzKwwEvLfLrvlGEgp4ac8O0eJCMxWa0q33dO6JjnoI+ApXYdGEVrDhqL6AiElnKf3Dle6+c+WZ8OJ9mQATYAJMYGkTYAG/tMeHW8cEmMB8EJBWn1a8AwWXZgpcbWqkXJvy2JTCDYeEPccd2UdX9br0FmrfgZuTNUMtaGzSsvJHIsWgzCLac/oy/Vjnmg5YyrFACOdrD+9Drjfq8JGrk51fKVjXrJDFHceSeNfbpaeq7JJiqq9WP9a1+VAkF7wpFab0DVbJ8TZOJzkf84jPwQSYABNYIgRYwC+RgeBmMAEmsIAEpDKpuTZerGpqXIoyt/hGytTR1q2omDqGQNbzURZsfT8I+LHWRqRj1ANN426Osh5UdO2JHGvaSRlr2Y1MN4qWXdms5aDiK1VtjQqmRUYZd/MeLTiZMN0jKrl2yPx145FjI+23CGXs3Gb6US3c9fCMv1Ngq3/AKScv6OkmeWMCTIAJMIGVQYAF/MoYR+4FE2ACSQi4XC5NczU+Hi8Xu+obdqnezumqplRwyZStZjowFJ/AeD581SPpHsfGxmS4qNP0VaX0q7n1TeSXfjGIVf893HTc+XKiq15zlF3QHGtajWw1ERFPFnhP824t5IOPT/xNOkq7ZW7ldKpKUyCr3tax89vdw/02kV19RqOCUlFuNNg5OI5UlRd0kc8bE2ACTIAJrAwCLOBXxjhyL5gAE0hFoGADiinF+LdTPvWpAQjolh26gHdtOiTxu4irSthdRVN9FuRTN7uh0L3zYj54TVVF/obDAplhojbaQw0K6W66wVVY7IMLTbeeDcecSR7XUz1nakXI70ws4It7lZyKZt3Cbt6ord7zO0VoKkez5Q6KnLVtSD0TY+GXCHbtWece6kmY6SYVOv47E2ACTIAJLC0CLOCX1nhwa5gAE1ggApqtoA+BnoMzXVhQsXS8a70u4Iu2PR4R2BE3F4pinRTaUNO1pqbpXuiGFd6VnwML/85HhbRN72J2kUHqSDHarPvBa5SJxpKH/whXbTX2Qw750PARPdg13iatjoDMqT6PlsYEqULAj52uloGxMmHJ9oi8egSyxlSEJSv9VM966R+a9pXnjQkwASbABJY9ARbwy34IuQNMgAmkRcDqGIXAPRZbbVVKqmraXa9O9BZZirceFbbcsejzQWVrPqGOntsaI+DNdnSh5a47IaxOJGuPyXRDud/Hw8fmbTguHC78IizEjROSq83IiSuS9UMWrD8unSUXxb+xUKDrjTXvdRWXT6oFmw/r+eKjMtEg+NV7vk5MDaxNixPvxASYABNgAkueAAv4JT9E3EAmwATmhYDFiWqoJOBjXEzIQg0Br00O6hZqS9GW6WBXswim3C9Tg2s1nxtO5gk2S9YURDzcXGJkPmWO8ffVuUcGCrWctac0W95wpCKrIcIh4EOeU0kzxcjcmnMyq3AiKtOMfjxcZEbDxZpyas9N+/Cb20+BrENC+gYq54Ujn4QJMAEmwAQuOQEW8Jd8CLgBTIAJLAYB5EpXtfy6o1INV0ONVCylYkqtRdrkdDpGpWgzij7FSTfp96xRx9sNK3zEzH4xmFWGtPzG/VFBprqjDSq0BjwlJLIL1tS3CVth14x9IMLVFLnmlZzaUxDwg7qLjLG40ANacf6xM7uo7Zq9pBeBstghOlUlLUjkRLseqMsbE2ACTIAJLH8CLOCX/xhyD5gAE0iTgOas6BDZa2LcUChTzAREfNtGOo0s3Lp/hgUe6SY132C26jmrC+W8vDz4qSD1OrLb0CHhyweRyvG+mU3BbTYw5pDj53Xxr+WuPS0U8pU3F3TCT4GRvNDoOb0N8TbpKBmUjgKkqjSJc73BKOjkbrrG7R7NEnaksnRWts2w8CO4Vk60bnEPdSUMlE0TIe/GBJgAE2ACS4AAC/glMAjcBCbABBaHgGYv7Neya7tnuNFYbEIbnc6nbinZe7ee/tG80c9+t9DG2s3pGA0Frv/rKsiHhX9TU+SwiJWcgmCRwn2yo0EX8K4djwiFqsKS+DZ9YFnXkljhUfBJU1xbHxcWB51l+jLG8eqEQ3rPbUeqyvNazrqjUf3T94NbzejJa2VwomhxSPNVmAATYAJMYCEJsIBfSLp8bibABJYWAbJQ51ScjecHDzeaberUiE3YcjyyoP5C9D6klEMIdu2KCgSNygVPPbUVDGrZFUi8HhPIqvqQyrFbd9HR8jYeEVgw6PnazRtce9TRM9NVWxNssqDxkLCGBXxkjUH/AReZsdN7XUVrJoSzAm03W/fx3wqlkmwvEMGx8qU1INwaJsAEmAATmA0BFvCzocbHMAEmsCwJuEpr+tTsyvOUmz1qo3zw7lP7UPSoSMly+ZSCjU1Rbii0M4o0aZO967WJPlf42Jh8jfittPlF7vojM4NUYQH39dW7+1uqRW7DcVjRfZHr61Z0+r+gUN2n9iYDq+RvOI6UktPXjQqyRWDuePNO+rXmrGzHIgR/p2Bdw5efMunA93+ibduyHDhuNBNgAkyACUQ/tpgHE2ACTGA1EZC5605KO9U0is7Uok31Sc3buUnX6gUbTkSCRSOVTxHs6r2wXpvs2UD7wP9d1TRN4hPBpylZE2r+lv26gDcEtn5Ci1AmO7ZJb9tO1Vbg1pxVzdEuNDgHXGjUiY4Nqs+dsOCSkt9wTFiyvNN+8NT+8AfiX/E0XU+XUrMq2oS9CA2ICWSFHz9E/t6RkREy4fPGBJgAE2ACy5gAW+CX8eBx05kAE8icgNVVf0rNKkF51Nh0kjYx1dd0DZ3R59x4LPJ34xJkpZ/ozJ4Ybo3kgy8sLFTxiSj4wsKiMUfZ7oemBbxJYFP11akexaGNlBfm2jRb2RX3XhTf4YWEBYGywdGiif7jehtoGxsbk/Qxfvb6kK0mB6kw4RITuwBQ/P21gUmPNadsx31Kdtn5yALEOBgC3jZ+7Oq8HOdF63/m+FbNEWPjXn4+rprR5o4ygeVHgG9Qy2/MuMVMgAnMgYDMrjyn2V1DMyqWUipHz+m9bs+YXbUV9QlHaUzFVIhmdQpW+I76ZJe35CALTJZr+tiImwvyyGtTyMXes46OtRTtfFh3mzFb6emHoFdRx6aDaWkLhUIWfKjiq36vDgYDEhb+g3GDbDVfjjLZsseWWzmEjDUdug8/baZgWm3s9E6LRVjngG/FHjo2PmFxjwzluof7XMjWs0YdPXGlu/+MHnjMGxNgAkxgqRHgG/lSGxFuDxNgAgtLIJtcTAp7ocbLIgkgdaFL+dRPXQnruU3YKRi15oL0HK+l30c22mfywvpkDZS2/CGZV9upuU9Ww3fm4qFU8dXbPu2i44KbTbxMN3q2mgu6i054M9JUhq38WlDkNSJPfUyWHA0LhNCkoo627MFxj8vc2hZhsd80HUxr7It9gh6r5r1AqSpPLCzk5XF2LeBxacHxfKTwLJkc/MtO6/jpHWLy3E7pPXaZ9HXkhda+75NYPH0gnC50eXSKW8kEmMCqIMACflUMM3eSCTABg4DDmTc1+uA7zqMA0s4oAQ+xLcfPVQr/yBphc/WI7KrTwnMEmWMoZ3tYByOQVYyf3x6a6HVZssvdcanaXf1KXsORkPsYBHz4WF21W4U6fm63OtG9Bj7qHcJe7BWBQYo2DZ+G0k0iW83UhfVuz7jiKsg1gmRJhRupKoOenhOHpn8MH2cEwQbHkMXm9G79UrkNJ4UFKd+R/Sa6j5qxz6oT8FrQm6v5+qvxqdKmOurVibbGwKn3b1An2jeqYyc3KSEvWGF8acFGaTdllpDeU3uw6qFVWPh1Bn+PmAATYAJLgwAL+KUxDtwKJsAEFpGAlrfpoLDmPptcYqIs7CR+R0/uy1//tF+OHvzEKYsWfFKUAKZg1PEz21CYqQy7xhXwir3A6z/1xSNBNfA0qedsN/Q5gmBHzzRo/pEqS3Zl/9gDr3xUGbj7iSTsIxvOL6f6GuRkB1n5m/EhES/NFmAta00HijWNiMnuwogbDjUy5EcxqnN6lhnFtX2/tOcENd8kKjhBjEY2BMqOHKJg1x8vIu5Lcil1smOtNtG+GQK9URs/s8N//O012lRPg+brLVMnL+TgfcS0UBf40BhYs6PbSW9bvEcvg4C34w+Tl6QTfFEmwASYQAICLOB5ajABJrDqCGi5684IKyzUfpMu0w3aEHWjZ8iK/UuRXX1OWGEg17O5mKzkwRGhTfXW4Q9nEoGT2dWtSPc4fb7IsVSRFcWgJnvIh/6wyN/aJAb+8cSoc5Cg9A9WCV8v7dNMwn1Grnmp+EP52x+0THU+Y9pSHD4Dqq2K4HClOtFVIbNKH0PbR4R/oNS8AJGU6cZ95OqVMOBuzygFEdg0pPhxWKaysgLnt4TGW3Zp4ycvg0V9j//wK4vgIlMAt6F8vFUxWdYhzC0Q6zFeSDOZIHd+oL9YBobwJkWgdgBvTIAJMIGlQ4AF/NIZC24JE2ACi0Ugp+6UZnX6ZUCzRwk5pIRUxk+TH7nQsso6NEexJn19UHKmWyUEuTZ2djt2+VtCAe8s65aONULzDWAX820WgbJjer7232i5DdOpKmmLiEmIy8CgQ/r6axKikBa/yNtwTAz8eVrAGxssxppvpESd6Nxkza7qmXzohefERDsicU0bpYOf6qvRAu4caXPBZ2R5bAgsBvRAFvL3wxoesklf9zpl8A+XCe/ZXfBXv1Kbat3gE0G7pvptutuQ6kfHyBWGwOJfWoilFOzmcQhzQQyBnDpL84EF/PKYKtxKJrBqCLCAXzVDzR1lAkzAIKBlV6HYkWtQTHZWRgtcCOqxY9e6PV678Lach596J9I/1kQHu8IVxn3icohFRSr2mcWcSAc6K9qls7wLlvqqiPjXtSQCWUenizVpDlj4bbAEU8pJuoDuyw6xCQu/mOpel1TA5yDNJR2nmHzsSagGBnIFcsnj2H9ZCjY1BUcepaDc6Wvo1yHf+WCOOt7RiP+AL/3S3NzukSwR8ubgky+DoyVy6G+blYnmXWKiZZucOLpX+geKI65PlIefFiZ6V8IqXcmapWCP5QEB7z11OX77i6VJilvFBJjAaiXAAn61jjz3mwmsZgIaajC5dtwnx0+9yJB+Bg6p+rKl9+wWLXvtGZFV2g6Lb7SAh1CGH/mN09ZgASf6mZt0Vp+TOTXHxchBCHjT3yHgVXfTTaHAuGV8uKtP5DR0iPFTOL/ZD96GTDfntruHewpdRRVQ89G2Y1dBnubpOaq790gkpbkYzEoW+CEEyjbT2wEUo9p+kCz8MqtEk87KC+hLp+Iob5d5G49K55oLS2n4R5C2UQkMVSKot1z6e9bKrq83ysn2jWKqvVGZPL1+OlaBGJFVPRxkGhmw8OInnQ7FWuFTWuVJwB+6EQs6q6sgJ6Z8bzoX5H2YABNgAgtDgAX8wnDlszIBJrCUCWhqSMvbeAiZaF4UlQ9egzgkFwzv2T2uyl1NY4+/v0VKy7Wx6SZRMbUE/tVF6GJ3vG4q1qwp/7GPXgjpYtO8B8T/RJdD+IbLNFtBv5q7Yb8ydqzGHMgqUfRJmercogY8FTiSBDz5wStU+dU4k2bJGdVyN7fI0UMIdiXz87SFXVIgpqLoGVOU0ht+b9v5abviqLggs9eexFuBLgTVLokiTurEhToEmaKqbVsjXIp2BFrvqJe+3lrh7y2n9I3TbyTIvz/8oYw6s9nSqXSSTMSTS5WvY51UJ6gBY7NpAh/DBJgAE1gIAizgF4Iqn5MJMIElTkAjAX9k2g0j7MJCLSYxp04KOXrySvzX97ScdaeFLRe7xGSrgeVbGz1DvtFxBbx+qpy1Z4UNWhSpISGqL/LAsUj3eIXIufoPwlF7XsZmKIRolVOdtSLoMfzXzcncp89jcU6J7HWnpa+9XhZdfo+Sv/mwkrv+OER6h8yuQXDt+4TiKBnEnl+71AOhBkYLtPHTu5FCcwsCTHep46f3+ppeXYL+Uf51FwWYKngzoWeDIcFuma2/epo9TWl1D88D/XS0OJrMFVOtVFzr8TSvwLsxASbABBacAAv4BUfMF2ACTGCpESh0FQTcw/1NuuU7FDA1T4/yFIr3LAWaCpENEU4ZS0LIVmMWfiicFPKcuAx7/ClR3yQy3Uh7Pk7Xb0jB8K6wwnuOX+GqfNLvRpt/inz08GM3Ci6RPzdtk+026deznwgjE40pG41F0zS3bHz/7VlZHwyifR7FljtxqRlragABpAG75h8qU8dO7VbHju/T3Puv8z3y5PXky64HmIYm4UOEAFP9zQQtaijAFAukjER1uKezOSbhYMX7w7RvPQbQLqdaaD6wgL/Uk4yvzwSYQIQAC3ieDEyACaxOAtI2pRXsOCaHH90eVdmU3Gj8g9Xu/paNqrQeUmw5o8gMkx+twlEQaWj/TfjdnYngKflbHkOmFwTK9pZEssWERac68vjN7jG/og3f16PZkc59qm86IJWsz9Y8oUmLJgJDZRDtNgh48wqDVC+Zq4PCVtCtOJyLXmDI7R4lP6BsGRorFkFvcY51pAJ51nf5j71tr+o5dAMKJcG1iLx9IID1BYmRSpPcYvCh3PizEd+zOSbe4MQ9T3jhZN7f2A8LOgTOXuMe9X3HlZ8VZ8fV+fXhXjMBJnBpCbCAv7T8+epMgAlcKgJSBtXcxkOW4Uf0oM/IBncXGfSUKJPtm/PXPvGu8X8/5wLSMW6LrWiqec/thNXZKhVb3OBGxVHaN/XwCzs0qUHAk46FqFWht9UAnNqP7RXIriKyqtq1ohvuhuitEM7qM5pzXbOWu+mQ6qw7JuylHVC6Kvm/h9um56kJf1ScL24GnPnG6R4ZyEMudFSo7VuLhUy57Pl+vZhq26RMnNkrJ1vW+0PkGm4OLjWUb1iwpyO8qdEZB5jGOWa2gj1eG/Xf0RsZv5C+tkbEGEwvnHhjAkyACSwBAizgl8AgcBOYABO4BAQg4LXcxv1CUV8RXa2UUjm67WKyq4FaBZF/2DLaFBHw01oPacmDY/ma90IdfkiYIxxuNKfFwL936246tgIhcxs6lJy6EzKn7kyA3E2y1rSG6t72Ns2SNyxsRUgar2o4MU4Oba6F0BCN7tEk1A2xri8FFoOWZ6irVOn+9p2y9c5q6UdhqSn42/t6stG+sAsMmqb7rJuqzabbsHSCS+OJ+tkK9Njj0rm+SdTL0HCpCPRRUDEWVbwxASbABC49ARbwl34MuAVMgAlcEgJKUOQ1Nuli2WyB1XOxu2F17SRxLkTuhqOSgiyNlI2GZRa+3OrYGfKDTyjgLeVP+YXMKutSciHaKRsMUjlKe3G3tBeMu92v1cu8avYyHA9fk5CXLLyJbMGxvzcCW+ck5r3eCen3+yRtpiFQye8ewbwuS9/PX4/qrnglQWIdH91fn7JnptgWypqeUNTHYJiX65vOGXJXKv72TSzgUw08/50JMIHFIsACfrFI83WYABNYUgT0fOqDrb1aToMHOcdhHp+uajqt/ZD/e/JCvWcEvu/es4f1v8GVYvpPYb9uZKtR3Uevw29+lqhj1jU33oW/0WfGBskctqrD6q5fUNLPse4yhoo0W95pv4ws8SoCTCVcQFAZdo06dnqP6j5wo1Sk9PkHvihlURsuTeeja+sLA49nNAQXnwk1d3uTMvbonqg89XE7E/PLdNxmZr1PEn91oxkZnTvsq2+MaySFJfLxU+Et69pekbPjkFSyzLEIS2ouc2OYABNYfQRYwK++MeceMwEmECaQV1Da6S/Ysl+daL05yo0GfvDWQM/WbNt4oVJ91T0Tf0cSkhDlWc/3CWv2hGbJHwvlbDgWzL3yr27PuBXWebNFPNoJXJK/TaRWqL4fNrWgoACpbea2jYy4LZIy6UgLxDcarfkcMjSBCqbj+SI0kS99XevkRPO2iUO375Leo9fCl71w2j0Hbw+yaseySm79aa5r7Xm0YoY/vRby9wZcWw4ERx+aKeDnxcIdb1UTj0cK6zodkolgp/5TdykegbL/SLgAIdMQxnZMWnNHFWfdaZm96YjM33OfkrvjQWl1eaDkVSmVOb3tmNtI89FMgAkwgWgCLOB5RjABJrBqCaCwkV/Jazimdgdu1m3P5CZDRZHIXUQL5mnqZCF+225teN3/CMUSUPK3P2zJXX94PJg3EVIpGXwQwaR6XCNJSLMIDudIREqbadkX5aSDn+GLIsIm/Tng14K5wjdAPurVCDBdgyJIdXKydYOcOH0ZAkw3QcRPZ34xgkyNZqB/8GfPk0F3caKrS4s9FOz+3SMQ+69FOdfo3TIRzMm6F/c88+AOEyFO1nVK1EOCPQAUsKhbXMj0UzSs2dZ0CWtpl5ZV26JmrWvOLt53vyVn4zEU0lqU4OA5jDofygSYABMQLOB5EjABJrBqCcB6rQU7f3dcWFA8qWB7j5K99pTMrm6Wzso2FEY6qWTXniI49vW3f9AMaWxsDDnP9QyOhgSlH8zKM5G11uyqMmfuUp0ssXZ97WNy5N6nQcDbhQYvD91f3SiKlMhfHa8FKHvMVNtGNOIvCUU85cFHmkv9vLFm7lmL+BSG7AwDTKPbbgh2vC1Rsb5SYF23V3o0e3W76qg7IWxVrZq98rywVbRqWXUnNesaBDsoAU0NKta8bHaRmfOM5BMwASawWARYwC8Wab4OE2ACS5KApfSG32Rd+fMeAdEu7SU9ir3AnUZDDSutoUY1PfATG9I+0j9hR3n9X0OSGr+LFftxL6eFJrNVb9tmZKw5olgccdMXatbCAVjdG6S/2z5dwTSDAFMEpIZGmy5Xg16nYs2J684j7UX9Ss6Gs+rY0Q16AGuqbaEs6gnPG/Zf132U8DLE4gpqjrqzmmPDEc2x5aCWVXVesxT1C2thPyzu3ULJRT81NU4+90XPp58KJf+dCTABJpCMAAt4nh9MgAmsagIyq8gDAH/NEILh824cJsPCnX4muWlITtovXNWIglTxa3JpQQSpcaCmIr+4HmDaV40KpnvU0WOXq56DV0898qQN+L207/zW07Fv/Cqg0uZTc7c+ahk/uCNhdslE/uoWuO5PoOJscNyF88cX8LaCYemsOSPGDm+Y9voxbemIdYNGyuNi6F+kMx00HAkwvZhvHj7p8Oyp7lRyNx8OZW095M/a8piwlbcIxTGmSacXC5oJBCqzMM9wYvPuTIAJLA8CLOCXxzhxK5kAE1haBMwi3WiZOYNMRJ/rYl7aKL971nQFU2+B1CbzQ4P3rQmNnd7pP/rGy9XRI0/Q/IMQ0hRgqueAn9b9Ep467gPXJhTwIqTA2nxCKE7s7p1eN6QbYAoBrHrPbcL/UZXZnrh4rbqAb5vO/R5vj/kMMDWEOhW7CutuuMBIa04QYjwcYFrfLHM2N8m8vQ8oOdv2o9LtEBZDodBUwKL6/GqhK58F+9L6nnBrmAATWCACLOAXCCyflgkwgVVFwBD0Zst72Eqv2eR40xXK6MFr5VRrg/Se2iMnz23xqQkCTAmb4cMO1xB1/PS2hCS1kCqcdWeENcsn/N6sKNt/Mvx6K7HeCLkVzddbgx/OxNudMq8Eun58VkOmG0qlM2NLd7EQe6B+XNhfnRYrCDAl331pK1QpwBS583ukvbRTcUKwZ284ouRsf1RmN5xBexIFmHLg6ar6unFnmQATYAHPc4AJMAEmkDEB5B+cDhbFv0jhqPqNbDSUTJ4s8YbbDJVszbIM/OZVSs8PXgj3joviXInxV49n4Ya4Vb3NuxI3L+RXneuPaNI+hcyUEPAJIkATBZxioQA/+Ctx/rsTXUM6156Vjsox4evLE3C7yXiLcoeBWEefJCXwobcGdpw3q6bVmrv+qJJV3Sod1eeFo+acdK4/Ia0FI0i3eclTN6ohLzL9dDZovo71WnCk2OK6+bdYaAxmzIEPYAJMgAnMI4FZ3I3n8ep8KibABJjAMiQg1akS6W3ZJCdadiBl4x61+Ck/Lai69u6wHzxJ1nDAqkbuM5Na9qbDwuKAgI9Jxxjb93hCOzBUpvoHSxV7yUDs7oUInHV7Jt2as/6UDPRcmTQfelwRj/XFaNMVmhqwSsUWN1BWyaq4oGSt6VP9PXlxhyphNhqysE+7BOkBptYiTctadx4uP4c1x+YmzV51joJLce5OW2F9C1I8XhIruts9ascqzJ6Xl+ulbPoQ6g3aVMtWbbJlq+o9vjfQ/MpaLThUIgKDpVpoPEvZso3iEVjAL8PvLTeZCawkAizgV9Jocl+YABOYVwKahgqlmmrRprpr9Qqmo0evUD2HrlOPPrcOvuxOFE1yikC/VXMg0BNWbGSiUWOy0KjI3jKpZm84Dlv3zLaldEHB5UNjLnXs+OU4+M/xOxfStOxt+8XYo2RJn97S8Ven/VD7SZ04dRn1ET/FFfAyq6Jd2Evb4W+zPvrc5gqmdE266HT6e+RSF5qtqlNzbjyuZu94RHVu3S+syLuuOMc1JWdUWHJH8QYjQOI+vyB70azsbs8YIndVvPrQ6NlHQQA5yuT+PXLqzO7Q0PnG4ETTDYIs7uqEQwtNZOH1RJgn9YsQ+ZBRs7cK/9E0rxONT8YEmAATyJAAC/gMgfHuTIAJrEwCSNuYpQW9LhQ/ytUm2hpDYyf3+o+84SoEmF6tBUYK9MBS46OnLYxklBHK1IUG98hglquwxAc60fngKYOKtWhAczQMSn9nSVTF14TWa0OIYwd1PFvztmzHbxIIeKjg7I1HpgV0klT08a6FYzR/Vzn6V4KDu+KNLIJIx33N70KQKy1A4Kuuhg3l9DbBko0FinOSgkw1e10z3jQcVbN3PqA6Nj8qLHkeaOQg+uvHJ4iMMIsm1Kkfbs8UehxEFPCUU2hTOXhrkiMmj1crvlO7Idh3SfyL/94KZrRKwjsCelsQzndvLEYscHkyb1jnqJNnkPEn0ViszO8G94oJMIGlR4AF/NIbE24RE2ACl4BAsPeP/xls/+5HtIlzZSKErIq6P7me8tHUGvqZiiSZfwWD7mTzHhF0V+K3rYb0NtS0qyBH8wyeH9aca0/LQNu1UQI+rmI2/5I0qFdoqK6aEImGSFbnpiYLuYvr6RZNLYg5Vdxz4Bh1/ChZ73+T6BqW3O0HVEf1CyDWx6R9TTc+FxQngkqzNxydkA0nVfvaFuR0nNLVPfJiulz5i14UacTjt0ttIkuGsBgJeeDi9PAaGbiwXvrPbZH+89sg2rfLQGeeHrtgLL5iYaXKdU+VXCeP79ZUv00q9kXv4yX4WvAlmQATWKIEWMAv0YHhZjEBJrDIBILj+dpES5lABU+RToCp0Ty4iyhT7RvgUlMcFvCGitZlvtsDQ7TqcwtHbYvwqBDwMf1KaoWnPyLg09e9Vgv5sqQF2WZiNohlFdb/ds1WOiyDfUUJ/Gfiw9SvDdvz6P4bkwl4pfAJf7TbS/qErbRHZjc2KbYCdGp684yOIz0msuFofj3nPbkRLcbIaZomtZA3T/i71vrH2zb4h7+9RQl21kl/V4MMdNdCtNdByGMsKX+9UZkWbw3M7wFSvQGhjpjXbxoEvPfQtbDUUzADC/jFGGi+BhNgAnEJsIDnicEEmAATIJ2Wu/GItBUEkI/dFteHPKHwhsILdueL0EhZGCQJ2Is54aE0NUu+R3WsPa+Qm3laAt5sSYfbhq+nTpvqqMd5T5kHa2RkRCksROpFKYNqzs4HLO6/3Zaeiw65ixhpHOHlEuivIkGcKOuL4qw9j+vSZ+amhfykio1KtAsxmahtdF7Nd2G9NnVus4Y0nIHzb9+lBfrqRGAILkADRbZAT+50vvpp93b9X2vuzOak4p9M1MO1RvV3V2jB4VKceHwh+srnZAJMgAmkQ4AFfDqUeB8mwARWPAGZXX8MPt2ohqS59M6mEnoRItgRPtTKVNtGZDT5i24Rd7vD/jfTKSVd+Y6gp/2P5zUbXOBVwz3HjDRJQSQF1mN/X7nqmyngSaniWnRwUDg3nhKev4QFvMmdhoS67tM9HWRKFUw1+9oe1bGxyVa47wFr3s7HpLP27GxTNhYUFMyrb/u0WJ+2rqsTJ/aKiVO7A63v2al6j1yJANMCBJ5m42/ZsK6TSg+7OIGR/tYkRZafjMbVND5RcwH+8pOnd+OvhrvUiv9ucAeZABNYegRYwC+9MeEWMQEmcAkIKM7KnqnHnj6sTba5MiuIRLrYIqT3yBVa4dNy8NM4RKi5KqsccXst8J3uFvaKfjF1ds2M1UGyxQIJ7tBgtubrqY7FEr4O5aIPQZCfsOiLA+hpiFmNcs4jwFQi44uWVXcefvKH1exdD2qOTYeQBWZcE4pqzy0YstjtsKDPfvN4PDZVVUnEh/A2IC0xj9SX8GsJ2RFgmm1Rglk5TkXV/H012sTxfcELH94Fn/wrkB0HBayMqrQUQBwOMDX81y3II59qixu4m+qg8FonyW5oJ8UM/DaNM/EuTIAJMIEFIcACfkGw8kmZABNYbgQCgZASbLnjfuE9Tq4q8bdE7hUIbpRTZ3fbrNOuMzabzewHHsrNzdG87gutFPwpJk+tEahsGrWl8oNHUG1oQrfAR224TgiWc7jQWHwyb/NRS8GVZ7FI6IRgP6051lMKx4dUe815pDn3w/kDywyY46cDXVWIf2Gfo3inE1mtyMxoDp6NaeP4RFDmZlu18fHxPBEccWlBd6k28VglAkwbpK9lm+I/v9HvP71V83UVT7v/kFU9zoomVYApXTfttyYxjUzHF960T8j7+BMwXyw2myVObtDlNvO5vUyACSxHAizgl+OocZuZABOYdwLj3kmL1VZ3wkIikgoQxROE8a6qCzspFN/59Q7ndKnS3NzcGTnVswuq2wM5leeCnuBlSQsuGdeICEayqMNHZuzoNe7BtmpXybrO4eFha1ZWVignJ8cQkKTKj6qhyR2KxYlsMOltXq9X+nw+Czm/h4/QA1Hx0ciaTj72+G+juiztQn8zFif6MWhD3GBOFD1CgGl3reZ/sC7Y98P12vDnN0z7sHc0alPNCModC/urY1lBzC2Unt3U7nREdYLCs0l7n855U4y9OtmycWpsuAC7DadHmvdiAkyACcwvARbw88uTz8YEmMAyJQALdVDLbjxM7jDIqqKL8rQLIulu8GOKOtG2BQc+GA8BfM+1QPuXm+FnT/o4jpXZOMqoYBrSK5jC3UVojp3dWs7u+6kolK4tpdQgnGe4q2Qi3sPim0Q6WfHjyloKkA372BtSmbLM6Nd1u8cQ7Ku/SgjqGWF87Ru0yfNb1KnzjdrkyR3+s6+rEYGBKgSYliLXfJ6eQ58CS/U0nPjXQt5GMVsqC3o64nsh9wmfW8qJXBlqp9Sejy3T6c7NZgJMYJkTYAG/zAeQm88EmMD8EEDwqeYe6Wuakec9yiw8revjC0/I7el0jHEFvC68s9efkLbCgBYcgg94TH55XZjD391aOqZmb98vHFsfQwXXI6ho2ooUOR7N6upHrvVxCpA1srLMR8/DfuthUe6m3ul+LLiObok39ZieF1kI1MUCZxQVTB+7DG5DO/3n373Jf+LWq2FxRxEsrxP/OkTIjV0pxjRswNcLIqVQ1gvkr64zmo2oT3gMrdYCihJooYJOLODnYxLyOZgAE8iYAAv4jJHxAUyACaxYAjJrUs3e1qSMP7YrIrBTWYVNMNTxY5clY6M4UPDIlj8lVFivlRxVWJyTEOgdWvae+9TsLfs1R+N+zVrcCwt1AB+f/i+CTaerhapoie69QgI7rWDRTMbJ7RnDNSj4FuVGpztvuNOETyOzlbF/Pt86/P23y8C5WrTHBqu6NUTp0PUAU6PwFZqpv2VIsWXANepMsxHj8Zoym+tHjsHQ+JquQbXX77oKHIuS9z4VTv47E2ACq4sAC/jVNd7cWybABJITCMGN5oAYf3RXxGqbgWDUkPJQg9Amd5m4l3FUn7NWvPhzwuIanJB1J0RW3RlNyYUzOFUwJR8TQelWUMn0YmpGU0pKOqXZV33OY+mdDCl+f8gqNW+2DA4Va9Lmg7V/KLw+CEeUTvvEU3obqY7nyammxuhqsmhSbOGreRfMGS4GFuT65ow4EPCBczvDqxYW8HOeiXwCJsAEMiXAAj5TYrw/E2ACK5iA9AvnpoOQya9O6nZhDjCl4kHkM6/6UWioq1YLDFFBp954kBRbvhu//wj9DRZvB6zYEO4BEu4k+LUExZDoauaP2a1lVmOhBcfyNX/P2qnRezZYJls3KIGOesXXcnko94m/ChW+7HNCm6I2mZOq67nmNcfmw0hkHw4+zVBUZ7AQSnrmdM5jXuoYJ0vnOPO4RlJYhuORLUVCs5QParbqc5plzQXNvvN+cJr3NyGzGlA+iAkwgVVHgAX8qhty7jATYAKJCJDl29N3oMlChnA9pWHsFq5eqge5InujNR9+7VvPK9mbDkrnurPSWX9CKllwEk9j0yuYRpYJuv8JrO2xctMs3OlvhnjXKINMvEDWGS1GgKmKIlNiqnWTOtWKANNT2/wtt9eKYP866esvsQW6EE1K/YLx3VrYHdKe+zUkhyRH91hx6let5Rc0a4VbhgaQKz8mBUxGAjkJn9mcJ51j4on6SDPC3kKUfUjS2MM7yFLl0WzrWjTbpv2arfaMZinr0Cwl3ZqlslVYSoddBc455c9PY4bwLkyACTCBhARYwPPkYAJMgAmYCGiWYuRRrx2R/o7CiyJeUuYXBJiuGUVu9cdsBTv3W3M3H5JZVS3CWjAkrQXD0po7MQuQhkA3y8tYizv9HEnvGL4G/Y4U9Iw85FpoIhdpDrdrk6dREOnglf5Tz92OTDAVAmkdkSknRwQ908GlkQDTcEEkDbnsg13rZLB3LQTrSbwdMAR8uD1Qt9I2qTm2NMmJe2+cIeDjdT4dYT2bfdI5ZoZg119yzGwlCl9JS0FItdaTWD8Ysu98WLOtPSWUgj64E7k1xTWMVdoUfN3Z2j6LCc6HMAEmsDAEWMAvDFc+KxNgAsuVgJLl1bJ3PSq1qRs1R/0pLXv3w6pz62OaY8MxzVrUrwlryJFfNISk8XMt4kP3X0OKkh91xJXGJNLxd0rxiI8uuBX8NwW0+hOKydDIPc8NXLjjayI4ikhSuH/oAaa0kWjH4dZEAaZ44xDoqpbBgWrNVncSx1KbjPZNB7UiyFfLWn9aTNx9Y9zhTUdYz2afjI8xUnGG09br6SuRZ15mhaRi90lbWbd0bDmkOHccULL3/Vvaa1rGJ/zWEEICsJ8XGYlm5PFfrtOZ280EmMDKJMACfmWOK/eKCTCB2RKQDneo6l2vDclcr2aBVZ381MMWcAg7dWTErVitUZVWZ3slQ4Qb1vVIjnU6ITKcTIt2dcqJrDUFMuQuxWeNpuSMw0LcBPcZX7wLo9prN9x4pjRtMptcQZA7PnX7dBs7LPChvnwRhA+/ROYb1GzFb02LDCwcpH1Ky9pwQpDfv2J2kU9yiYzFt2nZkKzl5vNS/K9efIsWLPhXgVeQtTAgrUVD0uIaklk1LTKr8bji2P6wzN75KFyFUIDpH6m58B5MgAkwgSVKgAX8Eh0YbhYTYAKXhoCrsIiEa2eiqxcWuuYr68j0eaQFKh0fWIndowEpQiMFMthfK7331clAHyzicGvxX2iQ/nM7pO/sOriwtPpq/m9PovZBrJ4VtuJB4W8rShiIGyuq9Z/xf+okRHw3UkQG6NlAPt5GJhragXxN/Jq1Bj7gufjRbKAPtyYdsR6+VFT70znOHGBKIl1P2kNvF/AHSzHWKhW9ZEnHv22KvfacyFp3BqL9iJLVcIoKX12a2cRXZQJMgAksDAEW8AvDlc/KBJgAE0hOQDrh0xG0ykB3tQy0b0JRpG3S374eVnByY6mRgS4EmvZlRXKs624g0PmBjgq40CQ0q0vbmk5pK+pDOsuNkVpR6QpkXEPxndmqqmO5BYUVQ6ag2rADuapplsIBzb7+vPSfrNct/LFb3MVBGpMhYRtNAaYk2BUk77FWj+EtxDnN3tikWqpb7M6aFnt2TbO01bQiHsGdxtV4FybABJjAsibAAn5ZDx83ngkwgeVIIBQYXjN57n3fgnDfIEMjJcivng/LOyqYIiW8nnKdDN/4KHSLNotk8u2ecCj+9s1e7+RQTo5zxtsAqViDgc6PHVdH77sOqdunLdTxtni/hoCXgbO7EfBaiEOQDz6yTae5LMgNeYbbh5FKEQL+WL3ettkI9hnXNnsTmRsLPx5LgSps9Wf1ANOsHY8IS22zZnENIMB0RFMKhzWRPeVwOTgjzHL8InCbmQATmDUBFvCzRscHMgEmwARmEkA9JgV+2Bap2Izo0Rk7wZlctYz+7jZK3TitgMMBphZHCqS0b0goU03Xifxdj+KHuMJVOjY16dVQVe9FAZ+OFV4hC3/7OqF5XTENibigaEo+cqHXtuoxt7rvfBqzIGqfcIBppD4ULVbIV9+O8FwEBlvKumFZP6ratj+sZu36F9JWtsH3Hs7tdlRPsk8hDoHFehrIeRcmwARWNgEW8Ct7fLl3TIAJLDABFEXK04LuIhHyFKu+zvpg5+evRICnXw0MfUGxFffHvTyyuaiObacV35FN09kgk2wzLNwQzv7TO3FcQr9u6Vh/UlqcPk0dz0qvIJVxfQqaHbYgR3yN2zN+RA9WvSjRKU+9RICoV7PXnBcQ+wkt/AkDTNFkBbG11sIggkxHhKVgWMCaH5R1J1X7tkdU+9YDQin04JrUtwDE+mxScy7wiPPpmQATYAKXngAL+Es/BtwCJsAEljCBEc8E0rNYLbomDbnzRKCvNtvmLlNC/VXa1IWGQNsHG7TJM3vUyeb1Qh3Xgytl9uYhi+vG3+OIuAIe1nm/lrXxqJg6tCllQaRYAU/p2ANnIeCRFSbBpjjXH4WvOMSvdjFVTDqWcl2uW4QlcHJvQN13D36YirmOItQgXh9Ut8EyPiFDgzDzk2++0RCyrlNGGAowhfinzDY2BJhay/qkHW43top2aa9tUbLqjsuszYeEva6Fss1PeLw5iDOdLHTlzTU15xKeSdw0JsAEmMD8EWABP38s+UxMgAmsIAK+yXFFCw6s1aYObFYnT28XvvYNItCLQkd9daFgV03I34tynfDm0INL6QNXEAuKIkFga8H+It/4BfiIi8fNSCYmJnSpO+kLWmx52w6oo+rzUxng9eNjXFAs6kiJUIfW4C+ddM7s7Owoa/yk3zEprDXnEPB6WdSQpOOvrikQ8Mf32Zy2UJYj1+/z+fQc9VlZWcY1Qr7Rk2e10bIBLdS3Vs8tHxHsCDC11bgRYNqq2TYeQLDpOcoKI23lEO5rW4V1TT81wemYkRUGKx/emAATYAJMIF0CLODTJcX7MQEmsKoI2C2TRcHuz31N9Tx8s1THrCI0KjTNFGBqoeBSJJKJ3Sh3e3BEBiY760Y8k7KwwKmNjIyQo7eAGKZ/NeRpV/Pytz/u70pgcE5qLYcHvZjIFr6Tlw27x3txzhDOb/jhaIWFhRp+Z7Xat+23Tj2WXMDHG1E9003zZrvdqjcOwn1GUSN77tpmv720TwRy1qq2rSfhs34kZN/+KMT7KSFdPULJH9EsRe7pCqZZbFVfVd8c7iwTYAKLQYAF/GJQ5mswASaw/AhYC91qcLRA9bVZhQWFgZC+MOVmCG/8qwQ76lXVS2VPvchDTofS/+k5EfGjKq0lqAZa79H8XQXTWWdSbJFz4z/UcYc2dWanzL3mD4WuXM2U7lG/Bkq1BkVWY9O0e06KtPVxAkw1X2uNFhwuw8Ht8TV+zpga6Hs2rWjGvKGgJuxIIO/wuVx5CQN3U3WP/84EmAATYALpE0gRPZX+iXhPJsAEmMBKIkDpGBUHCgJRxVFdCMfZjCwssf8i/aP0N++RqpvcXIzNkMpaQT5cXix5Iwg2PaH7isdu8c5rPo06gQKt5xulnHbNj91ISKv2TYfjBrCaz02ZZDRobm1SL+JE7jDS6tKkY+2IFuipTTaeiq2sW7GX9xQUVg24CkvHWbyvpNnPfWECTGCpE2AL/FIfIW4fE2ACl4yAdMCKbc17qS5u9VSPMU1J5OpCwZuB9o3I604CHikXo47UfcmlJW9UZtU1w3/86sz84GFfJ9Ed7FmHNJFwuhfkP26y/U+3EbnazyFPukeqgwUR4785wBR55qW1CDGoZYPSXtWGQNM2mbX2rGJvOCkdWw4KW9W5SwaeL8wEmAATYAJJCbCA5wnCBJgAE0hAANlkDklr/pQW8DqSWuFnHA8/8mBXLlng3Z4Jqx7sGtbVxn/AD94fHPje6ZBhgU93caCfAOIbWXCUYHsjfjgYPmfMGWRIdexssnj/fIPuRoP0jZq1dlQgh7tqW39MtVS1OnLWnbY4qs/KrHXNiiWf0jfyxgSYABNgAsuAAAv4ZTBI3EQmwAQuDQHpbDgmrDnjIqBddIBPJx2jnpklQFb4RuHYezcs4KjYhPQu0z7wkU3a1zULWwn0NbI1JnLTiTrA+AECXu2vEMGORrdnqkloU+ToHnN+JaBl3/Rb1VI0qNp33I+MMC2aggqmloJBTSkeQAVTv92VxUWRLs3U4qsyASbABOZEgAX8nPDxwUyACaxkAoq1cNDX/NxebepsSWYFkUAFqSUV39GrQrlP+y58xCf1IkgQ8C6XKyLipW1Nt8yqGtKmmovjFnSKDTAlSzplwqF/1UGbDPbUwRpvRKqG/zA9IrjOhHtk8Fsh55O/L6RzAj7qnA1mJU9W7hsTYAKrigAL+FU13NxZJsAEMiUAf/ADYvzAtotm8zTPgEqlMnAGBZcChvWeBHZ09VRbWQfypHdpk6dQ7QhpKSOCnQoikVjXU7BPHyZRwdSSD72ejwqm+aPCWtmnWteegTO8sSiYIdBdhSUw7Qv68MYEmAATYAIriAAL+BU0mNwVJsAE5p+AkrvnwdDwT/9Tz9aSyAwfz61Gzwd/vkGoPuSg1C3iM/I5Smthv7CVX4DS36FXNFVJg+M6VBjKShVMS4elrbJd2MraFfs6VDBtOCad2x5BJdOzdM6RkS/YkWc+Thqb+efAZ2QCTIAJMIGlQ4AF/NIZC24JE2ACS5CA4tx8UBfUuoAPb+kk4KWUjOoYgk27GnBUS7yuSWkNBno/36wiwFTaa0elva5ZOjYclXaqYIrMMLaqVvzupGLNixtgWliYzz7sS3DOcJOYABNgAgtNgAX8QhPm8zMBJrCsCSDV4ylpyfFqYgKW9CQRrHGt8PBs9x260e0evcflyo9rKbcUvehLSt61f5FK3pCwFnUhv/rAsgbGjWcCTIAJMIEFJ8ACfsER8wWYABNYzgSQ7tHna3nBKc07cFlUP2YEmJpjSMlEj+qq0i6UwNl9cIyhUqtxBbxir6Bqp3Erni5nbtx2JsAEmAATWDgCLOAXji2fmQkwgRVCQMm9/N+q96HLpg3wYaEeCTDFLyXiVCnPupI7JpS8Uc1W16LaGg9rWTsfUG2bHoH1HWkkeWMCTIAJMAEmMD8EWMDPD0c+CxNgAiuYgF6ZlKqxkoCnbDGWQoj1YrdmLesSljWdqg3ZYGz1x1Tb5v0oltQGyzsEuxpyFeSYHOdXMCDuGhNgAkyACSwqARbwi4qbL7aYBHp7e4vtdjsF+emyS9M0i81m8+fn51Pped6YQNoEFOfW/Ur+zSeks/GgYq85MxUq6lVl+TnVWndSWIpHMb2QYSakugqcnGs9baq8IxNgAkyACcyWQDo1BWd7bj6OCSwKAa/Xq3R0dGxsbm6+rLu7u6GtrW0LflcwMTFRoKoq+R4b81xaLJZAXl7eSHFxcU99ff2J6urqs1u3bn0UP3Pg4KKM1vK9iBroLVFs5YPLtwfc8qVMYGRkRBYWFkbXCVjKDV7AtoGFHSw4w9ICMuZTL38CLOCX/xiu2h6cP39+7b333vviBx988Nl9fX31U1NTeX6/345/RSgUEgoK6cTb6G+wxAuHw6FlZWVN5eTkDNXV1Z286qqr/nzttdf+Hhb6QQh9H8S/BrE/I3f3qgXOHWcCTGDBCaBir01KSUKebmD4T6ninrTqXLFggLHgfu6g/pugR4wx9Dv8LQg2HF+y4LOSL7AUCbCAX4qjwm1KSGBwcDD/wIEDt/z2t79926lTp/biBu+E0Nb3x8088kkHIVxqUJV++kPHkuDHw2AYQv4vz3jGM75ZWVl5Dp+edM7F+ywvAh6Px4pxV+MVV1pePeHWLlcC999//62PPPLI02FMoOxEuuUd9zIlGAza6XaG+anAyDD+hCc84f927dp1aLn2M9N2DwwMlH7/+9//EO7JFhhbEHCiL2T0W7xxLrCRGzdufPyWW275LpgF8T3mNxeZgub9lz0B9oFf9kO4OjoA15iyhx566Jlvectb3nT69OkdVqtVF9wkvGEtnxUEQ/CbD4awK/rzn//80r/+9a/Pv+666/6Oa371mmuu+fusLsAHLTqB4eHh/MnJyVzThc0Pdv2/fT5f9ujo6BTervQtegP5gkwgTODw4cM3/ehHP7o9Ozs7LhMyTMCgIBobGx/BDqtGwMN9pgxc3ux0OhPOFTK6QLwXPeUpT/kWGLF452/VqiTAAn5VDvvS7zReI1tgVdEDAv/0pz+95IMf/OCbm5qariDRjsDUBesAiXpaHGCz33333c/ANZ/w6U9/+oewyH93y5YthxfswnziWRM4ceLE7qNHj15HcRAf/ehH14+PjxclEPD0a4VcrZ72tKd9FQ//r836onwgE5gjAdzLVLrXJDJAhI0TGv5dVYHR5DKTjAthJwFP/OY4BLM6HM8myRb/WaHjg+aZAAv4eQbKp5s7ARLvdANvbW1d95WvfOVLn/nMZ26GZdyJ18lzP3kGZyALECy1uT/72c/e+Pjjjz8VVqGvv/CFL/x/WEDELciTwal513kgQC4Id91115s+9KEP7YB4r6bYB5o3JHySbbTfZZddVjsPTeBTMIG5EEjHcky+7+nsN5d2LLVj0+0vCfh0951zH/Fc0mMSyLAEV84cuD89A26cV+D3a8rKyto3bdr0+L59+/5eVFQ0ySJ/zrj5BGkQYAGfBiTeZXEJkAj7xz/+8fIf/vCHd0KY1dLPiy3ejR6TdYw+yGxT9/Wvf/3Tx48fv6qrq+utVVVVHYtLha9mEAD/8i9+8YtfhXB/2tjYWJbx1gTByGlBItcEyka0mA//tBrGO602AumIT9onnf1WErt0Y/M0fOcXhQ0ZlQAYRn9F3b9//1Xvf//7P4GsZzfAXU8GAgGBZAj0ZjiwZ8+ev585c+YdEPlnScTTmwLOLLSSpubS6gsL+KU1Hqu+NUNDQ9nf/va3P/qrX/3q7QhQVRbSXSYT2JS1BsJPwq3m2e3t7ZtxE78d1pZ/ZXIO3nduBPA2REEA81Ne97rXfQc5/ivm6E61qNa7ufWcj16hBNIVn+nut0IxJezWonChrEDUAojyAO4/V334wx/+MwJtC40YKnpGkVEAYt7273//++lw4SuEiP8vEvHw5yfhv6pcoFbbJLyU/Y2fZ+9StoivvWoJdHZ2lsJl5ssQ7+9EJgYl7IueEQ+yeOBYAfEvyFWCPkhHpn+Mn8liQqkkM93ohk0363Pnzm36wAc+cBeCXV+W6Tl4/9kT+Oc///lyxEL8rr+/v8IIYp792YTKlrE50ONDmcDqIaCQXz7cZvK+973vfZzEO72VNZIoEAYjixlZ4mHcuebvf//7KxFQT28H032bsHpock/njQBb4OcNJZ9oLgTgFlFM/u648b2QrN2JcrgnugaJdhLmdGOFe0t3aWnphYqKihbsr8ESMkCvPmHdr8Q+DtyA1yKrTR2EIFlRZKbXI/EIy0re//7v//4AW+V//ud/fnoufedjUxO45557nvqpT33qS5RiL9O5keDsi2K9S90z3oMJMIGlTqCgoCD0l7/85VZkQLspVVvJyHPfffe94DnPec7nc3Nzh1Ptz39nArMlwAJ+tuT4uHkjAEGdjUDVb8A95XmZuszQq0sS75s3bz5MhZiQG/ggcre3QbT3w8LaA8t7NsS8lxqL6+Rg3ywExJZBzFdg0dCADCbXPProo0+l3MMk5NM1mNBCAf7X5NLxBJyaBfy8zYaZJ0KgWCOyy/wvLFp5NEa8MYFVRoCtuEtgwHt6euqRgjalcYkMDIjdqsGzxhpThGoJ9IKbsJIIsIBfSaO5DPsCMW371re+9Qn4Dj4vXXFmKsCk7dy586GXv/zlH0cGgINr1qyJV+ZeF++0hYU8/UxWkVP43IsKrr9GZpnPHDx48Im/+93v3njhwoUNZJWPlyPejJdccHDNk3DpeDXeHCxD8sunyVjYvezs2bNb03WpMgp7Jeoh/Z2K5HDp+uUzB1ZxS1m8X/rB18cA94y0C45QoalL32xuwUonwAJ+pY/wEu/fb37zm7f//ve/fxM1Mx3rNwln2o8E+yte8YqPXXvttX+B3+Gsy4wj/dcILk2fE3Cr+TlcNV7861//+u34bz3NYLwczWTxx2JgCOL9FeXl5Z1LHPGybh6K3ez5+Mc//qJ05gfNjXDxmwDmBJVXNzJ4mP+lWAg7UoSOsQ/8sp4aK6HxLPKW0SjCgOBP5xlFXcK+QezLbnrLaHyXY1NZwC/HUVshbX7ggQdugl/z2/FaUs/7nmqjwFRY2YfgW/ill7zkJZ9FCrGJVMdk8necb+BlL3vZF+Dn+M9f/vKX70T7nkUBS+YUliTeUTlxChVh34LCTgcyOT/vmzmBkydPXoWg4XoKDku20bigIuPE3r17//mkJz3p/9avX380jhVML4qD+UYCfjTz1vARTGBeCaQr4NPdb14bxyeLEJDILCNbWlrug2umBxmwCpI9r+g5hSre/8Jzg55PNHYs5HkyLQiB1KppQS7LJ13tBOB/XvSxj33sg5TTO50c70jRJSCYj91+++3vwc3xb6997WvnHSEClbRwAY4TXq/31Sj28/ef/vSnH4Cg324ETsLNR3vxi1/8mSc84Qm/nPcG8AmjCMCPtPSzn/3sU83ZHuIhouBlvAnpf+Mb3/j2pz71qT9FPEVKkuG8zin34x2YwCUmwOI98QAsFhtJwfMwChy86aabvvfjH//47eTGGc8aT28BEbjqufXWW79Nb/nwM7ndXJKKsZd43vLlF4EAp5FcBMh8iWgC8Hu3/vWvf30dqps+IR3xThaNG2644a9wpXgeifeF5GmUyCaLLsTgLz7ykY8857bbbvs+RKSf3DNuueWWn8L6/0m0m6uxLuRA4NzI+14K3/fLklm7aEyw8Jp45zvf+VoS7+k2iaopprsv78cELjGBxRKql7ibs7s8GV1md2TaR5EF3QIxbnvRi170qf/4j//4Gu47IXpGkJCnjf6l5xS92XvlK1/58SuvvPKPaZ+dd2QCsyTAFvhZguPDZk8A+d43Idf7O9JxmyHr6tVXX/13VN18Gfmdz/6qmR0JUahSEQ74SbeQNR7X7kSg6w3kOpOXlzeZ2dl479kQgK96Ll5Xr0mVmQgPyz/DMnbXbK7BxzCBJU6AxOlCC9SlhiBTlxOyci+kQSUSxAo3S8+rX/3qD+zevfvfqEvxiqNHj94Ig1R2dXV1NzKhPXrzzTf/YNeuXfdQ2mJs1K5M+7LUxoLbs4QJsIBfwoOzEpsGX0IF+dPfh5SAJfECRM19JvGOtJBH3vve975yMcW70QaId91Ki5s2vQK9A248Ciws/Dp0ESYmUnTKv/3tbzsNC1e8S9LfIO5DeEPy1U984hOL0Cq+BBOYPwLpZipZbcWAkn3nzfQpSBRpgsm9RcHbOokYmAURyyTGTYsoK96+TiF5wl2XX3753XhGZdE4Yh+NglxxP5rEzxrEu43e2tJ/z9+M4TMxgWgCLOB5RiwqAVhUGxAceluqaH5yjSgqKvK84Q1veE9NTU33ojYy5mKwxNvpYYFXpAtp5Zl1F8OvkMkdznCJ07OuzLebCN5EWMDASYGg4cbSdejhZv6X/tuwGtK/Rrv036FNaQUe4y2Hdtddd/lSzRM8JIO1tbWnwCA73CbjYWtknqFfR6yYlD4SC7NIatFZQ8eBuKbdfO6YcyV6cOu/p/mEtzyzzp5kXAtz0xgPc6Yd1XAFm0v/+NiFI4A6FI7vf//7VKkz6UUojziMBml9Z+bSWsxlBXNmhnECxe5yw7nMjXkrSkpKFvQNJO4zeam4UF8Rj+RHQgFqlz9R3yHsLXiW0PdUIaFNIhv3Fj+MMVHgwTju9xWGBDv2n0pw/oTXnctY8LFMIF0CLODTJcX7zQsBCgrFDZoeCknPRwIevuYfv/766/8xLxeew0kg+C75jRoPWErDEhHOZnEeFmv0N/3vZI0CPyXRQ3m2KPAmgs4/bhxPmRngF2oNWxJjXxfrA0xClSxR4WMyjbkxMjgknCy0mCC/U7zNMcSwIULM2R+M4yUJ+Nn2P/Y4cE9rXuAVu910XfP15yzg6XtEfacFz3z1i8+zKARo7NMdswV3oSHxjniTBmRa2Q3RXov6GGtxHyn+8Ic/XGkW8JhrwTvvvLMb6XfbsXA+g09zXV3dSQRuUtrW+drS5ZLO9Yz7Ugj38SkkJNiG+Kut//rXv4zf62xRZTXqXGGDjRPf3bvxhwvmP7a2tja2t7dvND3DzOOjG92pAiuSIDyUTgN5HyYwWwIs4GdLjo/LmAB832vgQn49ReonK9pEwUBIBfirpz/96d/I+CLL4AD4dks8GErCGQqMh1XEag0rUQDpMgfMXcGDU8UnRBlZ8ApXA8sKLIQKYkUAiWlY9ybwQO7DvgGIeF1g4+GVtlikBxQKWjWi8uA6HF+CB3o1PcTpdTFE/GhxcXEPrHDdeNgfx8P7KK41hYe9NezzGRHLpN+RstEJd6nycE5kDVmH3OEHn2GdF6icmyiXfkr/XxLGaOd69JUWF4lStkUesLT/+fPnp+CS1QHRO2vRgQw51TjPdly7AbwrqbIv5q2Dxgyv0X0UMwHmfXh7dArWviZY24foVT/GPK7VHulK14Av/c385kB/m0HsKLMF2jvDEgsLYSktiM+cOUP9Nx+rTx8cM4wxGzYWEMbCDwLNhWOuwHhsxPiU0RjR/rTwgzi7gPHtqaqqOodCaQ/DyrngFuBUX1vMxwbMy61odw1Ylw0ODlZQf2nOoY8jeFvXh74NYD4eX7du3QnwnjQWstQt8xsJnCOXAqRxLD3/jDlmAadx+n7R94wqOc+lvkSq/lCbYr+7CY5ZUPGO+5DlkUceeSbie57yP//zP/sgTDeBr5PaQiyM7FvmtpFxhe7h4KXRdxf+36e+853v3Id79o8h6KPEbhocFnoXnR/do1DReduXvvSlr6D69rW08A/fk4zxp4V15J5E7ptwkfk30tLeE9tAiP/n/PCHP/wEzRPTOBoLc/qOKxs2bHgEBo4b8b1Na5G/0BD4/CuTAAv4lTmuS7JXKJL0QhKFyYJX6cEA8TCCfOwfx78Ra++S7NAsGwUr0L4vf/nLX4FoqsJDgG7wxkNag8izQDidhGh+MUQ8VYwVEGhOPDSeiwfQlciJvuulL31pwTve8Y4c7KsLRnrWhv+V5OKCdJv3YqH0ejxYe0nAm86fsMUQo5sQlPUSBGVd//a3v30jfEtd+DhoMYUFR+Q4WnhR5iCImyCJeYi9s1/96lfvhqD9JcTqGewYooqFJBixbwAif9Mdd9zxOxyjLyBMQpt+JAu+D24gOyF2E4214ZIzo+20EMCD1vH+97//76ZFgX7eOB2NiFssKhRU7/0I9slogUjjAPevZ9x///3PBaPL8HMJGOVQHQMqsW5UgA0vskjIayQKITAHICqPIvXoz/bt2/cPcCFBHLn3QjCVQDx9F2OwmxZv4fE0AuesNEde8IIXkJP/t2L79fe///3lKDz2Hohs4mcsBg13Bzru489//vO/B8GqgpEFbb8FfXjem9/85psg/ssgMvJofKn9tJH1EG80aIxDOKcX49KJTEyPP+95z/vy1q1bD81yys/qMCxS16J/L0W2qlsxn9fSnMRiyE55/M1zku4nFJtCghuCicT8hW9+85t/hBj9IwTlafTbT0KV5iSEXIAE3He/+91PYvxKyXc5PF8UWqTSAgvfu/a3vvWtb8DvF6zOAxbBGlKkzorLfBwEHsqhQ4du+cAHPvAu3I+uxXfQQWNPLDHuaV2CDANYWNVg3tZgjJ70xz/+8fbPf/7zv8Cb00/jvtBP9x7wvuRuh/SGCnOhBuL9E48++ugNFHtF34VEnaTsMlgI9uI++yHM/57Y/WihjrlD9zI6x4zz0H0Ac7UknftuWqB5JyaQgAALeJ4ai0IAD1wbhNw15HuYLHUkWT6QqvEnEAtHF6Vhl+AiYJEHwbsTVld7bCAvPTxIjOJfG6yMBVSp9rnPfe6bILRcJO6N1GWJXJBIcEMcbCLLJAWCQpAktGJjX6W5uXnP9773vY+96lWvuhZjk0vn1xUw2mB8Yh/otA/GyQpRWIQF2RXHjx+/Au18zxVXXHEXBZQ2NjY+DiFAFi4VYisbD89SEoXxNlqwkRtOkmFIaoEk0QGWlZkMI9UUgLgoS/cYxG2U/va3v30THugvwZjVok82Iw+0wSi20BQ9xGmu40Geh8VYHqzH9Q8++OCzsDhrffazn/3/brzxxl/h+rplm3JMo/JvI/apin0zRdehOQLBVRqvvfQmB3zzsFDIi/07tQ3XL6LAcYzRNT/5yU8+gAXaE0gA0/fMyK9P/5rHmK6JOWpB+/PR3y1YNG65++67XwxRe/frX//6/0a2jQX7btKcxPW2w8L5AQjBp6Kd2fid4Y6VbE4q9IYIc7IcLMvxduHyn//85x/Ys2fP33Ge/8EC6hiEvb4SRb9cWBzswPcDXY/2qKK5DT4F6H9OuvNjDvul4yqSzj4ZNQFzYctHP/rRjz/22GPPQD+tNE+SvRFNdHI6jgQ/fWjO4G1O1S9+8Yt3IPj85T/72c8o6J9qZSxa5rB47SSXH7pP/d///d+HYAR5BvUzmfsmjT++oz1YoP8X5s6DOHZGBTm6ryV6O2G0IRz4Ou9jl9FA884rngAL+BU/xEujgxAnW8jlIFnmGbp5oiDPIMTNii6SRK9uydKKzwwBTw8XPAwd8Ml83Z/+9KfXwsIVEXXGAzPZiJJwBOPYoCsJi5ESzqajHw7hvg3ZgN4Bf9AXkUXJEDLppPY0RKtxDD28cX4bRN7z8Dr+NqRS++Ezn/nMb+3YsWM/fg7inCo+cX3Pkz1Mw/1MaIE3OKTTZjMz2j9seU365cAbkjx6K/Ff//Vfd0DIVhiCN1X2JDqpwch8AZrfbW1tdZ/73Oe+RCnoIKBo0XMvLPXj9DreEEPmYwwBHxYEM9pLbzTiHRdug4Y+rIV7w6ewAHkrWa+NPiQTbOa2G33FHLE//PDDT92/f/8t3/jGNz6GasjfiHXzmuudBveH9bBKv+MPf/jDK7Goy5rLnAxbQR1443AbON/6lKc85XuwNH9x06ZNp8Os/eAWmfcx88Ofxryca3cX/XjMBStE7Eve9773fQqL0nIa20y/O6nEPP2d3O6+8IUvfI0WCEeOHPkg3LAW6s1NSvcieqOCxeCHf//7378mVTpaMibA9coNYwalifxnOO4obdfDGDYs3hd9hq++C7KAX31jfkl6DOtMHaxetakEPCzvj8GCe/CSNHLxLprwwUN8yOL7rW99607SgakeOgmaHOsLHbkeWdzwqvs1b3vb2z6K65TQ+dMRpMnQGGKHzgORaINLx6vx4L4Z7g/vxXHky0/+vsmCRy/Fwy7pNZuamvYhWO9OEq3pLJzSmTrmhQ8s4Xvf85733AMx/FG8aflJ2HUm2WmSZrVJcKDEAu2VOH/2XMeZ2k7jS8Vsvv3tb38U7hc3YxH4BqR5PZlO35PtQ9l8sPh7GdxkPor7RCW9zZjPOUlvOLCAeT3a/BRYh99Noi7sypWoWSsuVSzeSrhghX4XLOMfoMXNfAn3eACNhde///3vW3Hd9bgPvO/JT37yb+c6T2Zz/O9+97s3YkH4hlT9DTOZeMUrXvE/aOsP6C0brudPkJoy5cIBx3KhuNkMGB+TEQEW8Bnh4p1nS4Cs73iVb4WPatxTkKWRXuMjaOhu3DQvedDcbPuZwXFJHwJ4CKbzkEh0udgUiuSLrcKKXAwf1f9BesZXkdvKLBcHSbtIQo9cpDDe62Dh//G2bdv+DWvvXDK/pLTAZ8A8rV2xwHkJsm98EtbymkSuP2mdKMlOJCjg3iKQSvAO8kXG2KxNIVozXuTQd4qKzMS698yl7cZiBj7P18MN4yeIcfgPlJhvme05wbjiK1/5yp0Q1q/E4s86n201t4nmOq61Dhb+H9TX1x/HG4VkKRwTBUPPtptzPS7jsTdfECK6kHz+YYV+Hc2xeIGpc21gvOPpPoD5sQH3nO+hcF8RKph+Z56vk5QLxPur8LbrU3CtUlItCMHEhwqqn0TihK9ibljSzTCVpD9zGrN55sSnW6EE5vJgXaFIuFvzTQAWtnz4pO5L9tqeXl/CR3UQFvhH5vv6cz0fArxssynXTcdQDvkE15+LQE/VJbMFUYN4mYJf8XoUO/oRfNVfR9k3UlmkUl0g1d9prOFjbHvooYduSeQ+k+ocC/z3uA9YCJ3/huD4NmVMWijxbvTLEBUQ8FchkDV/IYTVQpzTWKSdPHly1wc/+MG7jh07tnM2Y0Xi/dOf/vSPYSF9LUSTdTZ+2Jlcl0Q8FjQ5hw8fvgIWVt33O8G24OIL450yw1ImfYvdF/cd/dmOt2wuxLh8Aov2RRXvRnuIOfpagDeKn8ci7Tn0e9wXLZTidi79Cx+bcJzI3/3rX//65ymWI5V4x9zTINx/BLewz1PAONxoLnng7Tyw4VOsAgLz8SVaBZi4i3MhQIF8sDDWJBMTZC2EgO+GxXb/XK61EMdSCsbZFMahY8j/+xIIeN1qTbnBKYgLQZRrYQ3/PvyBn0rCPdUDbb4Y0ngv9EJhvtpK50Hmkg/DX/wTeFPkXGgxabTbsGgvR59rEmfIHb4FVs5vw/UlbpBtovEh8f6pT33qJ7Dk30R9X4iFRrxr09xPY/7PSMc5n/NsMc4FplSdVPnzn//8OizaX58q6DK2TXQ/JqNKOGBdUHA8BT7Tz0a2pXT7QfcALCjyIKi/giww14VTmVKdioSZYNI8d1wBD/e3KzAnv0WL4mT3H+ojZV96xjOe8X+wvr8fwf8TEO/z5fqykAaaNPHwbiudALvQrPQRXgL9o+wmEPCVyR7S9DfkFG7Dw3VO/qcI1KLsLetwY86lwD+4jnhIzIYxZHJT1R8O9KqdMqnggWjk2Z7xrAv/wuzqoVcfpXSKyJBCQVBH4gxDJm2JO4r0AKKPeaOHazi/tb44p9R7ZIlCnudrMxWldO7w+SKXMMTWYgmudKYvZZXJZCPXFcqiYz4GQcMvxEP/nSRQ0hB4UZcjoRM7FoZgmkdhPuf5Eo+RkdPb/LdM3CxIIMESv4+svBCMr4f7W0oBBGGVhQXlFxDk+IRMXWYMYRk77zNpcyZzZQH3XZDxNNpLPCCWn4l4hU/QQivdeUjzgcQ6VSZFLYMR/DsOV5hxjNMkFrYF+H5kQYyvoQBP2jfdc9M8wb2w4gc/+MEnkDXpBRDx3ZRmkt5SGsYR83/Pljve9G6Fa9e3KEg32f3OuLeh2NKjL3zhCz+NZ8/gbK+Z4LgFHd95biufbpkSYAG/TAduOTWbSmOjeEpxshsq3eCRe/fYXPuFh0wJ8pJ/HTfyq/FwmcSDy/w6NNaf2nyTjSfy9cqdJMRN7TIr5tj/juSUJgFPQhq57Fvw4HoacqTPS4ETEotkCaN/EU9AVUijCoWQKwJiCahYkgbuFgird917773PzsQSTuemhzj4hfAQH8cDdtDggN9nU3YWEmH08KbzpisO5jq28Y6nBR/SMv6EUrsRc3yMAjlROdHDx+q/owJa27dvj1RJRFq9PcjM8VkIiLx0FzkkAGgcwm+OJvGWZoTedoSvo8B9yAURkUssSaQu4IJnVkKBxBdZHzGHAkix2INx1OcRBXzCml5OJeTTCSalsadz3XfffS+96qqr7sIp/pRsnKm4EtJZvhdz8vmZxGAYc5LeaEFsDVBhKxpvGndKH4m3TGvgHuMkzqlSBS7EPFxq54QRowZvlL5A39t0vp+GNRrf9UmM4/1IoXg3skg9RAXbcA/ogYj3wwhDdQ/IHXIvgrCvow8Wb+Q+JdO5v9C4kCEBMSZvxFjdgeNwWc0cbzCn2APMgSLUx/gh2rcjVXtooY7YjWYETt+OtKhzDsSOM/6z+l4utXnE7VnaBFjAL+3xWRGto4cIVaFM9MCmhwduuKGKiorWuXYYYsIOcbkB+cmduF785ONzvUiax5PowFZLmTtiDsn4Fb0hGCFe3JTbGg+fA3jdOwAB7zWdW6L/ElbQAaokCVH1PLw+f2cm4pFEHVJ5Dl133XW/xwP8PqrKCXHaT9eAP2k2uUORBQ5WtC1wf3gaxO92ssqlemCmiSyj3cLzZgri+zUQGBlVVYWVTr8W+mNHNphPwee9Kll9AnPD6OEPcTuFgOvH8Pn72rVrj9Mix5RJRlLuaZxzIzK17EM2jmdBEOdd6sWO0QdqP+bOKFIr/uXKK6+8q6Gh4RgWH/SmSFL9AbR7PdwQnoB2vwDfo7JUixqy9uI75/jHP/7xSoi8f0Hwmedk1JhCwD3pl7/85fvpl+kKS1pMYt73I+XmXzAn/w3eZ0jAk3inhSqlQUWg5jq45Wyjok+IKdiHuXFJ5mRGEzh+wbEMTxF/d+Rjfzd4rE3ne0kLMNwjAkjfew+qqf4AVul/GkXkzGfHuJKVmj7n8fkVDBPrkKXpacjw8xbM842p3qbQeNN3FjEPb8L35m9YKDwQ40Yza9GLxXLZZz7zma8gVejeVH2m/qLIXc+b3vSmt2Ahf3gWwGfdzllciw9hAgkJsIDnybEYBFIGhdGDmIIt59IYKlxEwWGU4ztNX9e5XC6tY+nBiB3j9T8lE+MCtBCgcvbw0/wchPVv4KvZBWGd9JUvHq7VeLC+kwJJUwkwuk7YUjyONGpfQB73X+CNwWkI2qTBXMjt/yNY4C6HWHgvqsTuMnKMpwVm/naiHPc5EAK0SKIHa6wFnq5kLJhUWkxiQRIR+wjuey1y1d+cjninBz8JkKuvvvofqEz6OQjJU/h0JOnK3yFo85/61Kd+k3yRYXV+DhZIOZksqOYP0/SZqA/Iy334P//zP9+LFJCHE8yj49j197BkfhvBhx9Du2+DOEsqWmiO0YIOwv8mHPtHClLEoibKHQ4W0pz//u//vhPWV/3tTaqN5iRVsn3xi1/89ac97WnfR4GdFixYE+XlPop58MebbrrpZ2j3HqQyfQcFB6NduLUsSb2VSaPSvlcQU3wnd7/zne98cTr9DrvBeDEfPoF5+l0slPrIdz7V2NDfcY9owz9fRaaZe5EO9RO0UKX7brLrkrjG24F8qtqK78Zh7Dthcp3JqJ/h7zu9LVRQyfgTqK3wvFSLCPr+Yh8vCpK9FffSv6fTzzj7pDN26ewzy8vzYUxgmgALeJ4JS4IAbuxBKns+T42ZbfGNebp81GnivRZO2wJPIoYeqih5/h8QXI9DFPnwgKUsDuTWYxZIdB168FL58imIrhcjO8i+VNYoaildA0L0LK7xnyhg8nC6EODyRJa487DS3o2ql/+NVHFvJGv8PAvUVA9140FJ+9ErD/qYRbx+PPnZhjMJRe55lB0JVTrfA9GR8mFLjCAefRCTn375y1/+P1hQRbkuJWIGq+Uo/vYQ3I4OQPj/Hm4NX8LbixkVV9NlPpf9qA+wsv4JNQBeBTHcDyGdVKihHsNxvKF4PubGnT/60Y/enywQkv5GGZeQ4eUWLKL/CWHmMzI3GT7OEHgvxhubK9MR7+SehHSPzRCit8MifC/mcap5QGKf9qG3eK14i/AQ3j69DZ+34M2R7lqzxLZ0s9Ck7HdsvyCOXwtxXJDqu0/zAWPjfve73/3Kyy+//M9G6kS8wcsoDglvA0/hnvQSfCe+jliSl6cS8TT+99xzz3Oe9axnfQmFtR6lRTXmSlTmrHTGKmwcEXCZ/CSu+8pU/vhhI4Wf5tQ111xzSfLSp9Mv3ocJpEtgyd3V0m0477d8CJB1PVVryc0E1uKiVPsl+3s4kJAejCkD6eZynUyPDQfARg4L+2unw0RQIBnSPz4Zfpq6sIZIslKgIGVyIGFk+qj47yAenj5kBmlExpnnketBKiscPdSQ+efAF7/4xZsyEe9mBhBOw7DgfeA1r3nNh2Hx9IVdh9LGlM78SDHuFKtgBJKSXy1Z2okHfXRGdHzYjz8i4LHgeCv5CqcSd2SlxFsPNxY4L4fl7sPpindzm6lwEBWzgbvPi7EQayaBupgbzQW4nxx485vf/DoS73RtuNGkFGroawBj+7EnPOEJv0k1rmSFpwJeEPDVODeNg4U+JOQhKHPA+12xwafxGBAbvCV4HCkmnw4Xn3vSEe+x50EGpkG8sbrjZS972f/Qm71MM6eEv6MLNkQxcTXzdh1YwzcdOHDgqak4hy3vU7fffvs74JoUEe+zbQjV7njve9/7mltuueXn5KKVakP77LCYvwr70XfXanyM72mq4+nvmCdOFKd6x49//OP3pMqyQ3OXYlQQsPpZeouZTrB1Om1Isg+9+Ul5j5/jNfjwVU6ABfwqnwCL0X3K5JLqOnigUMaWjan2S/Z3qpqHh7UPN87FVUfJ7+L0oInyF4j9OdHh9NDBA+eTyI1/BIKEBLsP7h9Jn46UOhI537fD0rkvlaWTRB1Zz+DW8HKIus7ZsieLHdo1BbeSz6MM+Uco+DUTwZRoflCwKT3gU7RLI390fIgNBZMG8KH2zHh44nch2o/OB+FeDAHx0lSilPZFfwKvfe1r3w0B/svZMqLFFR0LS+f98Ll/BfngZsKICm/Fu3bYdz1ps6iP5Db06le/+r14y9WdaR8wvlN46/BxvAnqScaLLL4QkJuxyCyja9BcpQ8toOBe81T4Ka9PZ0GJoNoWMPovWODPZtpWY3/K5Y3vgh8C/lNYWH4Iv89oUY/vaGzcymybEvc4BIf6MHbptIniEtJ+Uw4XphsQhJy04rUh7vE26fPkcgRWab1NSgUAC3n/G97whnfjzVxzqrlN8wD+889E35w0N8PfW70d6bhSkmBHX29BVpvPpIotMdry/Oc//8svfelLP47FeMIYjVR9pL8n+i6ajyVjAdzlUj730rke78MEEhFgAc9zY8EJUPBjKiFGDxVKN0nVWufSILg5TJC1cy7nmM9j6UFFr/DN56Sf6Qaf7DpkxdqwYcM5WMf+kGl74MbwRApGTSaWSIhBRHhhpfwAxPvp2RSqim0XBFPgBS94wWcQHPnDTNqMcc+BO0fUuJNPO/pA3JIKeMoyBCvxJD6pzX44GVWkpbbBneM/4JNdnyplJHFEkZfvwAL90/lgRNfGm45Hkf3i9ZlY6GIXfZQulc6FBUnKqsXUh2uvvfY3u3bt+ncm42LeF8F+TTj+3lQCnK6FxVFV7HUeeOCB/8A4J82IQvcAjCNZhd8O14p5yQyC2IYQ4jo+i0xF36QFa6otHGhpif3OpjpuNn+noOdUlnL8XYKpI9n5sWCy4PtjwVsOFwUJ4x6aNOsRccB4HoCg/RzE+5zijmLbhQViJ+4pH0z1VouOw/epCJlsbog9B8ZsIg0uVKSqGG9tU84pGlPck36OeXAnZdmZzVjRMeCchTY7KNA71TmwaLBRwP983TNSXY//vjoJsIBfneO+qL2mGzIsLAlvynSDJUEJX+oGCkCdS4EPejWNm6efzkcfI4/5XP41zmX+N5WFiQDTQwjWng7qvxl4Oq/nScDD5eEBiOxO+JemfGAY5wfDclQ/vS2Z9Z3aRQ9YvEr+Nfyy/0jXmk2hqniTCAI5GLbWXkjnVTqdI5xNJGrRRW5H6XAKc05lpZ/RVFjvbgTXZNU49aI18AM/DfH3RZq/88WIGvPEJz7xD8j48bPZutIYblmphA7NU4g0sW/fvr9gcZvSZSbZjYH8hrFgSCo6aUGETCCXm8+DN2uVcOvam6qtJCwpkBI+77MNLkzYfHIDgmX4bDpvXMJzcikZAZK6YtCbJSpABEFbh8wzu1LlP6eAbcy/H8M9b3ghHgSYa3/FvevBZKzD93wL3H1ujW1DKuOGsX8qtxnaj+Y/3mAeePvb3/563IspHmXWWyb3JGMOzec9Y9YN5wNXLIE5WTtXLBXu2LwSoFeieA3vgUUiO5HFk8TS+fPnd+CmTGKMCnzo/suZNoTSKqKy3rchAu6mxQClmCMtHT6P8W+8/O9GDnf93mtcl/wmTekB9b+RhR/W23Uo1/1CZL6wJrI2hcVTP+Wjj9OPpH2jhx/SarbQ615Y11Kn7AhfgFIAIqVeRTIBH/bp9jzzmc/8MgnuTBmn2h9Bj63wqf/lz372M93nOZXVls5H7k+pzjtff8fYlcFftzGVoCRxDev7NyHiz8zXtc3nQRDfV2CZfg4s0440GM2KD401FoG9sIyemmsfIMz+hnnlxXfKlexclCvc/HcI+n2YwxXJ3nbQfKf0pciA9COI0Xl3gcN3qRe+0l9DqsH/h3vEXFEs9vFJx97I4oJ/S7GAr07GObwoPXX99dcvWBAn1Y5Adqev79+//9pkbaHvFzLmXJnpvTFd+DT38d098bGPfew5qPJNdQMWfcO8lxQPsugX5guuCgIs4FfFMF/aTkIkjiJdXScJy0Q3dBJTcAsoRwBcBXI8D4WDvDIWl/QKHr39ttFjeuVJbhb42bA+xhPxujCP/VAbsIiI66Lwt7/97cVww3hhMrIkSuDrfAquJUOzGQFT8GvallP4IO9OJQbp73CH+Bf835tm0650jsEr6x/9/ve/fzPE3Gz9QNPO1JNOe8z7XLhwoZGCV1MJHQSbtsJ6Fyn4lOl1Uu1PaRFh1b4LGTRekCr9XZJzJRUHJGKwOOrH9689VXtS/R0LWYofSDkXY12DwHsT3nY4k81LEnN4G3QXFn8nUrVjtn9H/YR7KaMTxr4slevUbK+R4XEZvzmKd35TJdMS3D/tuN8mbQa+94dxX0qW/jTDbszcHbUFjlCwNBXYSmTgoPkAd58i3PdzIbDH53xR0wnoeULxUAgafynaMZ99ZTE+nwPF55oTAXahmRM+PjgdArB4jcIK2JHM7YRu8rBWlCKH8z68AiYRPl8PtykKaKOMG+GPRhYR08/G7+k1NO1HLgJB45Oof7AqXkZ+28lESbhgyBlz3vF0eMXZJ6VoMo5BQZXLUvmfkniBWPotHvQL5iYAy9cxWH1PprJyz5KH+bCM5wlZKiEcclMJSqoMDKGzINZ36gBlSkEGoAfCftfzgCL+KUh44zuV2gE8RQvSdW2IPQ0W7vV4y5DwTUxYbAlKKUhxGQsFAnnLm5Hd5sE03ZaWlVAjSy/FHiT77hNncqPCwvTAQjE2zktF5hDDczCVGx1iDQrQ7uqFaA9YWOFWVD+P5854TrD1fR7p86lmEGABz5NiwQnQzRyWtWPJbub04IH1KBvFV54IK3ragnUhGh9OPxiC8I4rehA4lYtML7vIwp5IBJJ4p1SPsPi1zKGNid4WJDwlxFLKTB/EGmLpsVR5wOfQbv1Q8oOd4zkyfmCmcz16y4MxTJqvnvyIyRoczuOezmkz3ofylsNtpBXWx8l0YioyvkD0ARkvdOJcL93xiFwLb2AkLcxTuc+g8ucQsZhjH5MejgXTFLkSpRKVC9mGhTo3ZfGCO19BskVpeKGk0kJmodphnBf3cDe5AKbyg8fCLg8ie21Me9KdZwm7EU4eYEGO+M/hXt04z/1Np33p7DPPzeLTrTYCLOBX24hfgv5S5g96cFI6ukQWWbrh0oOVLPB45b4OIvOSivhkmFB1dB9cVZIGi9GDC30+h9e35xKcKx1BlfFDIFWGBOIPd41J+Nb3oF0Znz+T6QNL3/5M9p/lvhn3Adb3/GQWYRLTsFRqENbEaEE3LPIGcZ2hRRDw89GPjFmjXwqJy2QXpzkJce3GQj9pdeH56ABEZSu5mCzCm6H5aG5G50gV9B0W8CG4U82nS0ncNlLsEN1nUnWA2rxQ93oyVKBo2rovf/nLn4elP+04olRtTvPvGX9X0jwv78YEIgRYwPNkWBQCsGaeRn7nc8msX+QHfOLEiT1IhXYzLKBL9gb42GOP3QpLd2EqH2rksT6CTyIBvyDcU6UmpIc4FhZkgSOXoQVlDGHaNw+dTGehk9FliFGqOAE6YSqWGV00wc5U+Go+3FvSaMu8c0zjmrSLOTg87iFhP/1BvPFa8AUTxeNgcUYucmk2f0F3S6cR8zZuYVeteTvfPJGJV6l6nk4tBL1JQ775p37/+9//4DycNGN25No0D9flUzCBuARYwPPEWBQC5A8NAX8ijVeqlnvvvfdFFGS4KA3L8CKtra0bELz6vFSp2hCIq8G/WXchgbtG7E083TLqGbZO3z3lAyNspU9HPMzm+pFjwhmA5nKOlH2Z5clT9j0s8lPuN8vrmw+jPqZzH14oFpl2IZ12pLNP1HXJSp/KUp9pQ+PtT0V4cJ102rcYYz8fXYqcg3LGpzohvpM2pPVcn2q/uf6d4iVwn0kZwE6LioWywOs3Q5yfFojIinM70us+aa79Suf+GnONlGMyD23iU6xSAuk8OFYpGu72fBKA+0wAGT0eID/UZO4CZIVH1cYbUJL9+vm8/nyd6+9///vL4D5TR9X/Em30lgGvqXtRBv5PtA9VR53j9dM+PtVDnF4rI13nxnQernNss0BKyzlV1k3z+hk/IFNZ4Omhj0BHqqRIBcgWdKNrUKGzdN4ILGhD0j95RrxJyKUzJ5GJpAIZS2J9odNvVZp74jplVPRoGfFOq2eU2hZvFsaTvVkIz2sKdl1w4whll8H3f3OqbD+4348jcLlrLqI31dsUuldT0advf/vbH0OazYq0gMbfKZO5n/Y9ew7t4UNXOQEW8Kt8Aixm96+66qo/wSe8LZW/L6xkFuQQfyeCDUsWs32proWcxbt/8YtfvIsKoSTbwkGij8Nt6Hyqc8733+Ei4E51TjzIFbgANSz0611Y+janasul+Dtch4YQZIfnfvxnLAkdBF9SYbE6at9CVlPs6+urxVgUp8ocdCk4zcc1sXhN6QtNfUeaySIKdp2PayY7B8RrJd1/VpqAJ3c4BAK3p/GGUxw/fvyaheYMAV8IQ8H2ZAKexgH3Ug8CxS/Mtj3h73BKsUz3bFSovhyuNHdg0Zw0JmO2beHjmMBiE2ABv9jEV/H1kJavDWXk7yWLSDKrCf0dwaw7cbP90FLBhQdS9he+8IUvwh0maT5reihBRAduu+22ryZpeyaWHDpNygeUcS0E6Z1LtUCiwEJUIr15IX3gyYKNNyk3L8L4ZexDiwDeXrwRSpr5hUQlhPVGWBErFkpcYy5ZcY0NWCxYZnENYw5lOpfmOiQZXw+sB5MJSxJ5AwMDTiz45jtbSFRfYeEvRvrXK5K5v5kOyLifcwU71+PxfR7G3A6l+v7DDXAH5vWCpG40+kDpbHGN8mQCnhZRVCMDsQ8pg13jsaHKvchpf+r1r3/9+9HvoVRVdknE/+lPf3rVX//615fPknUmro9p37Nn2RY+jAmk5XvJmJjAvBFA9Umq/jmS6rUn3fjht/hGFLl5ybxdfA4n+tKXvvR5pLi8LpnrjK60YdVFkaT7UQn2njlczjhUFxGZCG0qPJTqAU4uPvfdd98LkHZuwSxRsHbdAHeFmqVo6cQr+26IyuFknMKLyMuRxWLzQlWJBZ8qBGw/KZWbQXgyLDtBaUxixL6chFDTfZETbTRPjh49eiNE34JZ4cmlC0HyV6Up4Ofh65vyFPMq8iCE+5C2tjWZkKV5Dct4I/zBn5mydbPcAW+V8nDvfnO4qnbCs1BbNm/e/OhsLhOuJj35X//1X+/H51O33nrrd1IZhsKZzmy4l38BC4yts7jusv0OzqKvfMgyIMAW+GUwSCupiXjAnKUqnakEvJHHl262yCLwlEvBAK/19e/HT37yk7fCavNfqayk4TRtUy9/+cs/DFF2SdJgonhKU6p0csQWqTq3PPLII09bKK5wNXo3UjXiUkvvmUd5sCHiLyQTlCSq4Tebd//99z+f6hMsBCdKRYpF4dWLICjncxAyPhdcyUjAjyX7zqNqpkB2p6cgZ/fOhWBN5/zzn//8arz1sC/FOTkffaa867BIP54s0xf1HS4k4u67734ZhPaCuCjivnLbsWPHrki2MKW5QPdIGDr+Npu+Uz/27dv3l5tvvvn3uE/bX/SiF30SRbruT5Xjn+7hmAP5n//857+O43LTvXbYjc6wwKez8Epnn3Qvz/sxgbgEWMDzxFhUArhxq7DCfw1C/nyqV57hV+sln/zkJ78DEX/rojYUF8NDwvKDH/zg3Qh++iTlEU4l4KnC49Oe9rQfoYDRw4vdVuN6EKY9qIJ6KhnbsM9x1h//+MfbYQWed3GKLD3PQBDyEy8Vg1TXhUV9nIo0pXqbQqLynnvueRkslrtTnTPTv1MhKVrkkDvTHAVlxoI607aa9k/XhSBKvGA+HsS8bE9lgYewVH7/+9+/Be408z4n4TJ2BQWgU5B8GtuiME0V3Gu0M539IDAtVMWWqqxSH5MtlujvBw4cuPIPf/jD69NgkdEuWICt/fGPf/yRdOY0FnXDe/fuvTejC5gno5R6JWnMK6yBbZNvectb3oRiYIOp3kDS/Q/z4br/+7//ex8Ef7pjTW8r0913tl3i45hARgRYwGeEi3eeKwFyR0CGlrYXv/jF/wuBnrCwk3Edsk7i1XfVpz/96W/+85//fMFcr5/q+JGREf07AWHr/OEPf/hh+OF/DK4mzlRuDmT5gSi8AEvQ/0IYJrW+UGaOVO2Y7d8REDZ4/fXX/xoLjqSnoIcY5dvHQ/x2iEllvgI14Wdcggf4+8HPnoqZSaAoCGC0gn3EpQeMLGlykuCd8duOK6644i9wTfIle9gTI7Qp+0c/+tGH4Z9dTpVr8fO8PMR/+ctfvgsi6pp0GcUOJtjoaZDSzVWf6q1MqvlG/TaumWrf2L9DWHqQUvWBVH2l7/qDDz74DPgp357pNZLtj++v/Ytf/OKXsECwpXveNOdeuqeLux/FBqR6E4nvsRXfqXV0AoyBje5P9D0Jf/S5iP+24jx2xOkosELfh/tQZypLNLH++c9//n58/2frDx7pE12ffkDQd+HXvva1L8DtrD6VsYO+dzfccMNvKCtZLJwM5qqGPtN9wgKDhQ1v1s685jWveR/uB4FU2XjIwPHrX//6nTA23JZqENG/LJzPRvOfrkVfu1TH4O8UJJ8yA1Ma5+FdmEBCAgsmJJg5E0hEAA8u/zOe8Yzv3XLLLSmFJp2DLEYQUDWf+cxnvvmVr3zlk8gkUbxQdOFHqsK9pOJzn/vcd+A6834EGGalEh7h18Hac5/73C8iUDdl4Sake5tIJbzC7ji+2fRzy5YtD5M1LpU4hYuLBX38MITkU1ERdM6vfOFyUgqh9BX4Ml+ZiVsIMsKMQUwHwV63qNGG9hjZS1Ithix4FZ48LVAciEjx+Vc88E+mElDUD7gE3AJOH0QbVbRxzpx+85vfvA6LnDsyYYS3AVFCB0Wy9LkBUepMNUcwD6yYx3OyalO/8ZlKJa7I8kpZpLAgjHq23HTTTT/BOAfSsY5iwfSxv/3tb89L1a90/g5rfuH//u//fgdvhC5P9T2m89F8oO8mfUfTOf9c9iELdLL5RyIYiw9x9uzZvXQd8A/Q/Ym+J+GPPhfx3/TdmUTtCRVv/w7t2bPnr3RsqnPje+OEi+LXf/vb375qLv2g62O8s7773e9+6oEHHnhWKut7+H4ZePrTn/61eNfFfSk31TnoOBLq6DOxGMXHC55+vN397nOe85xv0AImWf9pLmBB7sDb1U8gsDmpPzzO7SO++IzhvuSl4mupeFFueyoahv0j97RUx/DfmUCmBFjAZ0qM958XAvQwf8lLXvK/eOV7glxPUm3kzgBLSAG99nzve9/7J1jqnoQHUBY+VtyI7XiAJE7Mnurkpr/DN/S2d73rXff84x//eDEVfEnnoU/tf+ITn/irJz/5yd8z/OaTXZLKjKfTJMrtnM5+sfvAD/YIHuL3UJaGZBsJSDDNxduNHzz66KNPyORaYQugjbijzxZY30qRpefr4PYCevim8wA2rod2xJ0AaXJSqDhNJm2nffFw9T3vec/7XDrWexJDZBXGou5z5sUCGNgN62O865PVmjgZYpbmKtKjvvmrX/3qlzP1xU40F8jymKrvZAnEHE25X6rzpPt3KsiE60WVrocbzWNYWD6YasFE8wZWVQeE5TfxXXxWutek/eitD1mp6U0J/YwMP2swJ78G3/eXZbJYomMx92b13cukvRjTYKrAS7r/ICD8KcjodF2654Yb37exwJtItViic2NuZoM1DOdfuxP8cun+BX4ZzZW2trZ1H/3oR38Fa/5rqY2prO90v7zmmmv+AneXuGl2Y+dOon4n+k7g7e6nkO3skVT3P3qmYHG0GW6SH8T9qzj8FlD/Toc/dvKvj71+OvdlWuji/KkfbOkOKu/HBOIQYAHP0+KSEdi0adOx1772tXfASjGcyh8+/FDV20oW3v/+7/++6xOf+MRPcAO+AhabAjwIZ/3AxUMsBwF0199+++13f+hDH/o90qxtpodQOiKUHkbbt28//IpXvOLDcF9x4+1COu4c6byCnfW4IL6g78Ybb/wZuE6m4koCAg/u4ne+851/g8vQO/EQy0l2YRKtJEjDFkCyqNqR0eEKcPsTKug+N11u5mskcVdIixPGaVZjD6HzEwT9HknFiPqEcZYQ3+/48Ic//Cv4+dZT+8HAT4F4tIgJf3SxTv7I9KHjiBPGQYXIqYFl+aPf+MY3Pgfxbkvlfz/rwU9wYCrL+QJcL2qRSm9UXvCCF3wCQjqYSsSHY1+KIAp/DQvpBzAn03p7QKKbrNTk6kDuSR/72Md+C7e7F9L50vkumxiQZTutuTcXbpQ1JtWbMponCDYt+OxnP/sD6hMWNymd+GGF33/dddf9LBVnajudH29n7OQu+L73ve+vCD69AW910gruxNuN4l/96levx33zcXJ9IsapxDt917C4GIWr4f/gfjkej99c5yruf92vetWrPoS8+CPpuBLRHEGSgleh7VrY+EBxKUYAfrx5kNZbuMVww5rL/ONjlz+BebFaLn8M3INLRQBuNL/96U9/Wg3Xi8+Sn2GqBy39nR7IEFQOBBg+F8GtT0cmg3uvvvrqP+zfv/8k8gF34gHRBcGQ9DUnLC5l8C2tQSaQnbC4/xceXFcbFvd0rO7Eix4O1dXVXW9605veDAvj6QwZLqhAgIXr93id/Vwwel6q/tBDF32xwzL8WVjin45gv68gvduB2tra9tg+kWil38G6WQZf1y2wXj2LsnvAUpWd6joZ8kl3d3qYpvVAjXfC173ude/D+P+RFiLJ5h79jcQOstI8HYvGfRCWX0G60H/BxeEMsn8Mxjs3RLwdxb82oqbB5RD+b8Ec20lWv0vIKV2mC7IfFrr34U3Vz8giThySbcSICu6A88cRq3EL3ux8kYJhKc4k0XEYixIsxBsRt/JszOFXwdUub7EXSpmAw72qGyKzEwvoxmRzgt4eYAFYj0X2A4jd+B369xgtMOhNBy0CkNXrB3ijGbWIRSasO3E/vBXf08pU880Q3bD0X4s0m/9Awb0/w5r+G7A+hXtpDxjSd1736QbjQrS3/NSpU1fA+PI6uBvWE+NUwp240IKCPnBx+TwWzocyYZXpvujDPZg7/w+fj4bdouKewvhek4sc3gYfvPbaa+/B95Zc8ox7ylzu07O+L2XaX95/dRJgAb86x31J9RqvPL8EAV8JC+W78TBIOytH+CGfhUCkW//1r3/dileyHvigH0G11zN4JdxHD0dYxIeMmzGsVwVUSh2+2nUQVNtgSd2BFIE5dB56SKZ60JmhkXjH9frf+MY3vhnpzB5aUkDRGDx4p5Ci8NNUUAUP8XWpHrCG2wsE0I2w9N0IAX8YVr/7wfMEfEtHyJ2F/K3pA35rkYZtL/yKb4RIysmU3QKwmvWDEgudf3z84x//IfzSX5NOhhLqKxZ+ZYjF+BgsfW5YO//9rW996zAVhyJG5B+LV/cOCJ187LMNQudqiPhNNLdSidYF4GI+5VyEyLycB3MygCqgn4LP8VX47q1PxcOYkxCiN0DE3wABfwQZqR6G0DpE1XSJNzYbFvNZXV1dDbiH7IUIvRnjk0vnnoN4n/V8ymQMKaUu7lWnwKQxlYsPfX8R0CqxIH8OFifPoeuQNRvuct0IWv8NfnSbrw0DRg8Wp2/71Kc+9SMc50j1/adjaY6CpxX30tuwYLoNbwcmKTAU3wsvRLA+f3D/rERSgRqKn6HCSKnabW4TtRf3yn9hwfFdjN+s3pplwpdcNLFovgZGnicnmws0z/BWLO/rX//6l7E4vw0cKEOaoY0WZS5k0i/elwkYBFjA81xYEgRQTe9D5FsIa/w7cPNM64FDDaebryEEICYL8Lr5ehx/PVldqHgMHjDGDVilhw4FhdGDij50U6eHUKYbiXdYXXvf+ta3vg55iP+Q6fGLtT/84A8gLd8HIcS/CZGTk+rtBrWLWBI7WOJ2I9XabgTzCfoYQXGw+mnk220setIRvYvV39le55WvfOWdSBW5k0qtp9MfYkFMMN9cEFPPwnWfhWA6Y06FMD/IUinJB5cETjrnTKPtcxHgdOySECLIRnMSRX7ugG/698jXPZ1FMzGkOYnF0E4sGncSe8QwBMnlgQJmSRhSBhbah/adzXc6Df7zvgsWfVMI/HyMAj/JXz3V95P+Tv0zRDP1G3MrREG3sY0jFrAm/+alL31pI96S3UmcUp3fuJ8a1wBTJxYXu8yuODT3acxg8c+IB7UV98xuKrxUX1/fmdHBs9wZbfRhsfgeLBb34rtakqz/1C8YOzYjuPyDSEd5eziTDbkYp+MSmaiFS+I7N0t8fNgyIMA+8MtgkFZDE/EgCsBi9OG3ve1t78ID2JvKdzEeE8PKSQ94esCQfzr8O2X4o6coJKFFfyehmo5VynwdepCRKKNMM+95z3tetpTFu9FupGr7JV5Zfw0P0JS+x8YxhlAwHtLgRwJJz4hBxZno9yRKM+U3i3mcrmid04OSfGbf8IY3vBvWxu50AqqNftB8I7FIH5oXYEOWPAsxMkROJhbKWfC5FIekMyZJxwNz8hfIQPJVEuCpAi1j5ySEuy50MRcpeNqGualQ/niajzQO6SwILgW0RNeE699dcMM7P5v7XficJDBn8Cb3GorHefazn/3/4Kb4Y5rX6fjEm9tJ32+av3SvND5k9EhnIWA+T9jvfQTJB15y+eWXz6ry6mzHjOo9vPrVr34v2j2Zqv/UL8TxvJyKXOENQfIMAKkblM73JPVZeA8mkIQAC3ieHkuGAB4SFOj2VYjj10NUXSBRlOqmm6zx9AAyfzJ98MQ+hKgteADd94EPfOD5CBK7e47gFuUGT0F9L3vZyz6KoLEv4KHuTxWwGdsnIzDNzDGTfht+r5kcE7PvonDCq/37IeLfCavoaKrsFfH6Mpe5Npc5jrakwyedfdIdonTPlXA/CurFW4/3UUE3cMO0zMzIacxJEusG93QbT/ulwTvdPmZy2bj7wlXtFFxgfpYqG02KC8VbMIUooBqBol683Xwr3FZ+Sv3OlPVcO0gLB7jiDN1xxx3PxhuBf8/1fJkeT64wuO5vn/rUp/441SKJ5hItwpEf/wNw27oK8zR5MY1MG8P7M4F5JsAuNPMMlE83dwKwzv0YLhwn4dP6//DK/FpySZiDP+ucGkQPPSo9juJTHliyvv/CF77wk7CY9c/ppNMHL5pIoGwP8F39EPlnI1jrneDpWAyeJBaIH1lHUz0858Bz3owQt95668+RjUJ885vf/F8E6NbMk+tL0q4ZrhMkSlMIy7nMl7kcO2NNl8ZYpbwe5Q6HK9bbKOMIXGreAKGHKbnwjyOah4YVOQnvlO1Pg0Hauzz/+c//DFw9Loev9i2zmHNxg7jNNRXguuJBHMwbIaS7wPqteJtmX+g3Q8SWxDss4K3veMc7Xo1Yk/vSBjKP7l6UmABvXMdgGPoM/Nsvw/NkdzLGNDcQMFyNdMUfArOXQ9SPxGl3uvNjTm8GM+DFu65SAvP28Ful/LjbC0Rg69athz7ykY88Hz6TdyLQ6zxZRi6F9Yh8vpH54X5kgPhPZCt5+zyJ90UV8HQxCmpFarU7kDHnfbAyD2XiKjKbIabzw4JFhVV+hFf5wQUcO3qYpvtATdkVEvGYd89DifdHac6lYa1Nec5EO5CYJCsyCoB9Axl/WjN9O5LBheeNz3yyJhEPt7l3wMXhgwg4H05VPTiD/sbdlc4PEeu+7bbbvoc5GUoyJxf1uUjGAQTDvxVZevbTnMtwS2tsKeCaXElwnTfCBbB1rm83k7WR5jXmsoZUtnfdeeedz8Lbynsz7FO6u6fTd4pJsSLY9yzeRN6Je994KmMCCfyHHnroVsQPvTlefEGajUunbWmeindjAvEJLLzJg8kzgVkSgOWoD76uH0eayH8iM8LzETD4Cljtimbjh5lJE+jBTgIU2S5OknWMrg9LUlcm50hj30W3zsB/mHwVvohUkUe/973v3UHZPeC2ZOQ7TqPJqXcx4gSQYrEJbhL/DWHWjus9G7/PS330jD0uyUMQ5egfR5rR5+BtxXtQpfJ1EDvO+bYOk4ig6o5YoL4Xfspfg3/wPxBEV7fcfLhnMaZRh5CIxy8+jbn4AHLkfx6B01fM9/eb5iQtjiCQj2AR+17cV85hTj4Tvy9J0P5F/26iyNUpZCt6BfKx3wE/7OfhS2lNM8Yk7e8IFi3Ur+8gO9VhpIl8AzLNvAxvF+fNGk+caV5jgXDmmc985ldRfffnMHgMzHWOzOV49DlANRqoSBO+W3/G/fzTYPwRequbzKWS5iBcad6LgNvjuP6vYtqQNvO5tJ2PZQKpCLCAT0WI/35JCUB00kPnUbiAHKZgLJRYfyXSRj4fQr7ESG1m3Ihn4+Nu+GgbuYJxjhByFJ+Az/gnIdzvRqrIuDm+5wFKOo6/C/KguPLKK/+FrAxNf/nLX/4TWX/ej1SakQwNaYqGqO6bGeKBOQEL59eoGmRDQ0Mzsljsxs6pLJqJ/p5O/1Ode1ZDBZHXA3HzDrz6/xMWOx9D8bCrDGu8kd4wkxObYwHoePg9/xkFcN4Fy6BePwD/nTwxeiYXW9h90xmTdPaJaiViEB7GPLzlj3/84+tRMOt9tFCnHWb73TbzRtD1FNzyvvEf//Efn6WFOLLZbMIiPdmzL+P2zwdyEvH4Xr4a38+/wIXjDqRrXB/PtcpgEu4j9UMP0E93Q3aqgyjC9CbKUvPrX//6PXAruR489Cw+BvN07qWx8S14yzeAatQ/gEj+f3hr2pNue+Lsp7cl2duv8N/T+u5TETGIeBsFW1D1ZfT3BqTLvTnVYhnGoyy4030Zmc3+jbckkYUIrm1N1r7w32hM0mrfHDjxoaucAAv4VT4Blkv38XCgwkyH8GA/BnH9KfiLPgPp155H6f/w2jkfr8dt5KtuVAI1P4CMh6DxQDBuvkYKSmSvmKRc57Aa/xvi86t4kO6H3+SClcGmhyXamkXtTfQQodf9plzE8z5McCUg387/B0vzL2GNezV8v1+Jh1wZsnpk0dsHalcyoUpvKehDvCGQNGT3GYPY/R1cZr6AbC6n6Fj42loxPjZYsBP2lSyjGI+4AgR/08c00YOcfo/rz6sLjRk0XqWTorkHbbjPqNZIBWzAyEkuCEYwZSKxQ+0z4gAoQwplWsLcepjiKOAi9ijmtMe4HhUmo77GbnQOGgtKAxhvEuD3NJcS5jyndlKe9ESMM51Y4VoACTORkAWWXBYyPS/tD/eGMfzzGYjL70JYvgVv3V5MNRvwXbDSnIz33TZfx2BN44Hvr4o5OYKCPndBuH8GC/HzlBqQ9sd+NCd13rHfP2o//manLC6z6cNcj6HKrDjH/+Ge9gtYyq+77777no9c5tfDgFFNgpDGksacroN/JebU6GxeoSEuhgI0/4oFw79QjGnrn/70p9fj7cctuL9WgLedeNN3M/YeYNw7w+k6g3TvhFhvhnHlh8jK9XO8cRt4+9vfPicMFBcR/r7Q988IJDXEMP1rQTsUvD0kVmltEPFkibfhOzeJwmpvxBuve4gpGWzCJzDOb44psFDNB+SH/xz2eblxIfR9itpHAdj4Hb1BomMi7aO5g3GJfLfTaiDvxARmQWBWN9pZXIcPYQLzQoCyquBElEf46/RBJdUGWHmvxevnq1tbW3dQGXAIxxL8m0M3VTyMrXgYZuGB7iMBRTds/LeHHu7k3rFu3brjVIxn9+7dD+D3UyjfPi/tTHYSPEwG4Ff/WxLM4YfADBFKCxL4rbYudGNgaSbXoI8g/eFn4MbwJLgWPANMd6FtVeBYBHY2cxvoAU4Pb/DzwtreR4VoYDG8C28r/kYVcGnRQYFjOIZSKWrEGmzvguWzivL8Q0TRA4/+Tg89MoppeBDHrZpLogv+s/fjGPNDVkJkGeXkVRzrMT2EFwQX5g21+cf0wVzbS2+AaL5BaNbBSldEgj7Wr5aEIc05KjiETw/cN/6NlIG/hVvW4+EFSZRARH70+8BHLwRl5kMdIm5wRTgTr3P0e5x3PwQFpb0jEUEfg6+GdlngBnA4fN4588FY/4EWzOET6eNMYx7uE+Vll7he0xx8hwXE5TDOeyfYfhK+yE+HkL0Z7kX7kDayDPO0GL93mhdNdG3MgxDe1o1hTvbje9MMi/4f8R37I+ZdDzKgCMxnaiexCYHVGObkn8JzkuahzgvzzEd9wUKiB2N2SV0/MHdoPO8Jf6h42Br0vRAL7nXEIMxfQ59H8Jm1WMSCgQTyQXxeg/mcgzdNN2LBcCPehlRB3FeBtYsWPMb18F2YpHsnLNLtWIQ+hHvnQ3CZaUZ12DnPLeMEFGyLmKPXYJwmTPcL48/G3BZ0f3z/+9+fyXXJEk+uMy0Q8C9GkOqG8DxNagTAXBgEG0zLUn1O4O3Zb3HtFoOJ6ftmvLnRYBAaAqe5pqLMpG+87yokcEleFa5CztzlRSBAOaHJtQYPO3rIFdFDnixWVPob4rIPD/dhEsz033gAXSCBtQjNWnaXwOLHhuIn2/DquBYPvFKjA2R9JYFDWR0grlsReHkKArKb/g4fU7KK6dYrLFA0elDSg42sphQwuOwgpGgwFlgKFoxbyEKM+UVWSyqUpfsghK2DU1hs9oBPMwlK8sXFnCQRScJdJavpfFSjxCLLAqGQki/GR8H10nHbWpJDRe4MEFz1JGAhpqppUWM0FLwlBPwk5l0f5uRJfObivrEk+3+pGoW5nRees7rIxTx2Q8Qv+DzCvJaY14sei3CpOPN1mcBsCLCAnw01PoYJMIG0CJDlEzsalmEFImvOiyYs0hSI4wUXEWl1MI2dIJ4lrW1oYZPG7hntAhZUYZNYxFoRI64AC3FdcyMpQBD9Uym/e0aNv8Q7G4tMYkd+zZhTnPf7Eo+JcXmq9ozxmPfvyxLpHjeDCTABJsAEmAATYAJMYK4EaFE413Pw8UyACTABJsAEmAATYAJMgAkwASbABJgAE2ACTIAJMAEmwASYABNgAkyACTABJsAEmAATYAJMgAkwASbABJgAE2ACTIAJMAEmwASYABNgAkyACTABJsAEmAATYAJMgAkwASbABJgAE2ACTIAJMAEmwASYABNgAkyACTABJsAEmAATYAJMgAkwASbABJgAE2ACTIAJMAEmwASYABNgAkyACTABJsAEmAATYAJMgAkwASbABJgAE2ACTIAJMAEmwASYABNgAkyACTABJsAEmAATYAJMgAkwASbABJgAE2ACTIAJMAEmwASYABNgAkyACTABJsAEmAATYAJMgAkwASbABJgAE2ACTIAJMAEmwASYABNgAkyACTABJsAEmAATYAJMgAkwASbABJgAE2ACTIAJMAEmwASYABNgAkyACTABJsAEmAATYAJMgAkwASbABJgAE2ACTIAJMAEmwASYABNgAkyACTABJsAEmAATYAJMgAkwASbw/9uhAwEAAAAAQf7Wg1wIGTBgwIABAwYMGDBgwIABAwYMGDBgwIABAwYMGDBgwIABAwYMGDBgwIABAwYMGDBgwIABAwYMGDBgwIABAwYMGDBgwIABAwYMGDBgwIABAwYMGDBgwIABAwYMGDBgwIABAwYMGDBgwIABAwYMGDBgwIABAwYMGDBgwIABAwYMGDBgwIABAwYMGDBgwIABAwYMGDBgwIABAwYMbAcCdJ/lvXA9FgwAAAAASUVORK5CYII=;" parent="mEXFG2sUmQ1XzkrOF1mA-1" vertex="1"><mxGeometry x="815.72" y="810.9900000000001" width="91" height="40.18" as="geometry"/></mxCell><mxCell id="01Let86RBlpvGtF0hyK3-11" value="Frontend" style="rounded=1;whiteSpace=wrap;html=1;" parent="mEXFG2sUmQ1XzkrOF1mA-1" vertex="1"><mxGeometry x="-50" y="310" width="120" height="350" as="geometry"/></mxCell><mxCell id="01Let86RBlpvGtF0hyK3-51" style="edgeStyle=orthogonalEdgeStyle;rounded=0;orthogonalLoop=1;jettySize=auto;html=1;entryX=0.5;entryY=0.102;entryDx=0;entryDy=0;entryPerimeter=0;strokeColor=default;" parent="mEXFG2sUmQ1XzkrOF1mA-1" source="01Let86RBlpvGtF0hyK3-47" target="01Let86RBlpvGtF0hyK3-50" edge="1"><mxGeometry relative="1" as="geometry"/></mxCell><mxCell id="01Let86RBlpvGtF0hyK3-47" value="Spring Cloud Config Service" style="rounded=1;whiteSpace=wrap;html=1;fillColor=#dae8fc;strokeColor=#6c8ebf;shadow=1;" parent="mEXFG2sUmQ1XzkrOF1mA-1" vertex="1"><mxGeometry x="930" y="457.5" width="160" height="70" as="geometry"/></mxCell><mxCell id="01Let86RBlpvGtF0hyK3-48" value="" style="shape=image;verticalLabelPosition=bottom;labelBackgroundColor=default;verticalAlign=top;aspect=fixed;imageAspect=0;image=data:image/webp,UklGRsIYAABXRUJQVlA4TLYYAAAvK8FKEIcgEEjy11lxiGmbH4FACje4RA2O4aAl2VbcWjKNACEaz3+478I5m3MQrqiviP7DAgCkakR6tc4584GAoNXn53/yzXnvQ/rbov+3/UcB69Nd6hfZWsnpcv8dwFyp9O/yVnNw/wH+d9ev3NafaH94e48PVhRl3hqGCm73k78f2Xjrk4J3APq80l36jz9xPUzYexkJGp+eTp/4oUjApkb/z8uRMZH+V/a/kXLLVEY/QbxeXjdVvDX8PPCFPGOUyvjuRNTB/LYjEtPtgWV7+l3xEEeP3wDVdiLAbyJO8lwH8yadZ2jzgf89MFfAngbcttlBsT/mRxpztOFB+kXfyhv2l6H9mi9dfesmamakcpvf0peUCjDnOaXLixWd9zHdACvfyu/4TXv946Mktlru6Bfqo7vSU2SERXfwZxcdym69pIut2z5mVq4mIow8bm8MiA5lBYl+bAoha6Y92JOLDlspKSVPDHPYIQkpJVSSWFJuWH0vd0rhL8VuGkAZR1ByqWcWRtoIZFf2bn08JKSnLiKFO60n3vjQ+eTmo50woSD5ewmyqeEuENqL3shddkG+nuypwudO520bf8DKFvGDgLAcJE0tiBZGlnAkgRgjOjR1YhAUxNnKJ64+tiFGGNmSOQuExokO7eijqOCQEWezHdMTBC9gzIC/dDrqRL/tiY7qKCF1XTYOEypWe81FIpMu150aunb4TPVshzi4Gt3fkV4qVx1ZEoUXRl9MomR5uTwP6RG5coJofCGx0ewl4w9lHR9e/+qkdDZPDsiZHl/PkJMiZM4vZidR2ci2vYYbpJtwpNwU9RHY+tgJYbuGN6kLNmt7U2kUyefAuo+de6jntV+yhWhTGt7mjnWOMsGLF3V8NP1699lkAJ8ljlTGFn2mDsQc1/e996QphJAV8GU9zTeR2ZcaS1K8kONwSnrrSd/Hyw1c5rfxv+v4cWF40nl2MwuJLk7IgdjqftnIGdiMTBXxsXNdqfPXnzSn1CXxRimD3ip7kK2I8+BVV/umYMRZBp7RCxHM2f1JgBiJrZSQO3lPHKzSeTdCiRNcX38N1eIqWifycPFGSDug9a/qRpGDHJGDZgTaFsNLfEdxTRgZqsWuZMetMhUTbWAojs+vYNDhiuRHtLSU4P7db4PkTRDizjBfn9/iG1Bt7VACQUIXcM8At8ddR0VSeUyveYWvBq0iN0rp/xPUvmAr0aGICm1l8Q0u4BR3hmlf92+M5D1byxecU90sVLbtfYYT1JgLniSib9v6Ewz2exWj4ke3u8dbmHv5mQX91wIrO7nJ7e7RQIFVB3/z1vMFROAX3KYy6oUO/h4SxMjt3781UsDkR9occ5v8qOwFXWMgSG7fXvj1ig1IpgElfF7kzMLlGDoQGb7dPr+xHnvyyvscvOI0p9+BzcJRYVlgYNKkwU2hKv9xL406fmwkR0k9QaB3uyIE2QzyQl91zYXnMjdmFvprv2YYBNTCXBRlQarV7V6xL1yJmaqKL1yLM/nNMTiuY2vRjI0urtS+rWIYW8jCJUZfWExuXxsJIVBgGlhP4ymzgNXunQLxtYGlA4ij7Ahxy8u3e8owgrzslYgQlTZc28C9cH2fgRgBBs3iAei6YnhtGKBJ8nTfLuMfI5OJYmRs4J6M49VRYFpWbWXU4tnk3FAjHNhssCPzfm6BGFGjDxaNYOo+p+6Va3sgZRB3Bj+RttzBimx96nF2OVeXDaGYUYAzbIhuQF2zCo27nKrwOTOfvQ1Lfx/FGTnzqrIH2xBhqid2QjfgWB7hcFKfOQoU4zd9Vh2M0RKacTxBfDpHaMuhEcYdlACuFRLlOpqfRrpAMrRYgMrQ/4pleV2ebypH81iPG0j+C5M9JF2xBqi2QdLfnLXECV2l5SDIV7rV3mew232m3p2mfA/meMqrU3onbJKy9t5i+l5+TBLjj+b4WjtVtIT8glXeg/peY5IYf0rnx7IJHemere6/76GAgWD9mpNE++M5bmdA/a9HMxLTub2bTcbmJNH+gI7ZRaptRvLfmrvIcVWB1PdKw570R3T0rtH6X4ap600JGkO4JULCMu0fkp47q/OE7MMUNopLfuSNSfDFakpZipT0lD+ta1Stvae6zlRLtZgbq4FnyEs5rR/ZaaCGhc5EH7UiNgOCZXyCanr6nnSrZBV7ODlfoDNbK7Sl7RADg3oJ4c9pHd4jBrIRK8kWH9o7hlaMk87OabdM1dqbpVZvKiO9Dq8QKN8cQxp3Mwmqz+uIWtsBo1ACL2SdzwZUuyPoX3NcT1U7lia5R0dUQJ3PrCdRoxtp3yNvfs7VgqhKzsXnNL4dGGVOOnQdR9rODN3NZWJB1xS0KsLwefLFYAiUtFQ5cOSmDyWBuVv4y3NdLf88MV4HhA7fc2+FoEkQF8cvW1n4iy8a9r9UBzXEfvDtntDhhRmFjlkuCNMl+Ep7muP1f8oVR9/CTJNAbphP5xGPtRVA35JqNMQAyLkjiJA8MY4atuKRPhSfCyGFm+I+Dx6BZcQ+jPxBPNIOq7NMGNefr75KKP5OvCPugiRjtVCseagMx4uhiegzxoEhYlorQdYLs1cBL9WxczpfIO9kEodlLNFXVkFIRJ+Ofc4nJEW6SBjsI0WDCcJYYR9URtuPKHZ95JApKLIXlgd1XIv3jNSck1XAvsDGLEoFO1yj0x1U2CMoRwNbsyjbvmBykM4pRPx0OUQBjl1LfkwLHVA9GzC4/ZHEFAtW41LnYE7MHFHOI9/y4oI14y10Dh9wCgf1Hy8HBa2LUqfSSjnnE3piE0wslvcQDkWtrVYKs53Uf4pCpEii0zr5u4Jr7fF+iOkEbkHuYinzLQgAfjnwf26W7BdsBTiSE1A/aTMc9z89KDY+s0S/ehxmnmTQTjwts9AQVNVVP6Z5xrm2bsni0Vpfjkb5Gt1sciDfXobgYdmSJYAQzhZMmQ8sYG/RBhFaW9yXT4LgaANGxeLqkIIRgz3rWCvT2t6jkM519sLl76JYFoXPaEa1th8gAaTxsSiUFc5aNKcSCOMuLO0nOORPPBSRqtwHdgO1hVn7d2k/wRF/ongBaxO9XxgA3NFqwSiUsx7pTORhIfjbQQwFlR4QDjJmu7yGg2ZmZQQoAwL0kgIBZ9u3aITU/IR3ANB6plCv0T4EHGzfBVfA78LdEwoJHBUf+mwKhPevnuZ1gy9i7Ln7A1IvHjQ5ICAD8wedIN4nSuvaZsGS7yzV7ykJzwNFTI2UA/zCIO94OWFXS7pWrXO0OdEhhY4FkkVzkMkBCbzl476hSnnS2satdSGtlywZbOg6QPhw2r+86v31B+ze7Pih7L9cr5eENETCyTfovhb4nMkUFt6gdru+4favWGNJ8gNrYk9Lwxz/cUjjRULnVHKMasRvXm5WEG5iVgcI+zXu46jhymAJdgIAfXjpWqBdMC+meQ5AuNmPhaECacgjEZi24h5fBEWwf5+bLVksaQLAKIHj4wmSkJrUIG202MmZ4DuzlmSCE9MsItdvGCZRniONleN67xqNtyCw8xwUplQ4o4Q0iTzIJAba+lwd3rMunFckgv0syiArKdeJMIVyc5DGij73y30DeMPZ4FSBsXaZiguMlBpEoRhRjgvbINgryJNHk2GIhKU6ybIzuDDQ/7EcFIa7N/q/9i/YC85lTYYhMRIez0IhCeQ4Uy40EcwYW/sT+k+5VIHgokihBdiN3KSMjar7NOrwJ/S+fzShUGaGcznw6UfIGBKn0oaQ1wH9p2VlIKokVA5mCEiG5Dn4wIizddnOl/j4vTaANPEMnSuHKSFAcX2IbjfRIqN0sh+a+Zqmy7R3UnhIlMMC8QYQRGViwPThLSz680268CXZcagcMvHFAAxUXkMRZyo9t6pRwLbAZ5RRBnqGB457YjpkTh+HagSO5FXLuQIRkoX8UQZ65pDnr/YCdbYRlTUjEqdR7KYO12vOfa02GJI9byMnCEZVVvQm6kcbymd3IJpsVlf98iw3xrH/dg3SBFEdXhKj6/DeSwPNQ0INw8/gWRw9gdWG/JJA7e8C9YGzS6s4fBEwc1K1wb4mULf7QED1wDoDiC0CjRHakf7PyOT3AYt2hWUNMofmThZLWFLoDqLAWSJaCCIB4IJ0H2Xo7/BrFihJBe7vUOgQJBzYAeBzhXZ9YEm2Aj/kmCTMiUnacL3CL85e/ogCk8VRGNzQJ2jDK/xqVSgqcGn8SSPHoQvlLf5ZEju+5fQztl5dSC/w60KBrwq0ha8FHDrXK1QV8C+5W0C3VIiywKU14HRdI4FLatflF8zuvyoxMnypQJzsN9b40IBSj36G84RMIuRQUoG6xIfC8o08wT3DaUKaLDMy9WiAheUbBJZ5EKiTdng7FJh5vUezkQ2CY22HPIIKiTbyIOU3Lp9yJPAdGplSn8aC1piviDyWgYKkaVRYUYR7X4hi/EgQBnKwbRgtAi6hUjq8QDZUWn88HYSsM0VuEC8rwDQxLFJniZTw43CzIsE0V7Ee5G2DCY53NgUYWzBUDg/VPhkkSvTItL1LOsVpczMqdzv9p1JdxzUKoy3fxSaqGAMkqqWmSY2HAN/EWotCVhVq+QtO9ZKsxKTqJUDG0IZoXkUrZ8ezwoqcVR4mvRGI0HVkBU+YKRqjeulPwC+ELqybYaWROrWABzSoHWgjqTlLyXRUZpUa9/4xSVfE1ViiBrFQaEPzwnaxhVGbgLpmirR7u2KOpemOLnRBTRoYc0TPis4qP5QWyfLj9L3MH7w6KpO6gh6Zlxezk9YtQFQDwY1ZJNA4lTIlqhrQ9juSvcO1LC7j45YIRawYv4axSCBhLD86cNH5xy5HOkYfVj6L5mX8SNqEad6V64wdQsZQpkRZBe4t8KMSw6aRTexajoWByuVhm0bW2KpPJT29cgz3IhsRcdN0m+77vHoojfw4+1eu/Cuj5cQOKIf3qaha5Fasivlsuy9jsTSi36AhTIJ4wI4R6X7GORO8kuKl6h0bg0ZXm+4pPd4wQ6KBX6fHzJnAkjWEKZF9k02ZS1hnX0V7qKIhtyqDeJeGAhQJXWh1BpJcnvtwNa2TBcUv8fu060kWv2ogqWlZdwC4peyglESatZiXca9baH5JPJMHnnzZslaZwsLPVtZ0LeVqL/wx/QGvqqOnfSkXti2hW2nllUeFAh3pIBaQSX/oaTVI4HuzvKm5hvGRfiQW/W+pifg6sed7ill2CCEXT/U+G83rDWexXf6u3h0SOx06gafYPSfOfjCBQKZgp8knH8PHl0oVq2jjLYPvHmge4wTBr9yTigXB6k/TOj+CTqbv8n3DEMrL7KYPCA9Ino7dNQRbLMlaJMuGeXyYN/luQLAw9hoR6wzqLapm6acUgG5v/kV+LAcM6KmAkITFGQDEoNJofVHDrJeeeoXmHoJZloazJI0A6R0sBozKd10p/kNN1xAVhISK/4iZdEH4BFFv6PSKz8h1bTC+pCVcgGCebXllHKGNkBXHGLrRwhpN+YEojPLi6R6CPuXZP1ndwi6N+jqKgwxBBWs0/QfHuDTP4plcFvfzpPIgfIrkXpjOqfelaoZG9F26YEEYY/GLUpTkQbB6dWOt/0h/StKvP/reYMMulhPQoJU2oGlLamzn7g9xF1SPcA3OEfuVZctLPyQa1YIwbR8o6dpFkfxauzNh9eVHm4AoKy9pjNxKDcnwBG7Y5X82QGe2GeW60aqOr/1h1GTCdTG1Pbk/GRDPdpXhDsxT8F4IH1hIJrnZJB9Fahg0zaQO9FGpM8vkURV6vJo6zs0c/d9mKXGk9z5RT/24D0QMxMa/KgxyyhT5qAsA4qyTnCWTX6n2SYX4LudbsRvLe8ExintBCcJLIWl3yuVKVwrCw9/BaJIF4q+LL1dlnyMu2Y13npegflkzqsNYZWAr/d2/BwQsezOj4icS4XPkxZJ30dK+hCfBwjtx+1tgIXO7sApIxbvq+nvA4RJwQWHCg2uMxKFZ/ApoaKxZ3PI5zeam4Mf0IyA3kCKL8iprfiZ6wI85/oZf8+DnS2EqSLNAIaZBIvD8AOgOvLcl1zW0+ypBImIfL/MDwoQP9tl2gUkt4LHv0WEfP+78gT7jZyz2vmTwtTJEyZUsowcVTh/IjMs4Yb4+60aXYBMHHtCFtCzKZw9kx3G0BD5JThMzEmdtFDLkyljcpp4c/KypC/3Xatwo29g7IY66OtPPzk8Vngc1ZcriKG9pQqDcyjryFtPcuWMgli5Ejv9yWtCMkF/kyDCOsdw+dgSVuo1DzBvCKEc60kqlnky1I67iPnTswLK+TE0MgtNgAZZBROdBukpNDnBkPoGyPoc8MReGxsdEzoYSucBuvLgjy36A0K5PnkSgGh8bkQSirVAaiWd24YPchqSfPGNYrvLRT46zG7ypC7H9sJ7tFamesTna5EBha2QdToQ9HK9B7Y7qMpJtn8xICL3G3LVIMwiM8e4zVIjZndYz9x9tCmNSwnGn8rxoIidxItLBWY+Gc3oGzdMq05nNaukNsutwlSj62Sr5sO5h2un0oywZlnQWBmBrLd1OGkEphrO6auh9oSax7P6DEBZagRvDyI+hgCSFg3pKAdw1dv4SSDdcQdKIqGQXyycpnNCz+8TfVBQ1jcYuO+IO0C8+SeF4nq2ztkBTLYVpsnvtHRLqiWySwuk8t48dmj/B9HGiIv0dEqp/2SSFs3lu38H7z0nTFCnKu7hichOP6LKh6ywzKQ6315/csGGKdXG8Uj5JoR9QYfBemJSKsGRR393oo40AxLXrx/N25U6Z3BbzixZyOAWru+50LoEKxtnA+asN7ouiD5O/2OPS1qNpoV5LD2MTN5lU7V64A8UG3TaBOYvrF2aGlnZ+ICLTFyY6StDjHZt8Eu+wBzwGc/DZZnLRazqFGiUgB/c5yDmLPSLx0m3nbbKw4Io0idJpaudhSh/Dz8y4QIxYqslucurrYcVD8uAsv3gTWfPQBbd8T617nFrAuBmceMa+P/oegDksV/LuZta/3iTCstLjROKXsjtD9G26ejI/noU6G1QfzU36GfLCWBlCY+97Jr4VyEFBRz8duF+oZW7EbPutbxYWGIrrzzice/Y7398dhwmVxEgTqrcLnUDabKH5kZFa7Lz8wzzQoykvJnw9/TiPhiAhFlrqs+XCXd2tEkWWtCjL1ye9lJqjZ9qd7qfjWjj3bHoTFnlwdoHuQ55ptef7haFyJK/7tst0G69culsE1eCohrhQlw8h5SgBotvwFaH3dRKGfiaUEzwuLU+3Lfiw6T1vdc6t5YKN9d13swdR8O/xAi8eoU792wlO9HyBdNuS39fBONjOGfH2Ey1fKMZKS/6F7sI7MhOe/pofTA7DhWggU2a/t4Ov7V4ikHwqL4g3GJgcRZ8bse7p4au7UR6rLL0VlY2jXZo4L4zNbLWmvWCR1GLA9OS1R9jftcl7BfY5vuM1JdBynubADImLi4HtKSBb9wnNt+7e9XYSEiicDUKv3OCrOSdULzeVerNWmaAp2Sh9L/O2t6FTLI+VJLSBUqckNNaHlAV/pZeSkv+zo5v9Y0X4G7R+5e09MlbbIy4EWfsN5P0YOe9jSukp/zaizFoZtjuldBE3bkkeFS/GCkJjzPGdL8mjOA15gc2KL5HEEEftkun6OuPNdLa5176VoGQw4YrcweO3fSNND5IBvjHBXnayYF3gbFYqcKAwl77LX8Ejg3jLviyPF57klThIo1CRA9kXCxKqwBFy8cxVQmffFiWB3/n88cIvxaYEuVcVU66Phrf5DO/OyFcgl40kj2eSyItQMaSQJPuPpAeOejrHS5tpwQg75AUBRIu9Tx35lWcc6cdRrR2+teOSsz07WiZ1y/UVnX4fMfiL5ylBWFyFjHgPOiVnOGAzOQtXIBMqcGez3NvT6bcTVKyl/JW/pzni6813eNlJt/hrIXF3o+XP8a4666kQ12uGub/po8NsoTCi0dkodIOJzavofODmmZgYWgjc01GOwAHJ3lU4PuQtTDxWZbWZyg1PHmsLz4pen8SifqgM8UleKmgE2kOLrwyv+9KUWknRL/ySG+RBXeROutPCXWKPQqV62LceRb3QooaNWwyCHWLL/5LR8BVVDDmMAk3HT22T7AhpRe/+vsbitE1J1pq8odKelWS2JfnPeTd7ya5RVx/wftV9lF0ituZ4wP/pjhpVibeKZX0UeR829dRhMdFeuxMhny458WuASPXS/prRI4Ew6wQkQ/4TTqYtmearceuZ/4KTdVthjJ+FrOc+u2petdkRtZ75T9ggkWg02x216/N7Nl/2YqJDpe76/DdtFyXw89qNIzVy7emftQXioCWrKhjgjn7YQcEE1cLStZ94hBkS1iRLjlladNjCOY/00ZzC453YixNn+88P3a4s+ewe7mKXOaxxy/CnFUb28vzxptR2JeiODOq9JcF7SmGkuEhsT9HhYYWRrxYdHloYuRi03NF9/lts3qf0MLL/YWAgePP533v7AA==;" parent="mEXFG2sUmQ1XzkrOF1mA-1" vertex="1"><mxGeometry x="930" y="457.5" width="30" height="30" as="geometry"/></mxCell><mxCell id="01Let86RBlpvGtF0hyK3-50" value="Github Repo" style="ellipse;shape=cloud;whiteSpace=wrap;html=1;rounded=0;labelBackgroundColor=default;labelBorderColor=default;gradientColor=none;strokeColor=default;fillColor=default;" parent="mEXFG2sUmQ1XzkrOF1mA-1" vertex="1"><mxGeometry x="950" y="560" width="120" height="80" as="geometry"/></mxCell></root></mxGraphModel></diagram></mxfile>